<svg xmlns="http://www.w3.org/2000/svg" width="600" height="600" viewBox="0 0 600 600">
  <rect width="600" height="600" fill="#F0F0EC"/>
  <g transform="translate(300,310)" fill="none" stroke="#D0D0CC" stroke-width="7" stroke-linecap="round" stroke-linejoin="round">
    <!-- Beanie dome -->
    <path d="M-80,10 Q-90,-30 -75,-65 Q-50,-110 0,-120 Q50,-110 75,-65 Q90,-30 80,10"/>
    <!-- Folded brim -->
    <path d="M-80,10 Q-50,25 0,28 Q50,25 80,10"/>
    <path d="M-82,0 Q-50,15 0,18 Q50,15 82,0"/>
    <!-- Knit texture lines -->
    <path d="M-60,-20 Q-40,-85 0,-95 Q40,-85 60,-20" stroke-width="4" stroke-dasharray="6,8"/>
    <path d="M-70,-10 Q-50,-70 0,-80 Q50,-70 70,-10" stroke-width="4" stroke-dasharray="6,8"/>
    <!-- Pom pom on top -->
    <circle cx="0" cy="-125" r="18" stroke-width="6"/>
  </g>
  <!-- Orange accent: small tag on brim -->
  <rect x="310" y="305" width="14" height="8" rx="2" fill="#FF8000" opacity="0.9"/>
</svg>