<?xml version="1.0" encoding="UTF-8"?>
<svg id="a" data-name="Layer 1" xmlns="http://www.w3.org/2000/svg" viewBox="0 0 1283.961 287.526">
  <g>
    <path d="M1188.942,116.797c-17.724-4.571-33.805,3.584-38.292,21.427l-36.185,143.881-79.701-.014,35.897-142.897c.875-4.661,1.44-8.806.597-13.198-1.777-9.26-11.52-11.048-20.917-10.234-14.283,1.236-22.021,10.617-25.655,24.275l-35.651,142.106-79.888-.094,53.732-213.998,80.373.01-6.046,26.777c19.832-25.728,46.179-34.303,77.569-32.373,22.833,1.198,40.103,8.663,44.478,32.914,11.814-15.191,27.593-25.185,46.109-29.813,20.958-5.239,52.152-5.04,68.897,8.643,11.658,9.527,10.988,29.886,7.367,44.375l-31.006,124.076c-1.83,7.324-5.119,13.362-9.81,19.09-11.569,13.265-27.914,20.394-45.614,20.377l-34.201-.031,35.692-142.892c2.404-9.626,1.428-20.041-7.744-22.407Z"/>
    <path d="M923.412,68.381l-53.468,213.869-79.581-.006,6.133-26.562c-12.513,15.466-27.754,25.55-46.52,29.419-21.942,4.523-51.612,3.987-67.656-12.712-9.296-9.676-7.958-27.507-5.048-40.908l40.869-163.169,79.834.077-35.984,143.465c-.857,4.284-1.162,7.973-.755,12.057,1.129,5.028,4.292,8.845,9.404,10.101,8.596,2.113,18.075.985,25.35-4.247,5.994-4.312,9.017-10.51,11.539-17.52l36.136-143.925,79.747.064Z"/>
  </g>
  <g>
    <path d="M182.095,233.09l-68.751-.015-21.527,49.034-91.817.124L122.308,54.415C141.857,21.604,175.981.725,214.312.091l46.427-.091,10.689,282.223-91.998.037,2.666-49.17ZM185.096,178.997l6.304-117.161-54.232,117.128,47.929.034Z"/>
    <g>
      <polygon points="628.193 282.223 548.545 282.257 602.05 68.198 681.876 68.221 628.193 282.223"/>
      <g>
        <path d="M504.023,230.953c2.479,2.466,6.657,3.791,10.125,3.816l16.846.125-11.893,47.506c-19.623,1.577-39.121,2.492-58.91,1.735-10.441-.399-20.372-1.757-29.753-5.755-8.228-3.539-13.627-10.177-14.501-19.182-.752-7.752-.248-15.47,1.744-23.359L476.542,2.709h79.787s-16.972,65.475-16.972,65.475l33.188.029-11.799,47.936-33.448.027-25.769,103.428c-.558,4.172-.737,8.135,2.493,11.349Z"/>
        <polygon points="367.913 282.242 288.284 282.246 358.929 .005 438.803 .008 367.913 282.242"/>
      </g>
    </g>
  </g>
</svg>