<?xml version="1.0" encoding="UTF-8"?>
<svg id="a" data-name="Layer 1" xmlns="http://www.w3.org/2000/svg" viewBox="0 0 802.024 1162.686">
  <path d="M424.47,1142.727c-1.987,12.641-13.765,20.313-24.772,19.946-11.035-.368-22.128-8.251-23.991-20.943l-8.569-58.358c-4.454-6.735-8.815-14.494-10.044-22.424l-20.651-133.293c-135.932-21.189-250.448-110.679-304.555-234.947C-33.859,541.703,4.361,365.779,125.341,254.598c47.617-43.76,103.15-75.495,166.654-93.063-1.715-18.009-.509-35.201,11.645-47.732,13.841-14.271,31.945-19.713,52.485-22.736l-.088-26.932c-10.946-5.628-20.653-13.401-21.462-25.655-2.09-31.642,65.087-52.424,116.34-27.319,8.678,4.251,17.754,13.927,18.799,22.902,1.626,13.97-7.323,23.542-21.031,28.97l-.644,27.962c22.337,2.856,40.971,9.318,55.207,25.214,10.843,12.106,11.732,28.236,9.791,45.421,41.447,12.599,79.566,30.641,114.161,53.581,184.536,122.367,230.91,371.911,100.975,551.639-61.78,85.454-155.53,144.063-262.326,160.807l-22.569,136.699c-1.044,6.324-6.637,14.815-9.667,20.22l-9.14,58.152Z"/>
</svg>