<?xml version="1.0" encoding="UTF-8"?>
<svg id="Layer_1" data-name="Layer 1" xmlns="http://www.w3.org/2000/svg" viewBox="0 0 578.96 359.03">
  <defs>
    <style>
      .cls-1 {
        fill: #000;
        stroke-width: 0px;
      }
    </style>
  </defs>
  <path class="cls-1" d="M258.97,46.91c1.16,0,2.09,0,3.02,0,.77,0,1.19.5,1.6,1.08.62.88,1.3,1.71,1.98,2.55.46.57,1.08.73,1.81.73,3.29,0,6.58.02,9.86.08.87.02,1.46-.27,1.97-.97.58-.78,1.32-1.45,1.89-2.24.45-.64,1.01-.86,1.72-.87.87,0,1.75,0,2.84,0,.02,1.18.1,2.15.04,3.11-.06.97.23,1.65,1.06,2.22,2.05,1.4,4.04,2.88,6.05,4.32,2.33,1.66,4.64,3.34,7,4.96,1.28.88,2.65,1.65,3.97,2.47,2.73,1.7,5.45,3.42,8.2,5.08,1.47.88,3.01,1.63,4.51,2.45,2.3,1.26,4.57,2.56,6.89,3.79,2.96,1.57,5.97,3.02,8.9,4.63,2.93,1.61,5.98,2.93,9.01,4.3,2.73,1.24,5.4,2.59,8.14,3.79,3.22,1.41,6.49,2.71,9.73,4.05,3.05,1.26,6.09,2.58,9.16,3.77,3.13,1.21,6.32,2.3,9.47,3.46,1.19.44,2.34,1.01,3.55,1.41,3.09,1.05,6.2,2.03,9.3,3.05.82.27,1.63.58,2.45.84,2.05.63,4.1,1.22,6.15,1.86,3.18.99,6.34,2.04,9.53,3,1.84.55,3.72.94,5.57,1.45,1.39.38,2.74.88,4.13,1.26.43.12,1.04.22,1.35,0,1.32-.89,2.9-.75,4.33-1.16,2.64-.76,5.35-1.23,8.04-1.79,1.42-.3,2.87-.51,4.28-.83,1.49-.34,2.97-.78,4.45-1.18.15-.04.29-.11.45-.13,1.52-.24,3.05-.42,4.56-.73,1.5-.3,2.97-.75,4.45-1.1,1-.24,2.02-.41,3.03-.61,1.56-.31,3.13-.62,4.69-.94,1.57-.33,3.13-.71,4.71-1.03,1.42-.29,2.86-.53,4.29-.8,1.73-.34,3.46-.69,5.19-1.03.46-.09.93-.12,1.38-.22.6-.14,1.18-.33,1.77-.5.34-.1.69-.24,1.04-.26.93-.06,1.8-.21,2.71-.49,1.5-.47,3.13-.54,4.7-.8.55-.09,1.1-.24,1.64-.37.2-.05.39-.16.59-.18,1.74-.25,3.56-.24,5.19-.79,1.64-.56,3.37-.3,4.98-1.05,1.14-.53,2.53-.55,3.8-.78,1.17-.22,2.35-.44,3.52-.62,1.8-.28,3.61-.48,5.4-.79,1.74-.3,3.46-.68,5.2-1.01.51-.1,1.04-.11,1.55-.19.51-.08,1.02-.19,1.52-.3.65-.15,1.29-.32,1.94-.46.75-.16,1.51-.3,2.26-.45.1-.02.2-.07.3-.08,1.89-.24,3.79-.48,5.68-.73.56-.08,1.1-.23,1.66-.34.51-.1,1.02-.18,1.53-.27.91-.16,1.81-.36,2.72-.48,2.4-.32,4.8-.61,7.37-.94.08.66.18,1.11.18,1.55,0,10.7.01,21.4,0,32.09,0,1.55-.15,1.63-1.67,1.82-5.9.73-11.8,1.49-17.7,2.24-2.28.29-4.55.56-6.82.9-2.3.35-4.59.77-6.89,1.16-.15.03-.31.06-.46.08-2.37.27-4.75.49-7.12.81-2.1.28-4.19.68-6.28,1.02-.15.03-.31.05-.46.07-2.32.26-4.65.46-6.96.79-2.16.31-4.29.81-6.45,1.13-4.85.74-9.71,1.39-14.55,2.15-2.1.33-4.26.34-6.27,1.18-.09.04-.2.05-.31.06-2.06.25-4.13.46-6.18.76-1.89.28-3.76.67-5.64,1.01-.15.03-.3.08-.46.1-2.11.26-4.26.33-6.32.82-2.02.48-4.11.4-6.11,1.13-1.39.51-2.97.5-4.46.74-5.05.81-10.08,1.69-15.14,2.43-2,.29-3.91.94-5.97,1.08-2.51.16-5,.78-7.49,1.2-2.45.41-4.91.79-7.34,1.25-4.23.8-8.44,1.68-12.67,2.47-3.64.68-7.3,1.27-10.94,1.95-2.03.38-4.04.9-6.07,1.29-1.63.31-3.28.51-4.91.8-1.73.31-3.44.68-5.16,1.02-1.27.25-2.55.47-3.81.72-2.6.52-5.19,1.05-7.78,1.56-4.45.87-8.9,1.72-13.35,2.59-2.23.44-4.46.88-6.69,1.36-2.52.54-5.03,1.16-7.55,1.69-1.57.33-3.18.5-4.76.81-.91.18-1.77.56-2.68.75-5.2,1.1-10.42,2.16-15.62,3.26-.85.18-1.67.53-2.72.86-.03.36-.11.86-.1,1.35.09,5.53.18,11.05.3,16.58.12,5.63.26,11.26.41,16.89.03,1.3.13,2.6.15,3.91.01.61-.06,1.22-.09,1.91h-8.65c-.05-.68-.13-1.35-.13-2.01-.01-6.84.18-13.68-.07-20.51-.18-5-.24-10-.3-15,0-.44-.17-.87-.26-1.31-1.98.4-3.81.71-5.61,1.13-2.02.47-4.02,1.03-6.04,1.53-.59.15-.9.52-.97,1.09-.06.57-.07,1.14-.07,1.72,0,10.33,0,20.67,0,31,0,.77-.08,1.54-.12,2.37h-9.08c-.04-.67-.12-1.32-.12-1.97,0-9.86,0-19.73-.01-29.59,0-.65-.1-1.3-.16-2.09-2.48.61-4.77,1.21-7.07,1.74-2.22.51-4.46.9-6.67,1.43-1.91.46-3.78,1.07-5.68,1.55-3.99,1.01-8,1.96-11.99,2.99-2.9.75-5.76,1.61-8.66,2.37-1.45.38-2.95.58-4.4.97-1.7.45-3.35,1.05-5.04,1.52-3.52.97-7.05,1.88-10.57,2.86-2.08.58-4.13,1.3-6.21,1.88-1.89.53-3.81.93-5.69,1.46-1.43.4-2.83.92-4.31,1.41v13.41h-3.99c-.28-3.88.03-7.83-.17-11.78-1.14-.5-1.95.3-3.05.48v11.32h-4.54v-9.5c-.67,0-1.15-.1-1.56.02-1.68.49-3.33,1.08-5.01,1.58-1.78.53-3.58.98-5.35,1.52-.84.25-1.63.65-2.47.91-2.98.96-5.97,1.87-8.95,2.83-2.41.77-4.8,1.59-7.21,2.36-.53.17-1.1.37-1.65.37-5.85.03-11.69.02-17.54.01-.25,0-.5-.06-1.14-.13.96-.44,1.6-.76,2.26-1.03,3.78-1.54,7.57-3.04,11.34-4.6,3.01-1.24,5.98-2.56,8.99-3.78,3.45-1.39,6.93-2.67,10.39-4.03,2.03-.8,4.03-1.7,6.06-2.51,1.28-.51,2.6-.92,3.88-1.42.57-.22,1.11-.52,1.63-.84.19-.12.37-.38.41-.61.25-1.37.44-2.75.7-4.12.32-1.67.69-3.33,1.03-5,.24-1.16.49-2.32.7-3.49.3-1.62.56-3.24.88-4.86.32-1.62.69-3.22,1.04-4.83.04-.2.1-.4.13-.61.24-1.63.43-3.28.73-4.9.28-1.51.82-2.99.98-4.52.18-1.65.05-3.33.07-5,.01-.92.06-1.85.09-2.73,1.21-.57,2.1-.35,2.7.64.45.73,1.06.93,1.84.91.47-.01.94-.02,1.41,0,.83.04,1.48-.18,2.03-.89.78-.99,1.82-1.31,3.16-.67.03.53.11,1.09.07,1.64-.14,2.12.33,4.08,1.33,5.97,1.03,1.95,1.75,4.08,2.89,5.96,1.43,2.36,2.99,4.63,4.83,6.75,1.86,2.15,4.08,3.78,6.3,5.57.97-.63,1.94-1.21,2.85-1.87,2.46-1.79,4.92-3.64,6.86-5.97,2.33-2.8,4.63-5.65,6.43-8.86,1.66-2.96,3.63-5.75,5.23-8.73,2.44-4.54,4.71-9.17,7-13.79,1.89-3.82,3.71-7.68,5.52-11.53.7-1.49,1.27-3.04,1.94-4.55,1.61-3.61,3.29-7.19,4.87-10.82.94-2.16,1.72-4.4,2.6-6.59.72-1.81,1.48-3.6,2.21-5.4.79-1.96,1.59-3.92,2.36-5.89,1.28-3.25,2.56-6.5,3.82-9.75,1.09-2.82,2.2-5.63,3.23-8.48,1.42-3.91,2.75-7.85,4.16-11.76.51-1.43,1.21-2.8,1.68-4.24.37-1.12.63-2.3.72-3.48.12-1.5.01-3.02.04-4.54.01-.67.12-1.33.21-2.24ZM393.91,118.28c-.55-.32-.76-.49-.99-.56-1.93-.61-3.85-1.24-5.8-1.79-1.94-.54-3.92-.91-5.85-1.48-2.62-.77-5.21-1.65-7.8-2.52-5.21-1.75-10.43-3.49-15.62-5.31-2.27-.8-4.49-1.77-6.72-2.69-4.36-1.8-8.71-3.6-13.05-5.44-1.99-.85-3.93-1.8-5.89-2.72-3.09-1.46-6.18-2.9-9.24-4.41-2.03-1-4.01-2.07-6.01-3.13-2.34-1.24-4.68-2.47-6.99-3.76-2.61-1.45-5.19-2.94-7.76-4.46-2.63-1.55-5.24-3.14-7.83-4.76-1.48-.92-2.88-1.96-4.35-2.91-1.11-.72-2.25-1.37-3.7-2.25,0,.89-.02,1.39,0,1.89.13,3.12.31,6.24.4,9.37.09,2.97.07,5.95.14,8.92.17,7.03.36,14.07.53,21.1.05,2.19.07,4.38.13,6.57.15,5.83.33,11.67.47,17.5.09,3.49.13,6.99.21,10.48,0,.38.14.77.24,1.27.83-.25,1.5-.47,2.18-.67,1.68-.48,3.38-.92,5.05-1.43,1.92-.59,3.82-1.26,5.74-1.84,2.6-.78,5.21-1.48,7.81-2.25,1.69-.5,3.34-1.12,5.04-1.6,1.89-.53,3.82-.92,5.71-1.45,2.93-.83,5.82-1.77,8.75-2.6,3.01-.85,6.04-1.61,9.06-2.44,2.24-.62,4.45-1.36,6.7-1.95,2.74-.73,5.52-1.32,8.26-2.04,2.6-.68,5.17-1.48,7.77-2.17,4.07-1.08,8.15-2.11,12.23-3.14,2.5-.64,5.01-1.25,7.51-1.86,1.05-.26,2.12-.48,3.16-.76,1.39-.38,2.77-.85,4.16-1.2,1.96-.5,3.94-.94,6.3-1.5ZM202.13,174.96l.08.29c.25,0,.52.07.73-.01,1.74-.69,3.43-1.48,5.19-2.1,3.12-1.11,6.27-2.16,9.43-3.16,1.83-.58,3.6-1.15,4.78-2.84,2.27-3.27,4.67-6.45,6.89-9.76,2.07-3.09,4.04-6.25,5.94-9.45,1.82-3.07,3.51-6.22,5.22-9.35,1.91-3.49,3.82-6.98,5.69-10.49,1.3-2.46,2.55-4.95,3.79-7.44,1.36-2.73,2.67-5.49,4.02-8.23,1.25-2.55,2.55-5.09,3.75-7.67.38-.82.72-1.77.73-2.66.05-11.89.03-23.79.03-35.69,0-.49-.1-.97-.16-1.46-.41.38-.5.76-.64,1.13-.83,2.12-1.71,4.22-2.52,6.35-1.25,3.29-2.45,6.59-3.7,9.88-.8,2.13-1.64,4.24-2.46,6.36-.67,1.74-1.28,3.5-1.98,5.23-1.9,4.64-3.81,9.28-5.78,13.89-2.58,6.04-5.2,12.07-7.84,18.08-1.23,2.8-2.52,5.57-3.83,8.33-1.31,2.75-2.66,5.49-4.05,8.2-1.65,3.22-3.34,6.43-5.05,9.62-.68,1.28-1.38,2.55-2.17,3.76-1.57,2.43-3.24,4.8-4.79,7.24-2.6,4.09-5.79,7.64-9.63,10.6-.56.43-1.11.89-1.67,1.33ZM413.14,113.77c-.21-.2-.3-.34-.42-.38-1.41-.48-2.82-.99-4.25-1.42-2.8-.83-5.62-1.58-8.41-2.41-1.44-.43-2.82-1.02-4.26-1.45-1.78-.53-3.61-.9-5.37-1.48-3.32-1.11-6.62-2.32-9.92-3.5-2.78-.99-5.55-2-8.33-3-1.84-.66-3.71-1.23-5.51-1.98-4.55-1.87-9.08-3.8-13.59-5.75-3.87-1.67-7.74-3.36-11.58-5.1-1.79-.81-3.5-1.79-5.28-2.64-1.71-.81-3.51-1.47-5.19-2.34-3.45-1.79-6.84-3.67-10.25-5.52-3.35-1.82-6.72-3.59-10.01-5.52-4-2.35-7.97-4.77-11.86-7.3-3.33-2.16-6.54-4.51-9.81-6.77-.84-.58-1.7-1.12-2.68-1.76-.13.47-.27.76-.27,1.04.02,3.18.08,6.36.09,9.54,0,.62.37.92.81,1.22,1.62,1.11,3.2,2.27,4.84,3.32,3.13,2,6.29,3.96,9.46,5.89,2.92,1.77,5.85,3.51,8.81,5.2,2.32,1.33,4.65,2.63,7.02,3.85,5,2.57,10.01,5.13,15.06,7.61,2.79,1.38,5.64,2.65,8.51,3.88,3.63,1.56,7.28,3.09,10.97,4.53,3.72,1.45,7.48,2.78,11.23,4.15,3,1.09,6,2.21,9.03,3.21,3.21,1.06,6.47,2,9.71,3,2.17.67,4.32,1.38,6.5,1.98,1.94.54,3.92.93,5.87,1.42,1.15.29,2.31.55,3.42.96,1.21.45,2.41.67,3.67.37,1.26-.3,2.49-.68,3.74-1,1.4-.35,2.8-.69,4.21-1.01,1.29-.29,2.59-.55,4.02-.85ZM258.3,110.8l-.35-.06c-.37.65-.78,1.28-1.11,1.95-.76,1.53-1.44,3.09-2.21,4.61-1.83,3.59-3.68,7.16-5.54,10.73-2.32,4.45-4.59,8.93-6.99,13.33-1.73,3.18-3.61,6.28-5.46,9.39-2.36,3.95-4.76,7.88-7.53,11.57-1.2,1.6-2.28,3.29-3.56,5.15.54-.07.94-.06,1.29-.18.44-.14.82-.44,1.26-.59,4.62-1.55,9.25-3.06,13.87-4.61,3.12-1.05,6.22-2.14,9.34-3.18,1.98-.66,3.96-1.29,5.96-1.88.78-.23,1.14-.64,1.14-1.44,0-.89,0-1.77,0-2.66,0-13.41,0-26.82,0-40.22,0-.64-.07-1.28-.1-1.92ZM267.98,153.47c1.23-.35,2.26-.61,3.28-.93,2.62-.82,5.24-1.63,7.84-2.49,1.51-.5,1.57-.61,1.58-2.24.02-2.56.04-5.11,0-7.67-.02-1.09-.12-2.18-.29-3.26-.35-2.21-1.83-3.5-4.06-3.56-1.62-.04-3.24.05-4.85-.03-1.45-.07-2.33.68-2.7,1.9-.48,1.58-.94,3.22-1,4.85-.14,3.91-.06,7.82-.04,11.73,0,.49.13.98.24,1.69ZM280.27,113.79c0-2.09.01-4.17,0-6.26-.01-1.66-.81-2.55-2.43-2.58-2.97-.07-5.94-.07-8.92-.07-1.13,0-1.82.6-2.04,1.71-.06.3-.06.62-.06.94,0,3.7,0,7.41,0,11.11,0,.41.02.84.12,1.24.4,1.6.98,2.01,2.64,1.99,2.97-.04,5.94-.07,8.92-.11,1.54-.02,1.74-.2,1.76-1.7.02-2.09,0-4.17,0-6.26ZM271.46,81.52c-.24.42-.54.85-.75,1.32-1.22,2.69-2.41,5.38-3.62,8.07-.92,2.04,0,3.58,2.26,3.6,3.13.03,6.26-.06,9.39-.13,1.02-.02,1.26-.21,1.27-1.17.04-3.08.06-6.16-.01-9.24-.04-1.43-.96-2.36-2.38-2.43-2.03-.09-4.06-.02-6.17-.02ZM264.55,66.06c0,1.25,0,2.5,0,3.74,0,.68.24,1.15.86,1.52,2.01,1.22,4.19,1.04,6.37.86.27-.02.62-.37.75-.66,1.15-2.53,2.27-5.08,3.38-7.64.14-.32.28-.85.13-1.04-.79-.99-1.55-2.23-2.92-2.34-2.22-.19-4.47-.17-6.7-.13-1.44.03-1.82.51-1.86,1.94-.03,1.25,0,2.5,0,3.74ZM182.1,161.12c-.08.78-.15,1.16-.15,1.55-.01,2.24.03,4.48-.02,6.71-.02,1.06.36,1.91,1.05,2.66.38.42.72.89,1.11,1.29,1.11,1.14,2.11,2.4,3.62,3.08,2.15.96,4.27,1.35,6.49-.09-2.38-2.31-4.87-4.31-6.86-6.87-1.95-2.51-3.41-5.31-5.25-8.33ZM176.13,177.37s0-.01,0-.02c.67,0,1.35.02,2.02,0,.68-.03,1.05-.4,1.06-1.09,0-1.25.07-2.5-.02-3.74-.1-1.31-.79-1.86-2.14-1.9-.73-.02-1.45-.02-2.18,0-1.32.04-1.84.52-1.91,1.89-.06,1.24,0,2.49-.02,3.74-.01.81.43,1.11,1.16,1.11.68,0,1.35,0,2.03,0ZM189.84,180.28c.01-.1.03-.2.04-.3-1.35-.56-2.76-.99-4.02-1.7-1.3-.74-2.45-1.76-3.72-2.69-.33,1.79-.27,6.35.08,7.54,2.54-.95,5.08-1.9,7.61-2.85ZM278.76,64.61c-1,2.61-2.4,4.83-3.18,7.56,1.56.07,2.95.12,4.3-.18.41-.09.8-.49,1.09-.84.49-.59.58-4.1.17-4.72-.08-.13-.19-.25-.31-.34-.62-.45-1.25-.89-2.07-1.47ZM176.25,159.57c2.93.39,3.71.2,3.6-3.22-.02-.61-.17-1.24-.43-1.79-.15-.32-.6-.69-.93-.71-1.43-.09-2.87-.23-4.39.11.29,2.09,1.52,3.7,2.14,5.61ZM167.02,188.8c.73-.22,1.27-.36,1.79-.56,1.29-.48,1.36-.56,1.37-1.92.01-3.49,0-6.99,0-10.48,0-.57-.1-1.14-.15-1.71-.08.01-.15.02-.23.03-.91,4.81-1.82,9.62-2.77,14.63ZM177.2,168.15c-1.01-2.04-1.84-3.75-2.73-5.42-.13-.25-.61-.48-.87-.43-.25.05-.59.47-.61.74-.06,1.19-.09,2.4.02,3.58.09.99.8,1.49,1.82,1.53.67.02,1.33,0,2.36,0ZM174.81,185.85c.79-.3,1.34-.51,1.88-.73,1.04-.42,1.36-1.03,1.13-2.16-.15-.76-.54-1.02-1.65-1-.44,0-.88.11-1.37.17v3.71ZM268.02,81.64c-1.44-.34-1.66-.21-1.73,1.05-.03.65,0,1.3,0,1.94,1.02-.83,1.51-1.84,1.74-2.99ZM177.67,162.37c.26,1.12.57,2.06,1.33,2.84.46-.78.53-1.03.46-1.73-.1-1.13-.25-1.23-1.8-1.1ZM280.73,62.45c.04-.09.08-.17.11-.26-.08-.12-.15-.26-.25-.35-.17-.15-.37-.27-.55-.4.01.27-.05.58.06.8.08.14.41.15.63.21Z"/>
  <path class="cls-1" d="M498,253.52c-.3.82-.62,1.51-.81,2.23-.3,1.15-.5,2.32-.78,3.48-.24,1-.55,1.98-.8,2.97-.62,2.46-1.22,4.92-1.83,7.38-.4,1.61-.79,3.22-1.27,4.81-.09.32-.5.65-.83.76-.43.14-.93.09-1.4.09-6.26,0-12.53,0-18.79,0-.37,0-.73,0-1.1-.03-.63-.06-1-.37-1.18-1.03-.59-2.14-1.26-4.26-1.86-6.39-.55-1.94-1.02-3.91-1.57-5.85-.34-1.18-.77-2.34-1.14-3.52-.26-.84-.48-1.69-.71-2.53-.84-3.03-1.66-6.07-2.51-9.09-.86-3.08-1.78-6.15-2.63-9.23-.53-1.9-.98-3.81-1.48-5.72-.08-.3-.16-.62-.34-.86-.44-.57-.32-1.16-.19-1.88.49-.04.94-.1,1.4-.1,6.79,0,13.57,0,20.36,0,1.72,0,1.98.34,2.24,2.09.27,1.84.71,3.65,1.07,5.48.24,1.22.5,2.44.71,3.66.28,1.64.46,3.29.78,4.92.33,1.67.79,3.32,1.17,4.98.18.78.31,1.57.77,2.42.25-.64.56-1.27.74-1.94.25-.94.43-1.91.6-2.87.27-1.53.46-3.08.78-4.6.32-1.51.78-2.98,1.14-4.49.25-1.06.45-2.13.65-3.2.27-1.48.55-2.96.78-4.44.28-1.75.54-2,2.32-2,4.02,0,8.04,0,12.06,0,.51,0,1.03.04,1.76.08,1.58,7.81,3.15,15.6,4.72,23.39.12,0,.24.01.36.02.32-.99.71-1.96.94-2.97.42-1.76.75-3.55,1.12-5.33.23-1.12.47-2.24.68-3.36.48-2.55.92-5.11,1.43-7.65.23-1.16.53-2.31.91-3.43.1-.31.55-.59.9-.7.38-.13.83-.05,1.24-.05,6.42,0,12.84,0,19.26,0,.21,0,.42,0,.63,0,1.26.05,1.47.5.99,1.7-.46,1.14-.82,2.32-1.17,3.5-.33,1.14-.56,2.31-.87,3.46-.54,1.99-1.11,3.97-1.68,5.94-.52,1.78-1.08,3.54-1.59,5.32-.55,1.94-1.05,3.9-1.61,5.83-.39,1.33-.86,2.64-1.28,3.96-.26.84-.52,1.68-.74,2.52-.69,2.7-1.35,5.41-2.06,8.1-.41,1.54-.9,3.05-1.36,4.57-.32,1.06-.67,1.3-1.98,1.31-5.22.01-10.44,0-15.66,0-1.25,0-2.51.02-3.76,0-1.46-.03-1.64-.27-1.93-1.66-.26-1.26-.66-2.48-.99-3.72-.25-.95-.52-1.89-.75-2.85-.48-2.06-.87-4.15-1.43-6.19-.62-2.29-1.37-4.55-2.08-6.81-.04-.12-.17-.22-.36-.47Z"/>
  <path class="cls-1" d="M87.35,252.7c.61.08,1.23.16,1.84.23,2.68.3,5.2,1,7.56,2.42,1.53.92,2.22,2.35,2.73,3.81.49,1.39.64,2.96.6,4.45-.1,3.62-1.41,6.66-4.55,8.82-2.27,1.56-4.81,2.18-7.42,2.57-1.54.23-3.12.23-4.68.23-13.93.02-27.87,0-41.8,0-.26,0-.52,0-.78,0-1.44-.05-1.58-.18-1.58-1.68,0-14.24,0-28.49,0-42.73,0-1.62.19-1.82,1.79-1.82,14.98,0,29.95-.04,44.93.05,1.98.01,3.99.28,5.95,1,1.46.53,2.83,1.08,4.13,1.95,2.28,1.51,3.06,3.82,3.47,6.28.23,1.37.23,2.84.01,4.21-.37,2.31-1.25,4.37-3.17,5.97-2.06,1.71-4.34,2.78-6.93,3.29-.7.14-1.37.47-2.05.72-.01.08-.02.16-.04.24ZM68.49,264.63s0-.03,0-.04c1.51,0,3.03.1,4.53-.04.88-.08,1.82-.41,2.55-.9,1.07-.72,1.43-1.91,1.11-3.17-.33-1.29-1.11-2.19-2.54-2.42-3.37-.55-6.76-.26-10.14-.28-.95,0-1.27.39-1.3,1.38-.04,1.35-.05,2.71,0,4.06.04,1.19.28,1.38,1.56,1.4,1.41.02,2.81,0,4.22,0ZM62.82,247.71c3.71,0,7.24.06,10.77-.04,1.01-.03,1.98-.66,2.46-1.66,1.1-2.32-.42-4.82-3-4.89-3.07-.08-6.14-.04-9.22-.04-.3,0-.59.11-1,.18v6.44Z"/>
  <path class="cls-1" d="M140.32,269.38c-.54,1.6-1.15,3.08-1.52,4.62-.22.92-.64,1.23-1.48,1.23-.31,0-.63,0-.94,0-6.58,0-13.15,0-19.73,0-.6,0-1.2-.08-2.07-.14.7-1.97,1.33-3.69,1.93-5.42.32-.92.61-1.86.89-2.8.68-2.33,1.3-4.67,2.02-6.98.64-2.06,1.41-4.08,2.09-6.14.77-2.36,1.49-4.74,2.25-7.11.36-1.13.76-2.24,1.12-3.37.58-1.86,1.11-3.74,1.71-5.59.69-2.15,1.44-4.28,2.17-6.42.08-.25.22-.47.3-.72.46-1.53.46-1.55,1.97-1.55,11.27,0,22.54,0,33.82,0,1.52,0,1.58.12,2.04,1.56.75,2.34,1.57,4.66,2.34,7,.5,1.52.94,3.06,1.43,4.58.58,1.82,1.19,3.62,1.78,5.44.54,1.67,1.07,3.35,1.61,5.02.76,2.35,1.56,4.69,2.3,7.04.56,1.77,1.04,3.56,1.6,5.33.33,1.02.78,2.01,1.14,3.02.28.78.51,1.57.76,2.36.45,1.48.89,2.96,1.4,4.66-.63.08-1.21.22-1.79.22-5.53.02-11.06,0-16.6,0-1.3,0-2.61,0-3.91,0-.51,0-1.03-.05-1.6-.08-.45-1.55-.94-3.02-1.28-4.52-.22-.99-.79-1.26-1.66-1.26-.26,0-.52,0-.78,0-3.81,0-7.62,0-11.43,0-.52,0-1.04,0-1.86,0ZM147.82,240.42l-.37.06c-.72,2.65-1.48,5.3-2.16,7.97-.69,2.71-1.75,5.33-2.32,8.24h9.53c.46-1.52-.45-2.77-.74-4.1-.4-1.84-1.16-3.59-1.7-5.41-.52-1.78-.93-3.59-1.45-5.37-.15-.5-.53-.93-.8-1.4Z"/>
  <path class="cls-1" d="M438.87,243.71h-9.41c-3.18,0-6.37-.02-9.55,0-3.12.02-6.24-.11-9.56.1,0,1.22-.02,2.3,0,3.38.02.67.42,1.04,1.1,1.07.47.02.94.02,1.41.02,8.04,0,16.08,0,24.11,0h1.8c.41,1.24.52,8.12.18,10.41-.61.05-1.26.13-1.91.14-8.14,0-16.29,0-24.43,0q-2.3,0-2.29,2.37c0,.37-.02.73.03,1.09.07.59.41.95,1.01.99.47.03.94.03,1.41.03,8.09,0,16.18,0,24.27,0,.61,0,1.22,0,2.04,0,.09,3.98.02,7.76.04,11.74-.82.07-1.52.17-2.22.17-10.33.01-20.67,0-31,0-5.64,0-11.27,0-16.91,0-.61,0-1.22-.06-1.94-.1-.05-.58-.12-1.03-.12-1.48,0-14.3,0-28.6,0-42.9,0-.31-.08-.68.05-.93.17-.32.47-.66.79-.78.37-.14.82-.05,1.24-.05,15.97,0,31.94,0,47.92,0,.31,0,.63-.01.94,0,1.03.06,1.25.19,1.25,1.17.02,4.28,0,8.56-.02,12.84,0,.15-.09.29-.22.7Z"/>
  <path class="cls-1" d="M312.29,275.09c-.64.05-1.25.14-1.86.14-10.18,0-20.35,0-30.53,0-.42,0-.85.02-1.24-.08-.26-.07-.58-.32-.66-.56-.72-2.14-1.39-4.31-2.08-6.46-.72-2.25-1.45-4.5-2.17-6.76-1.03-3.19-2.03-6.39-3.09-9.57-.55-1.66-1.22-3.29-1.77-4.95-.54-1.66-.97-3.36-1.48-5.04-.48-1.58-.97-3.16-1.5-4.72-.75-2.19-1.56-4.36-2.29-6.56-.13-.4-.02-.89-.02-1.44h23.86c.24.84.48,1.68.72,2.51.31,1.08.66,2.16.94,3.25.84,3.26,1.62,6.53,2.47,9.78.51,1.94,1.15,3.84,1.68,5.78.33,1.19.54,2.42.84,3.62.26,1.04.56,2.07.91,3.36.34-.58.65-.93.77-1.33.41-1.33.76-2.68,1.12-4.02.56-2.09,1.1-4.19,1.65-6.28.27-1.05.52-2.11.79-3.16.62-2.34,1.26-4.67,1.87-7.01.47-1.8.89-3.62,1.36-5.43.3-1.16.33-1.17,1.59-1.18,3.86-.01,7.72,0,11.59,0,3.03,0,6.05,0,9.08,0,.51,0,1.02,0,1.76,0-1.29,5.38-3.19,10.36-4.73,15.44-1.53,5.07-3.22,10.1-4.81,15.16-1.61,5.12-3.17,10.25-4.79,15.48Z"/>
  <path class="cls-1" d="M215.13,229.11c2.03,4.64,3.91,9.37,5.99,14.02.14-.03.28-.05.43-.08,1.87-4.66,3.73-9.33,5.59-13.98h24.81c-.19.62-.26,1.19-.52,1.63-.99,1.68-2.08,3.31-3.08,4.98-1.98,3.31-3.9,6.66-5.9,9.95-2.14,3.51-4.35,6.97-6.52,10.45-.87,1.4-1.69,2.83-2.64,4.17-.6.84-.67,1.72-.67,2.65,0,3.44,0,6.89,0,10.33,0,1.91-.06,1.99-1.9,1.99-6.58,0-13.15,0-19.73,0-.51,0-1.02-.07-1.66-.12-.04-.66-.11-1.21-.11-1.77,0-3.34-.04-6.68.01-10.02.02-1.2-.31-2.23-.94-3.21-1.09-1.69-2.18-3.39-3.24-5.1-2.05-3.32-4.06-6.68-6.13-9.99-1.45-2.3-3-4.54-4.48-6.82-.62-.96-1.16-1.97-1.76-2.93-1.05-1.7-2.13-3.38-3.18-5.09-.16-.26-.18-.61-.31-1.07h25.95Z"/>
  <path class="cls-1" d="M343.03,275.08c0-.72,0-1.28,0-1.85,0-14.03,0-28.06,0-42.1q0-2.14,2.15-2.14c6.36,0,12.73,0,19.09,0,.62,0,1.24,0,1.67,0,.22.18.26.21.3.25.03.04.06.08.07.13.04.15.09.3.09.46,0,14.66.01,29.32.01,43.97,0,.36-.04.72-.07,1.25-.45.06-.89.17-1.33.17-6.83.01-13.67,0-20.5,0-.41,0-.81-.08-1.5-.15Z"/>
  <path class="cls-1" d="M489.55,291.59h4.68c2.58,5.17,5.13,10.29,7.73,15.5.68-.55.52-1.16.52-1.7.01-3.97,0-7.93,0-11.9v-1.83h3.44v20.38c-1.5.49-3.03.19-4.64.2-2.79-5.63-5.55-11.21-8.38-16.92-.63.63-.54,1.36-.54,2.05-.01,4.17,0,8.35-.01,12.52,0,2.49-.18,2.63-2.71,2.3-.05,0-.1-.04-.14-.06-.43-1.38-.4-19.3.05-20.54Z"/>
  <path class="cls-1" d="M303.15,302.32c.04-2.31-.06-4.12.68-5.87,1.01-2.41,3.37-4.79,5.94-5.01,2.1-.18,4.17-.32,6.1.71,1.79.95,2.84,2.45,3.68,4.33,1.14,2.53,1.02,5.1.72,7.64-.41,3.47-1.7,6.65-5.3,8.04-3.33,1.29-7.6.56-9.84-2.68-1.53-2.21-2.04-4.28-1.98-7.15ZM317.08,300.85c0-.26,0-.52,0-.78.07-2.69-2.12-5.87-5.89-5.44-2.65.3-4.31,1.91-4.59,4.22-.25,2.04-.16,4.16,0,6.22.1,1.27.71,2.51,1.71,3.38,2.68,2.32,6.48,1.77,8.13-1.93.81-1.82.7-3.74.65-5.66Z"/>
  <path class="cls-1" d="M453.52,301.56c-.19-2.17.09-4.3,1.17-6.27,1.25-2.27,3.14-3.68,5.75-3.86,1.44-.1,2.96-.17,4.34.18,2.29.58,4.03,2.12,4.89,4.33.97,2.48,1.35,5.08.82,7.78-.23,1.16-.28,2.34-.68,3.49-.98,2.88-2.92,4.55-5.84,5.26-1.41.34-2.77.37-4.15-.01-2.83-.78-4.73-2.52-5.65-5.33-.59-1.8-.79-3.64-.65-5.56ZM456.57,301.95c-.27,2.12.38,4.05,1.51,5.85.67,1.06,1.67,1.75,2.87,1.9,3.5.43,5.35-1.12,6.08-4.46.43-1.96.57-3.94.17-6.02-.72-3.67-3.29-5.1-6.66-4.46-1.09.21-2.13.77-2.78,1.97-.9,1.65-1.42,3.31-1.19,5.22Z"/>
  <path class="cls-1" d="M118.61,312.17h-3.11c-.45-1.45-.96-2.91-1.34-4.41-.2-.81-.66-1.17-1.4-1.18-1.93-.03-3.86-.04-5.79,0-.83.02-1.24.51-1.44,1.36-.35,1.43-.85,2.82-1.3,4.26h-3.14c.26-.81.48-1.47.68-2.13.55-1.82,1.09-3.64,1.65-5.45.91-2.95,1.85-5.89,2.76-8.85.32-1.04.56-2.1.85-3.15.2-.73.6-1.16,1.45-1.11,1.04.06,2.08,0,3.13.03.63.02.98.3,1.17.99.72,2.58,1.55,5.12,2.33,7.68.79,2.61,1.56,5.23,2.36,7.84.3.99.69,1.95,1,2.93.1.33.1.7.16,1.18ZM110.14,294.24h-.46c-.95,3.08-1.9,6.16-2.92,9.46,2.18.12,4.06.11,6.19.01-.98-3.33-1.9-6.4-2.81-9.48Z"/>
  <path class="cls-1" d="M44.49,312.15h-2.83v-20.5c.44-.05.79-.13,1.14-.13,2.34-.01,4.69,0,7.03,0,1.6,0,3.08.43,4.37,1.37.94.69,1.54,1.62,1.81,2.79.41,1.76.33,3.51-.05,5.25-.46,2.1-2.36,3.97-4.81,4.22-1.6.16-3.22.12-4.84.16-1.49.04-1.61.14-1.63,1.6-.02,1.56-.02,3.12-.03,4.69,0,.1-.06.2-.17.56ZM44.7,302.52c1.46,0,2.6.02,3.74,0,3.16-.06,4.22-.92,4.58-3.81.19-1.54-.63-2.86-2.04-3.55-1.17-.57-2.34-.35-3.52-.38-2.72-.05-2.8-.26-2.76,2.68.02,1.6,0,3.2,0,5.06Z"/>
  <path class="cls-1" d="M367.56,291.61h2.76c.03.59.07,1.14.07,1.69,0,3.91,0,7.82.02,11.73,0,.8.11,1.56.46,2.38.55,1.28,1.54,1.81,2.64,2.15,1.68.52,4.12.16,5.21-1.74.54-.94.79-2.16.82-3.26.1-3.65.04-7.3.04-10.95,0-.61,0-1.23,0-1.97h2.99c.05.6.14,1.11.14,1.61.01,4.01.09,8.03-.04,12.04-.04,1.35-.57,2.69-.98,4.01-.47,1.5-1.78,2.36-3.08,2.79-3.16,1.03-6.33,1.07-9.15-1.11-1.25-.97-1.99-2.34-2.02-3.85-.1-5-.05-10.01-.05-15.01,0-.14.09-.29.17-.51Z"/>
  <path class="cls-1" d="M536.18,297.22c-1.16-.85-2.05-1.62-3.04-2.21-1.46-.88-3.84-.53-4.84.6-1.03,1.15-.82,3.04.54,3.7,1.19.58,2.5.93,3.77,1.36,1.61.56,3.23,1.15,3.84,2.96.95,2.81.53,6.23-2.24,7.97-2.41,1.52-4.74,1.46-7.15.14-.13-.07-.29-.11-.43-.17-1.39-.58-2.14-1.54-1.91-3.12.06-.45.05-.91.07-1.38.89-.02,1.18.65,1.63,1.13,1.31,1.39,4.46,2.19,6.1.97,1.14-.85,1.37-1.91,1.22-3.13-.15-1.19-1.05-1.86-2.06-2.28-1.69-.7-3.57-.84-5.18-1.81-1.21-.73-1.8-1.74-1.93-3.13-.23-2.39.06-4.6,2.16-6.13.69-.5,1.5-.98,2.32-1.16,2.31-.49,4.56-.34,6.44,1.32.31.28.63.72.67,1.11.09,1.03.03,2.07.03,3.27Z"/>
  <path class="cls-1" d="M285,297.32c-1.17-.87-2.08-1.67-3.1-2.29-1.29-.79-3.58-.57-4.67.33-1.36,1.13-1.31,3.04.23,3.89,1.07.6,2.29.94,3.44,1.38.81.31,1.67.52,2.44.92,1.1.56,1.83,1.53,2.13,2.7,1.39,5.4-3.03,9.29-7.47,8.33-1.03-.22-1.96-.59-2.85-1.09-1.03-.58-1.83-1.32-1.63-2.69.08-.54.01-1.11.01-2.01.64.54,1.04.84,1.39,1.19,1.22,1.24,2.68,1.88,4.42,1.8,1.95-.09,3.31-1.55,3.19-3.44-.07-1.02-.94-2.24-1.92-2.55-1.36-.43-2.73-.85-4.1-1.26-2-.59-3.06-1.81-3.15-3.84-.06-1.54-.28-3.12.69-4.52,1.01-1.47,2.28-2.47,4.13-2.72,2.32-.32,4.46-.1,6.21,1.61.3.29.55.76.58,1.17.08.98.03,1.97.03,3.1Z"/>
  <path class="cls-1" d="M146.74,297.01c-.27-.26-.56-.5-.82-.77-1.79-1.86-4.83-2.16-6.36-1.04-1.69,1.24-1.54,3.16-.02,4.04,1.1.64,2.35,1.1,3.59,1.38,2.86.65,4.87,2.69,4.81,5.58-.04,1.97-.9,3.76-2.48,5.13-1.93,1.68-5.29,1.56-7.43.56-2.41-1.12-2.72-2.79-2.21-5.23.41.42.75.74,1.07,1.09,1.28,1.43,2.85,2.16,4.79,2.01,1.51-.12,2.83-1.29,3.07-2.79.2-1.23-.56-2.6-1.82-3.11-.85-.34-1.76-.56-2.65-.76-1.75-.4-3.41-1.12-4.37-2.59-.74-1.12-1.08-2.61-.72-4.03.51-2.03,1.67-3.62,3.57-4.6,2.11-1.09,5.64-.62,7.47.9.62.51.93,1.06.9,1.85-.03.72,0,1.45,0,2.17-.12.07-.24.15-.36.22Z"/>
  <path class="cls-1" d="M232.37,297.48c-.74-1.45-2.08-2.06-3.47-2.61-3.56-1.41-7.56.97-7.87,4.77-.13,1.59-.11,3.22.01,4.81.19,2.35,1.5,4.09,3.59,5.04,1.28.58,2.74.41,4.12-.01,1.61-.49,2.67-1.64,3.74-3.12.42,1.35.28,2.52.15,3.66-.04.32-.47.66-.8.88-3,1.97-6.06,2.55-9.47.83-1.99-1-2.98-2.52-3.84-4.48-1.3-2.94-1.05-5.95-.67-8.88.39-3.04,2.61-6.71,6.91-6.98,1.83-.12,3.66-.21,5.38.54.78.34,1.47.9,2.15,1.41.21.16.4.49.41.76.05,1.08.02,2.16.02,3.24-.12.04-.24.09-.36.13Z"/>
  <path class="cls-1" d="M400.12,291.58h14.63v3.16c-1.4,0-2.74,0-4.08,0-1.69.01-1.75.06-1.75,1.77,0,4.64,0,9.28,0,13.93,0,.56,0,1.12,0,1.77h-3.16c-.03-.6-.09-1.15-.09-1.7,0-4.38,0-8.76,0-13.14,0-.37,0-.73,0-1.1-.05-1.31-.23-1.49-1.59-1.52-.99-.02-1.98,0-2.97-.01-.3,0-.61-.06-.98-.1v-3.05Z"/>
  <path class="cls-1" d="M178.5,294.74c-1.38,0-2.58-.02-3.77,0-1.21.02-1.43.24-1.52,1.46-.03.41-.02.83-.02,1.25,0,4.22,0,8.45,0,12.67,0,.66-.1,1.32-.15,2.06h-2.88c-.04-.7-.09-1.31-.1-1.92,0-4.49-.04-8.97.01-13.45.02-1.55-.44-2.19-2.1-2.09-.99.06-1.98,0-2.97-.02-.1,0-.2-.05-.45-.12v-2.82c1.12-.31,11.93-.39,13.95-.07v3.05Z"/>
  <path class="cls-1" d="M341.73,291.64c.03.67.09,1.28.09,1.89,0,4.33,0,8.66,0,12.99,0,.37-.01.73,0,1.1.07,1.22.3,1.47,1.5,1.48,1.67.02,3.34,0,5.01.01.31,0,.62.03,1.08.06v2.86c-1.39.38-9.26.35-10.62-.06v-20.33h2.94Z"/>
  <path class="cls-1" d="M74.87,312.1c-.41-1.21-.46-18.85-.03-20.47h2.74c.04.61.1,1.21.1,1.81,0,4.38,0,8.76,0,13.14,0,.42-.02.84.01,1.25.07,1.08.23,1.25,1.32,1.27,1.62.03,3.23,0,4.85.01.46,0,.92.05,1.51.08v2.78c-1.09.39-8.79.48-10.52.12Z"/>
  <path class="cls-1" d="M196.38,312.16v-20.54c1.03,0,1.95,0,2.86,0,.31,1.09.42,18.09.11,20.54h-2.97Z"/>
  <path class="cls-1" d="M432.07,291.58h2.7c.38,1.11.52,17.49.18,20.56h-2.82c-.3-1.16-.37-18.58-.06-20.56Z"/>
</svg>