<?xml version="1.0" encoding="utf-8"?>
<!-- Generator: Adobe Illustrator 27.3.1, SVG Export Plug-In . SVG Version: 6.00 Build 0)  -->
<svg version="1.1" id="Layer_1" xmlns="http://www.w3.org/2000/svg" xmlns:xlink="http://www.w3.org/1999/xlink" x="0px" y="0px"
	 viewBox="0 0 612 792" style="enable-background:new 0 0 612 792;" xml:space="preserve">
<style type="text/css">
	.st0{fill:#FFFFFF;}
</style>
<g>
	<path class="st0" d="M250.22,402.37c0.82,0.1,1.46,0.37,1.94,0.82c0.48,0.45,0.72,1,0.72,1.66l0,0c0,0.51-0.14,0.96-0.44,1.37
		c-0.29,0.41-0.7,0.73-1.21,0.97c-0.51,0.24-1.09,0.36-1.72,0.36l0,0c-0.27,0-0.59-0.01-0.94-0.05l0,0
		c-0.14-0.01-0.31-0.02-0.5-0.03c-0.2-0.01-0.42-0.01-0.66-0.01l0,0l-1.07,0.01c-0.2,0.01-0.46,0.01-0.79,0.01l0,0
		c0,0-0.05-0.03-0.05-0.08s0.01-0.08,0.05-0.08l0,0c0.28,0,0.49-0.03,0.64-0.08c0.14-0.05,0.25-0.15,0.31-0.29
		c0.07-0.14,0.1-0.35,0.1-0.64l0,0v-6.75c0-0.41-0.07-0.68-0.2-0.81c-0.14-0.13-0.42-0.2-0.83-0.2l0,0c0,0-0.03-0.03-0.03-0.08
		s0.01-0.08,0.03-0.08l0,0l0.77,0.01c0.45,0.02,0.8,0.03,1.07,0.03l0,0c0.27,0,0.55-0.01,0.85-0.05l0,0
		c0.1-0.01,0.24-0.02,0.44-0.03c0.2-0.01,0.36-0.01,0.51-0.01l0,0c0.88,0,1.57,0.16,2.05,0.48c0.49,0.32,0.73,0.79,0.73,1.4l0,0
		c0,0.47-0.16,0.89-0.46,1.27c-0.31,0.38-0.75,0.68-1.32,0.89l0,0V402.37z M249,398.65c-0.28,0-0.47,0.07-0.59,0.2
		c-0.1,0.13-0.16,0.38-0.16,0.73l0,0v2.77l0.59,0.01c0.51,0,0.9-0.19,1.16-0.57c0.27-0.38,0.41-0.86,0.41-1.46l0,0
		c0-0.55-0.12-0.98-0.36-1.26C249.8,398.79,249.45,398.65,249,398.65L249,398.65L249,398.65z M249.28,407.18
		c1.27,0,1.91-0.66,1.91-1.98l0,0c0-0.75-0.18-1.34-0.54-1.78c-0.36-0.44-0.9-0.66-1.63-0.66l0,0c-0.28,0-0.53,0.01-0.76,0.03l0,0
		v3.51c0,0.32,0.07,0.55,0.19,0.68c0.12,0.13,0.4,0.2,0.83,0.2l0,0V407.18z M258.39,407.66c-0.69,0-1.31-0.16-1.85-0.49
		c-0.55-0.33-0.97-0.76-1.27-1.31c-0.3-0.55-0.46-1.14-0.46-1.79l0,0c0-0.74,0.2-1.38,0.58-1.92c0.38-0.55,0.88-0.96,1.48-1.24
		c0.6-0.28,1.22-0.42,1.85-0.42l0,0c0.69,0,1.3,0.17,1.83,0.5c0.53,0.34,0.94,0.77,1.24,1.31c0.29,0.54,0.44,1.11,0.44,1.7l0,0
		c0,0.65-0.17,1.25-0.51,1.81c-0.34,0.56-0.8,1.01-1.38,1.34c-0.59,0.34-1.22,0.5-1.92,0.5l0,0L258.39,407.66z M258.73,407.32
		c0.55,0,0.98-0.27,1.32-0.8c0.34-0.53,0.5-1.27,0.5-2.22l0,0c0-0.64-0.1-1.22-0.29-1.75c-0.2-0.53-0.47-0.94-0.83-1.25
		c-0.36-0.31-0.77-0.46-1.24-0.46l0,0c-0.57,0-0.99,0.23-1.28,0.7c-0.29,0.47-0.44,1.16-0.44,2.07l0,0c0,0.69,0.1,1.32,0.3,1.89
		c0.2,0.57,0.47,1.01,0.81,1.33S258.31,407.31,258.73,407.32L258.73,407.32L258.73,407.32z M267.39,407.66
		c-0.69,0-1.31-0.16-1.85-0.49c-0.55-0.33-0.97-0.76-1.27-1.31c-0.3-0.55-0.46-1.14-0.46-1.79l0,0c0-0.74,0.2-1.38,0.58-1.92
		c0.38-0.55,0.88-0.96,1.48-1.24c0.6-0.28,1.22-0.42,1.85-0.42l0,0c0.69,0,1.3,0.17,1.83,0.5c0.53,0.34,0.94,0.77,1.24,1.31
		c0.29,0.54,0.44,1.11,0.44,1.7l0,0c0,0.65-0.17,1.25-0.51,1.81c-0.34,0.56-0.8,1.01-1.38,1.34c-0.59,0.34-1.22,0.5-1.92,0.5l0,0
		L267.39,407.66z M267.73,407.32c0.55,0,0.98-0.27,1.32-0.8c0.34-0.53,0.5-1.27,0.5-2.22l0,0c0-0.64-0.1-1.22-0.29-1.75
		c-0.2-0.53-0.47-0.94-0.83-1.25c-0.36-0.31-0.77-0.46-1.24-0.46l0,0c-0.57,0-0.99,0.23-1.28,0.7c-0.29,0.47-0.44,1.16-0.44,2.07
		l0,0c0,0.69,0.1,1.32,0.3,1.89c0.2,0.57,0.47,1.01,0.81,1.33S267.31,407.31,267.73,407.32L267.73,407.32L267.73,407.32z
		 M274.47,401.73c0,0.27,0.08,0.51,0.23,0.71c0.15,0.2,0.34,0.37,0.55,0.51c0.22,0.14,0.52,0.31,0.9,0.5l0,0
		c0.44,0.23,0.78,0.43,1.03,0.59c0.25,0.16,0.46,0.36,0.64,0.62c0.18,0.25,0.27,0.55,0.27,0.9l0,0c0,0.39-0.12,0.74-0.34,1.06
		s-0.54,0.57-0.94,0.75c-0.4,0.18-0.85,0.28-1.34,0.28l0,0c-0.45,0-0.88-0.06-1.31-0.17c-0.42-0.11-0.72-0.23-0.88-0.37l0,0
		c-0.08-0.05-0.12-0.15-0.12-0.31l0,0l-0.07-1.65c0-0.04,0.03-0.07,0.07-0.07s0.08,0,0.1,0.05l0,0c0.37,0.64,0.74,1.16,1.12,1.57
		c0.38,0.41,0.81,0.61,1.3,0.61l0,0c0.29,0,0.53-0.08,0.73-0.26s0.29-0.44,0.29-0.79l0,0c0-0.31-0.08-0.59-0.24-0.82
		c-0.16-0.23-0.36-0.43-0.59-0.59c-0.23-0.16-0.55-0.34-0.94-0.56l0,0c-0.57-0.31-1.01-0.6-1.31-0.88c-0.3-0.28-0.46-0.64-0.46-1.09
		l0,0c0-0.57,0.25-1.01,0.74-1.35c0.49-0.34,1.09-0.5,1.79-0.5l0,0c0.31,0,0.64,0.03,0.98,0.1c0.34,0.07,0.61,0.14,0.82,0.23l0,0
		c0.08,0.03,0.14,0.07,0.18,0.11c0.03,0.05,0.05,0.1,0.05,0.18l0,0v1.38c0,0-0.03,0.05-0.07,0.07c-0.05,0.01-0.08,0.01-0.1-0.02l0,0
		c-0.18-0.39-0.44-0.77-0.77-1.15c-0.33-0.38-0.77-0.57-1.31-0.57l0,0c-0.33,0-0.58,0.08-0.74,0.25c-0.16,0.17-0.25,0.39-0.25,0.66
		l0,0L274.47,401.73z M281.65,400.95c-0.37,0-0.72,0.16-1.06,0.47s-0.6,0.73-0.79,1.27l0,0c0,0-0.04,0.05-0.08,0.05
		s-0.07-0.01-0.07-0.05l0,0c0.04-0.31,0.08-0.72,0.13-1.22c0.05-0.5,0.07-0.88,0.07-1.13l0,0c0-0.05,0.03-0.07,0.08-0.07
		c0.05,0,0.08,0.03,0.08,0.07l0,0c0,0.12,0.07,0.21,0.22,0.24c0.14,0.03,0.33,0.05,0.55,0.05l0,0c0.84,0.02,1.57,0.03,2.2,0.03l0,0
		l1.27-0.01c0.16-0.01,0.39-0.01,0.67-0.01l0,0c0.38,0,0.66-0.02,0.85-0.07c0.19-0.05,0.31-0.14,0.36-0.29l0,0
		c0,0,0.04-0.05,0.1-0.05s0.08,0.01,0.08,0.05l0,0l-0.05,0.73c-0.06,0.86-0.08,1.42-0.08,1.68l0,0c0,0-0.03,0.05-0.08,0.05
		s-0.08-0.01-0.08-0.05l0,0c-0.05-0.3-0.16-0.59-0.34-0.85c-0.18-0.27-0.38-0.48-0.62-0.64c-0.24-0.16-0.48-0.24-0.72-0.24l0,0
		c-0.23,0-0.39,0.06-0.47,0.18c-0.08,0.12-0.12,0.36-0.12,0.71l0,0v4.46c0,0.29,0.03,0.51,0.08,0.65c0.05,0.14,0.16,0.23,0.3,0.29
		c0.14,0.05,0.38,0.07,0.7,0.07l0,0c0,0,0.05,0.03,0.05,0.08s-0.01,0.08-0.05,0.08l0,0c-0.32,0-0.57,0-0.76-0.01l0,0l-1.09-0.01
		l-1.07,0.01c-0.18,0.01-0.45,0.01-0.79,0.01l0,0c0,0-0.03-0.03-0.03-0.08s0.01-0.08,0.03-0.08l0,0c0.33,0,0.57-0.03,0.72-0.07
		c0.15-0.05,0.25-0.14,0.31-0.29c0.05-0.14,0.08-0.36,0.08-0.65l0,0v-4.49c0-0.36-0.03-0.59-0.1-0.7
		C282.04,401,281.89,400.94,281.65,400.95L281.65,400.95L281.65,400.95z M290.27,406.3c0,0.29,0.03,0.51,0.07,0.65
		c0.05,0.14,0.14,0.23,0.26,0.29c0.12,0.05,0.33,0.07,0.61,0.07l0,0c0,0,0.03,0.03,0.03,0.08c0,0.06-0.01,0.08-0.03,0.08l0,0
		c-0.3,0-0.53,0-0.7-0.01l0,0l-0.99-0.01l-0.95,0.01c-0.18,0.01-0.42,0.01-0.73,0.01l0,0c0,0-0.03-0.03-0.03-0.08
		c0-0.06,0.01-0.08,0.03-0.08l0,0c0.28,0,0.49-0.03,0.62-0.07c0.13-0.05,0.22-0.14,0.27-0.29c0.05-0.14,0.07-0.36,0.07-0.65l0,0
		v-4.46c0-0.29-0.03-0.51-0.07-0.64c-0.05-0.14-0.14-0.23-0.27-0.29c-0.13-0.05-0.34-0.08-0.62-0.08l0,0c0,0-0.03-0.03-0.03-0.08
		c0-0.06,0.01-0.08,0.03-0.08l0,0l0.73,0.01c0.39,0.02,0.7,0.03,0.95,0.03l0,0c0.26,0,0.6-0.01,1.01-0.03l0,0l0.68-0.01
		c0,0,0.03,0.03,0.03,0.08c0,0.06-0.01,0.08-0.03,0.08l0,0c-0.27,0-0.47,0.03-0.6,0.08c-0.13,0.06-0.22,0.16-0.27,0.3
		c-0.05,0.14-0.07,0.36-0.07,0.65l0,0L290.27,406.3L290.27,406.3z M300.55,400.66c0,0,0.05,0.03,0.05,0.08s-0.01,0.08-0.05,0.08l0,0
		c-0.39,0-0.68,0.14-0.86,0.41c-0.18,0.27-0.28,0.7-0.28,1.28l0,0v5.12c0,0-0.03,0.03-0.07,0.05c-0.05,0.01-0.08,0-0.1-0.01l0,0
		l-5.12-5.77v3.73c0,0.57,0.09,0.99,0.27,1.27c0.18,0.27,0.46,0.41,0.84,0.41l0,0c0,0,0.05,0.03,0.05,0.08s-0.01,0.08-0.05,0.08l0,0
		c-0.23,0-0.42,0-0.54-0.01l0,0l-0.7-0.01l-0.7,0.01c-0.14,0.01-0.33,0.01-0.59,0.01l0,0c0,0-0.03-0.03-0.03-0.08
		s0.01-0.08,0.03-0.08l0,0c0.39,0,0.68-0.14,0.86-0.41c0.18-0.27,0.28-0.7,0.28-1.27l0,0v-4.02c-0.26-0.27-0.49-0.47-0.7-0.59
		c-0.2-0.12-0.39-0.18-0.58-0.18l0,0c0,0-0.03-0.03-0.03-0.08s0.01-0.08,0.03-0.08l0,0l0.82,0.01c0.08,0,0.18,0,0.32-0.01
		c0.14,0,0.48-0.01,1.03-0.01l0,0c0.08,0,0.14,0.03,0.2,0.07c0.05,0.05,0.14,0.14,0.25,0.28l0,0c0.08,0.12,0.18,0.25,0.32,0.41l0,0
		l3.6,4.02v-2.92c0-0.59-0.08-1.01-0.26-1.28c-0.18-0.27-0.46-0.41-0.85-0.41l0,0c0,0-0.03-0.03-0.03-0.08
		c0-0.06,0.01-0.08,0.03-0.08l0,0l0.55,0.01c0.29,0.02,0.52,0.03,0.68,0.03l0,0c0.16,0,0.4-0.01,0.72-0.03l0,0l0.59-0.01
		L300.55,400.66z M305.66,407.65c-0.78,0-1.46-0.16-2.04-0.49s-1.02-0.75-1.32-1.29c-0.3-0.53-0.46-1.1-0.46-1.69l0,0
		c0-0.76,0.18-1.42,0.52-1.98s0.83-0.99,1.46-1.28c0.63-0.3,1.38-0.44,2.23-0.44l0,0c0.43,0,0.84,0.04,1.24,0.12
		c0.4,0.08,0.72,0.19,0.98,0.34l0,0c0.07,0.03,0.11,0.07,0.12,0.1c0.01,0.04,0.03,0.11,0.04,0.22l0,0l0.07,1.37
		c0,0-0.03,0.05-0.08,0.05c-0.05,0.01-0.08-0.01-0.1-0.04l0,0c-0.75-1.22-1.62-1.84-2.61-1.84l0,0c-0.69,0-1.24,0.28-1.63,0.83
		c-0.4,0.55-0.59,1.34-0.59,2.36l0,0c0,0.99,0.22,1.79,0.67,2.41c0.45,0.61,1.05,0.92,1.82,0.92l0,0c0.39,0,0.68-0.04,0.85-0.12
		c0.18-0.08,0.3-0.24,0.36-0.47c0.07-0.23,0.1-0.59,0.1-1.09l0,0c0-0.25-0.02-0.43-0.06-0.53c-0.04-0.1-0.12-0.17-0.25-0.2
		c-0.12-0.03-0.34-0.05-0.66-0.05l0,0c-0.06,0-0.08-0.04-0.08-0.12l0,0c0,0,0.01-0.06,0.02-0.08c0.01-0.03,0.03-0.04,0.05-0.04l0,0
		c0.51,0.04,1.01,0.06,1.53,0.06l0,0c0.23,0,0.62-0.01,1.16-0.03l0,0c0,0,0.04,0.01,0.05,0.04c0.01,0.03,0.02,0.05,0.02,0.07l0,0
		c0,0.07-0.03,0.1-0.07,0.1l0,0c-0.14-0.01-0.25,0-0.31,0.05c-0.06,0.05-0.1,0.12-0.12,0.24c-0.02,0.12-0.03,0.34-0.03,0.65l0,0
		c0,0.44,0.01,0.74,0.04,0.92s0.04,0.3,0.04,0.36l0,0c0,0.06-0.01,0.1-0.03,0.11c-0.02,0.01-0.07,0.04-0.14,0.07l0,0
		c-0.65,0.27-1.59,0.41-2.83,0.41l0,0L305.66,407.65z M320.47,398.2c0.43,0,0.88,0.04,1.34,0.11c0.47,0.07,0.83,0.17,1.09,0.29l0,0
		c0.08,0.03,0.14,0.07,0.17,0.11c0.03,0.05,0.05,0.12,0.07,0.23l0,0l0.18,2.03c0,0-0.03,0.05-0.07,0.06c-0.05,0.01-0.08,0-0.08-0.05
		l0,0c-0.33-0.77-0.77-1.36-1.33-1.78c-0.55-0.42-1.2-0.62-1.92-0.62l0,0c-0.96,0-1.7,0.36-2.23,1.07
		c-0.53,0.71-0.79,1.66-0.79,2.86l0,0c0,0.9,0.14,1.71,0.43,2.45c0.29,0.74,0.69,1.33,1.21,1.76c0.52,0.43,1.11,0.65,1.78,0.65l0,0
		c0.62,0,1.18-0.21,1.67-0.62c0.49-0.42,0.93-1.04,1.32-1.89l0,0c0.01-0.04,0.04-0.05,0.1-0.05c0.06,0.01,0.08,0.03,0.08,0.06l0,0
		l-0.22,1.98c-0.02,0.12-0.04,0.2-0.07,0.23c-0.03,0.03-0.08,0.07-0.17,0.11l0,0c-0.86,0.32-1.76,0.48-2.67,0.48l0,0
		c-1.18,0-2.18-0.23-2.98-0.71c-0.8-0.47-1.38-1.07-1.76-1.79c-0.38-0.72-0.56-1.48-0.56-2.27l0,0c0-0.92,0.25-1.74,0.75-2.45
		s1.16-1.26,2-1.65c0.83-0.38,1.72-0.59,2.68-0.59l0,0L320.47,398.2z M328.82,407.65c-0.69,0-1.31-0.16-1.85-0.49
		c-0.55-0.33-0.97-0.76-1.27-1.31c-0.3-0.55-0.46-1.14-0.46-1.79l0,0c0-0.74,0.2-1.38,0.58-1.92c0.38-0.55,0.88-0.96,1.48-1.24
		c0.6-0.28,1.22-0.42,1.85-0.42l0,0c0.69,0,1.3,0.17,1.83,0.5c0.53,0.33,0.94,0.77,1.24,1.31c0.29,0.54,0.44,1.11,0.44,1.7l0,0
		c0,0.65-0.17,1.25-0.51,1.81c-0.34,0.56-0.8,1.01-1.38,1.34c-0.59,0.34-1.22,0.5-1.92,0.5l0,0L328.82,407.65z M329.16,407.31
		c0.55,0,0.98-0.27,1.32-0.8c0.34-0.53,0.5-1.27,0.5-2.22l0,0c0-0.64-0.1-1.22-0.29-1.75c-0.2-0.53-0.47-0.94-0.83-1.25
		c-0.36-0.31-0.77-0.46-1.24-0.46l0,0c-0.57,0-0.99,0.23-1.28,0.7c-0.29,0.47-0.44,1.16-0.44,2.07l0,0c0,0.69,0.1,1.32,0.3,1.89
		c0.2,0.57,0.47,1.01,0.81,1.33C328.36,407.14,328.74,407.31,329.16,407.31L329.16,407.31L329.16,407.31z M341.89,400.65
		c0,0,0.05,0.03,0.05,0.08c0,0.06-0.01,0.08-0.05,0.08l0,0c-0.39,0-0.68,0.14-0.86,0.41c-0.18,0.27-0.28,0.7-0.28,1.28l0,0v5.12
		c0,0-0.03,0.03-0.07,0.05c-0.05,0.01-0.08,0-0.1-0.01l0,0l-5.12-5.77v3.73c0,0.57,0.09,0.99,0.27,1.27
		c0.18,0.27,0.46,0.41,0.84,0.41l0,0c0,0,0.05,0.03,0.05,0.08c0,0.06-0.01,0.08-0.05,0.08l0,0c-0.23,0-0.42,0-0.54-0.01l0,0
		l-0.7-0.01l-0.7,0.01c-0.14,0.01-0.33,0.01-0.59,0.01l0,0c0,0-0.03-0.03-0.03-0.08c0-0.06,0.01-0.08,0.03-0.08l0,0
		c0.39,0,0.68-0.14,0.86-0.41c0.18-0.27,0.28-0.7,0.28-1.27l0,0v-4.02c-0.26-0.27-0.49-0.47-0.7-0.59c-0.2-0.12-0.39-0.18-0.58-0.18
		l0,0c0,0-0.03-0.03-0.03-0.08s0.01-0.08,0.03-0.08l0,0l0.82,0.01c0.08,0,0.18,0,0.32-0.01c0.14,0,0.48-0.01,1.03-0.01l0,0
		c0.08,0,0.14,0.03,0.2,0.07c0.05,0.05,0.14,0.14,0.25,0.28l0,0c0.08,0.12,0.18,0.25,0.32,0.41l0,0l3.6,4.02v-2.92
		c0-0.59-0.08-1.01-0.26-1.28c-0.18-0.27-0.46-0.41-0.85-0.41l0,0c0,0-0.03-0.03-0.03-0.08s0.01-0.08,0.03-0.08l0,0l0.55,0.01
		c0.29,0.02,0.52,0.03,0.68,0.03l0,0c0.16,0,0.4-0.01,0.72-0.03l0,0l0.59-0.01L341.89,400.65z M347.26,400.47
		c0.36,0,0.75,0.04,1.18,0.12c0.42,0.08,0.77,0.18,1.04,0.31l0,0c0.07,0.03,0.11,0.06,0.13,0.1c0.02,0.04,0.03,0.08,0.03,0.16l0,0
		l0.07,1.5c0,0-0.03,0.05-0.07,0.06c-0.05,0.01-0.08,0-0.1-0.05l0,0c-0.37-0.63-0.75-1.1-1.13-1.4s-0.83-0.46-1.32-0.46l0,0
		c-0.69,0-1.22,0.27-1.59,0.83c-0.37,0.55-0.55,1.28-0.55,2.2l0,0c0,0.6,0.08,1.17,0.25,1.7c0.17,0.53,0.44,0.98,0.81,1.31
		c0.37,0.34,0.84,0.51,1.4,0.51l0,0c0.49,0,0.92-0.15,1.26-0.46c0.34-0.3,0.68-0.79,1.01-1.46l0,0c0.01-0.04,0.04-0.05,0.08-0.05
		c0.05,0.01,0.07,0.03,0.07,0.06l0,0L349.7,407c-0.01,0.08-0.03,0.13-0.05,0.16c-0.02,0.03-0.07,0.07-0.16,0.1l0,0
		c-0.75,0.26-1.53,0.4-2.33,0.4l0,0c-0.94,0-1.7-0.18-2.29-0.55c-0.59-0.37-1.02-0.83-1.29-1.38c-0.27-0.55-0.4-1.11-0.4-1.68l0,0
		c0-0.66,0.18-1.26,0.53-1.81c0.36-0.55,0.84-0.98,1.46-1.28c0.62-0.31,1.31-0.47,2.06-0.47l0,0L347.26,400.47z M357.29,405.53
		c0,0,0.05-0.05,0.1-0.05s0.07,0.01,0.07,0.05l0,0c-0.07,0.7-0.1,1.27-0.1,1.72l0,0c0,0.08-0.01,0.14-0.05,0.17
		c-0.03,0.03-0.08,0.05-0.18,0.05h-5.48c0,0-0.03-0.03-0.03-0.08c0-0.06,0.01-0.08,0.03-0.08l0,0c0.28,0,0.49-0.03,0.61-0.07
		c0.12-0.05,0.21-0.14,0.26-0.29s0.07-0.36,0.07-0.65l0,0v-4.46c0-0.29-0.03-0.51-0.07-0.64c-0.05-0.14-0.14-0.23-0.27-0.29
		c-0.13-0.05-0.33-0.08-0.6-0.08l0,0c0,0-0.03-0.03-0.03-0.08c0-0.06,0.01-0.08,0.03-0.08h5.22c0.1,0,0.14,0.04,0.14,0.12l0,0
		l0.01,0.9c0.01,0.18,0.01,0.42,0.01,0.7l0,0c0,0-0.03,0.05-0.08,0.05c-0.05,0-0.08-0.01-0.1-0.05l0,0
		c-0.18-0.43-0.47-0.79-0.85-1.09c-0.38-0.3-0.76-0.44-1.15-0.44h-0.1c-0.21,0-0.37,0.03-0.47,0.08c-0.1,0.05-0.17,0.15-0.2,0.29
		c-0.03,0.14-0.05,0.35-0.05,0.64l0,0v1.97c0.74-0.01,1.28-0.04,1.63-0.08c0.35-0.05,0.55-0.07,0.6-0.07l0,0
		c0.07,0,0.1,0.1,0.1,0.32l0,0c0,0.1-0.01,0.18-0.03,0.26c-0.02,0.08-0.05,0.12-0.07,0.12l0,0c-0.06,0-0.26-0.03-0.61-0.07
		c-0.35-0.05-0.89-0.08-1.62-0.1l0,0v2.05c0,0.29,0.02,0.51,0.05,0.64c0.03,0.14,0.1,0.23,0.2,0.29c0.1,0.05,0.26,0.08,0.47,0.08
		h0.16c0.46,0,0.91-0.16,1.36-0.49s0.78-0.73,0.99-1.22l0,0L357.29,405.53z M361.55,406.23c0,0.3,0.03,0.53,0.1,0.67
		c0.07,0.14,0.18,0.25,0.36,0.31c0.18,0.06,0.46,0.08,0.84,0.08l0,0c0,0,0.05,0.03,0.05,0.08s-0.01,0.08-0.05,0.08l0,0
		c-0.37,0-0.66,0-0.86-0.01l0,0l-1.15-0.01l-0.95,0.01c-0.18,0.01-0.42,0.01-0.73,0.01l0,0c0,0-0.03-0.03-0.03-0.08
		s0.01-0.08,0.03-0.08l0,0c0.27,0,0.47-0.03,0.6-0.08c0.13-0.05,0.22-0.15,0.27-0.29c0.05-0.14,0.07-0.35,0.07-0.64l0,0v-4.46
		c0-0.28-0.03-0.49-0.08-0.64c-0.05-0.14-0.14-0.24-0.28-0.29c-0.13-0.05-0.33-0.08-0.59-0.08l0,0c0,0-0.03-0.03-0.03-0.08
		s0.01-0.08,0.03-0.08l0,0l0.72,0.01c0.41,0.02,0.72,0.03,0.95,0.03l0,0c0.25,0,0.51-0.01,0.79-0.05l0,0
		c0.1-0.01,0.26-0.02,0.46-0.03c0.2-0.01,0.37-0.01,0.52-0.01l0,0c0.84,0,1.48,0.14,1.91,0.41c0.44,0.27,0.66,0.68,0.66,1.22l0,0
		c0,0.49-0.12,0.9-0.36,1.24c-0.24,0.34-0.55,0.6-0.94,0.77c-0.38,0.17-0.79,0.25-1.22,0.25l0,0c-0.18,0-0.3-0.01-0.34-0.03l0,0
		c0,0-0.05-0.05-0.05-0.1l0,0c0-0.06,0.03-0.08,0.1-0.08l0,0l0.2,0.01c0.29,0,0.52-0.14,0.7-0.43c0.18-0.29,0.25-0.72,0.25-1.29l0,0
		c0-0.6-0.1-1.04-0.32-1.31s-0.53-0.4-0.95-0.4l0,0c-0.24,0-0.42,0.07-0.53,0.2c-0.11,0.13-0.17,0.4-0.17,0.79l0,0L361.55,406.23
		L361.55,406.23z M368.7,400.94c-0.37,0-0.72,0.16-1.06,0.47c-0.34,0.31-0.6,0.73-0.79,1.27l0,0c0,0-0.04,0.05-0.08,0.05
		s-0.07-0.01-0.07-0.05l0,0c0.04-0.31,0.08-0.72,0.13-1.22c0.05-0.5,0.07-0.88,0.07-1.13l0,0c0-0.05,0.03-0.07,0.08-0.07
		c0.05,0,0.08,0.03,0.08,0.07l0,0c0,0.12,0.07,0.21,0.22,0.24c0.14,0.03,0.33,0.05,0.55,0.05l0,0c0.84,0.02,1.57,0.03,2.2,0.03l0,0
		l1.27-0.01c0.16-0.01,0.39-0.01,0.67-0.01l0,0c0.38,0,0.66-0.02,0.85-0.07c0.19-0.05,0.31-0.14,0.36-0.29l0,0
		c0,0,0.04-0.05,0.1-0.05s0.08,0.01,0.08,0.05l0,0L373.3,401c-0.06,0.86-0.08,1.42-0.08,1.68l0,0c0,0-0.03,0.05-0.08,0.05
		c-0.06,0-0.08-0.01-0.08-0.05l0,0c-0.05-0.3-0.16-0.59-0.34-0.85c-0.18-0.27-0.38-0.48-0.62-0.64c-0.24-0.16-0.48-0.24-0.72-0.24
		l0,0c-0.23,0-0.39,0.06-0.47,0.18c-0.08,0.12-0.12,0.36-0.12,0.71l0,0v4.46c0,0.29,0.03,0.51,0.08,0.65
		c0.05,0.14,0.16,0.23,0.3,0.29c0.14,0.05,0.38,0.07,0.7,0.07l0,0c0,0,0.05,0.03,0.05,0.08s-0.01,0.08-0.05,0.08l0,0
		c-0.32,0-0.57,0-0.76-0.01l0,0l-1.09-0.01l-1.07,0.01c-0.18,0.01-0.45,0.01-0.79,0.01l0,0c0,0-0.03-0.03-0.03-0.08
		s0.01-0.08,0.03-0.08l0,0c0.33,0,0.57-0.03,0.72-0.07s0.25-0.14,0.31-0.29c0.05-0.14,0.08-0.36,0.08-0.65l0,0v-4.49
		c0-0.36-0.03-0.59-0.1-0.7C369.09,400.99,368.94,400.93,368.7,400.94L368.7,400.94L368.7,400.94z M376.45,401.73
		c0,0.27,0.08,0.51,0.23,0.71c0.15,0.2,0.34,0.37,0.55,0.51c0.22,0.14,0.52,0.31,0.9,0.5l0,0c0.44,0.23,0.78,0.43,1.03,0.59
		c0.25,0.16,0.46,0.36,0.64,0.62c0.18,0.25,0.27,0.55,0.27,0.9l0,0c0,0.39-0.12,0.74-0.34,1.06c-0.23,0.32-0.54,0.57-0.94,0.75
		c-0.4,0.18-0.85,0.28-1.34,0.28l0,0c-0.45,0-0.88-0.06-1.31-0.17c-0.42-0.11-0.72-0.23-0.88-0.37l0,0
		c-0.08-0.05-0.12-0.15-0.12-0.31l0,0l-0.07-1.65c0-0.04,0.03-0.07,0.07-0.07s0.08,0,0.1,0.05l0,0c0.37,0.64,0.74,1.16,1.12,1.57
		s0.81,0.61,1.3,0.61l0,0c0.29,0,0.53-0.08,0.73-0.26c0.2-0.18,0.29-0.44,0.29-0.79l0,0c0-0.31-0.08-0.59-0.24-0.82
		s-0.36-0.43-0.59-0.59c-0.23-0.16-0.55-0.34-0.94-0.56l0,0c-0.57-0.31-1.01-0.6-1.31-0.88c-0.3-0.28-0.46-0.64-0.46-1.09l0,0
		c0-0.57,0.25-1.01,0.74-1.35s1.09-0.5,1.79-0.5l0,0c0.31,0,0.64,0.03,0.98,0.1c0.34,0.07,0.61,0.14,0.82,0.23l0,0
		c0.08,0.03,0.14,0.07,0.18,0.11c0.03,0.05,0.05,0.1,0.05,0.18l0,0v1.38c0,0-0.03,0.05-0.07,0.07c-0.05,0.01-0.08,0.01-0.1-0.02l0,0
		c-0.18-0.39-0.44-0.77-0.77-1.15c-0.33-0.38-0.77-0.57-1.31-0.57l0,0c-0.33,0-0.58,0.08-0.74,0.25c-0.16,0.17-0.25,0.39-0.25,0.66
		l0,0L376.45,401.73z M387.77,400.94c-0.37,0-0.72,0.16-1.06,0.47c-0.34,0.31-0.6,0.73-0.79,1.27l0,0c0,0-0.04,0.05-0.08,0.05
		c-0.05,0-0.07-0.01-0.07-0.05l0,0c0.04-0.31,0.08-0.72,0.13-1.22c0.05-0.5,0.07-0.88,0.07-1.13l0,0c0-0.05,0.03-0.07,0.08-0.07
		c0.05,0,0.08,0.03,0.08,0.07l0,0c0,0.12,0.07,0.21,0.22,0.24c0.14,0.03,0.33,0.05,0.55,0.05l0,0c0.84,0.02,1.57,0.03,2.2,0.03l0,0
		l1.27-0.01c0.16-0.01,0.39-0.01,0.67-0.01l0,0c0.38,0,0.66-0.02,0.85-0.07c0.19-0.05,0.31-0.14,0.36-0.29l0,0
		c0,0,0.04-0.05,0.1-0.05s0.08,0.01,0.08,0.05l0,0l-0.05,0.73c-0.06,0.86-0.08,1.42-0.08,1.68l0,0c0,0-0.03,0.05-0.08,0.05
		s-0.08-0.01-0.08-0.05l0,0c-0.05-0.3-0.16-0.59-0.34-0.85c-0.18-0.27-0.38-0.48-0.62-0.64c-0.24-0.16-0.48-0.24-0.72-0.24l0,0
		c-0.23,0-0.39,0.06-0.47,0.18c-0.08,0.12-0.12,0.36-0.12,0.71l0,0v4.46c0,0.29,0.03,0.51,0.08,0.65c0.05,0.14,0.16,0.23,0.3,0.29
		c0.14,0.05,0.38,0.07,0.7,0.07l0,0c0,0,0.05,0.03,0.05,0.08s-0.01,0.08-0.05,0.08l0,0c-0.32,0-0.57,0-0.76-0.01l0,0l-1.09-0.01
		l-1.07,0.01c-0.18,0.01-0.45,0.01-0.79,0.01l0,0c0,0-0.03-0.03-0.03-0.08s0.01-0.08,0.03-0.08l0,0c0.33,0,0.57-0.03,0.72-0.07
		s0.25-0.14,0.31-0.29c0.05-0.14,0.08-0.36,0.08-0.65l0,0v-4.49c0-0.36-0.03-0.59-0.1-0.7
		C388.17,400.99,388.01,400.93,387.77,400.94L387.77,400.94L387.77,400.94z M397.46,407.65c-0.69,0-1.31-0.16-1.85-0.49
		c-0.55-0.33-0.97-0.76-1.27-1.31c-0.3-0.55-0.46-1.14-0.46-1.79l0,0c0-0.74,0.2-1.38,0.58-1.92c0.38-0.55,0.88-0.96,1.48-1.24
		c0.6-0.28,1.22-0.42,1.85-0.42l0,0c0.69,0,1.3,0.17,1.83,0.5c0.53,0.34,0.94,0.77,1.24,1.31c0.29,0.54,0.44,1.11,0.44,1.7l0,0
		c0,0.65-0.17,1.25-0.51,1.81c-0.34,0.56-0.8,1.01-1.38,1.34c-0.59,0.34-1.22,0.5-1.92,0.5l0,0L397.46,407.65z M397.79,407.31
		c0.55,0,0.98-0.27,1.32-0.8s0.5-1.27,0.5-2.22l0,0c0-0.64-0.1-1.22-0.29-1.75c-0.2-0.53-0.47-0.94-0.83-1.25
		c-0.36-0.31-0.77-0.46-1.24-0.46l0,0c-0.57,0-0.99,0.23-1.28,0.7c-0.29,0.47-0.44,1.16-0.44,2.07l0,0c0,0.69,0.1,1.32,0.3,1.89
		c0.2,0.57,0.47,1.01,0.81,1.33C396.99,407.14,397.37,407.31,397.79,407.31L397.79,407.31L397.79,407.31z M416.92,407.3
		c0,0,0.03,0.03,0.03,0.08s-0.01,0.08-0.03,0.08h-2.59c-0.21,0-0.61-0.4-1.2-1.2c-0.59-0.8-1.29-1.92-2.11-3.36l0,0
		c-0.08,0.01-0.19,0.01-0.34,0.01l0,0c-0.38,0-0.64,0-0.8-0.01l0,0v3.38c0,0.3,0.03,0.52,0.07,0.66c0.05,0.14,0.14,0.23,0.29,0.28
		c0.14,0.05,0.36,0.07,0.68,0.07l0,0c0,0,0.03,0.03,0.03,0.08c0,0.06-0.01,0.08-0.03,0.08l0,0c-0.32,0-0.57,0-0.76-0.01l0,0
		l-1.11-0.01l-1.07,0.01c-0.2,0.01-0.46,0.01-0.79,0.01l0,0c0,0-0.05-0.03-0.05-0.08c0-0.06,0.01-0.08,0.05-0.08l0,0
		c0.31,0,0.54-0.03,0.68-0.07c0.14-0.05,0.24-0.14,0.29-0.29c0.05-0.14,0.08-0.36,0.08-0.65l0,0v-6.75c0-0.29-0.03-0.51-0.07-0.64
		c-0.05-0.14-0.14-0.23-0.29-0.29c-0.15-0.05-0.37-0.08-0.67-0.08l0,0c0,0-0.03-0.03-0.03-0.08s0.01-0.08,0.03-0.08l0,0l0.77,0.01
		c0.45,0.02,0.8,0.03,1.07,0.03l0,0c0.28,0,0.59-0.01,0.94-0.05l0,0c0.1-0.01,0.25-0.02,0.42-0.03c0.17-0.01,0.37-0.01,0.6-0.01l0,0
		c0.9,0,1.59,0.16,2.08,0.49c0.49,0.33,0.73,0.78,0.73,1.37l0,0c0,0.45-0.14,0.88-0.41,1.28c-0.27,0.41-0.62,0.74-1.07,0.99l0,0
		c0.78,1.22,1.43,2.18,1.96,2.87c0.53,0.69,1,1.2,1.42,1.51C416.14,407.14,416.53,407.29,416.92,407.3L416.92,407.3L416.92,407.3z
		 M409.87,402.49c0.23,0.04,0.51,0.06,0.85,0.06l0,0c0.35,0,0.62-0.05,0.83-0.16c0.21-0.11,0.35-0.29,0.44-0.55
		c0.09-0.26,0.14-0.63,0.14-1.11l0,0c0-0.8-0.12-1.35-0.35-1.65c-0.23-0.3-0.57-0.46-1.01-0.46l0,0c-0.33,0-0.57,0.07-0.7,0.22
		c-0.14,0.14-0.2,0.39-0.2,0.73l0,0L409.87,402.49L409.87,402.49z M423.57,405.54c0,0,0.05-0.05,0.1-0.05s0.07,0.01,0.07,0.05l0,0
		c-0.07,0.7-0.1,1.27-0.1,1.72l0,0c0,0.08-0.01,0.14-0.05,0.17s-0.08,0.05-0.18,0.05h-5.48c0,0-0.03-0.03-0.03-0.08
		s0.01-0.08,0.03-0.08l0,0c0.28,0,0.49-0.03,0.61-0.07c0.12-0.05,0.21-0.14,0.26-0.29c0.05-0.14,0.07-0.36,0.07-0.65l0,0v-4.46
		c0-0.29-0.03-0.51-0.07-0.64c-0.05-0.14-0.14-0.23-0.27-0.29c-0.13-0.05-0.33-0.08-0.6-0.08l0,0c0,0-0.03-0.03-0.03-0.08
		c0-0.06,0.01-0.08,0.03-0.08h5.22c0.1,0,0.14,0.04,0.14,0.12l0,0l0.01,0.9c0.01,0.18,0.01,0.42,0.01,0.7l0,0
		c0,0-0.03,0.05-0.08,0.05c-0.05,0-0.08-0.01-0.1-0.05l0,0c-0.18-0.43-0.47-0.79-0.85-1.09c-0.38-0.3-0.76-0.44-1.15-0.44h-0.1
		c-0.21,0-0.37,0.03-0.47,0.08c-0.1,0.05-0.17,0.15-0.2,0.29c-0.03,0.14-0.05,0.35-0.05,0.64l0,0v1.97
		c0.74-0.01,1.28-0.04,1.63-0.08c0.35-0.05,0.55-0.07,0.6-0.07l0,0c0.07,0,0.1,0.1,0.1,0.32l0,0c0,0.1-0.01,0.18-0.03,0.26
		s-0.05,0.12-0.07,0.12l0,0c-0.06,0-0.26-0.03-0.61-0.07s-0.89-0.08-1.62-0.1l0,0v2.05c0,0.29,0.02,0.51,0.05,0.64
		c0.03,0.14,0.1,0.23,0.2,0.29c0.1,0.05,0.26,0.08,0.47,0.08h0.16c0.46,0,0.91-0.16,1.36-0.49s0.78-0.73,0.99-1.22l0,0
		L423.57,405.54z M433.12,407.3c0.05,0,0.07,0.03,0.07,0.08s-0.03,0.08-0.07,0.08l0,0c-0.2,0-0.51-0.01-0.92-0.03l0,0
		c-0.43-0.02-0.73-0.03-0.9-0.03l0,0c-0.16,0-0.42,0.01-0.77,0.03l0,0c-0.33,0.02-0.57,0.03-0.7,0.03l0,0
		c-0.04,0-0.06-0.03-0.06-0.08s0.02-0.08,0.06-0.08l0,0c0.22,0,0.38-0.03,0.47-0.08c0.09-0.05,0.14-0.14,0.14-0.24l0,0
		c0-0.14-0.08-0.38-0.25-0.73l0,0l-0.88-1.88h-1.69l-0.55,1.31c-0.18,0.41-0.26,0.73-0.26,0.96l0,0c0,0.23,0.08,0.4,0.25,0.5
		c0.16,0.1,0.42,0.16,0.77,0.16l0,0c0.05,0,0.07,0.03,0.07,0.08c0,0.06-0.03,0.08-0.07,0.08l0,0c-0.14,0-0.33-0.01-0.59-0.03l0,0
		c-0.27-0.02-0.53-0.03-0.76-0.03l0,0c-0.24,0-0.53,0.01-0.86,0.03l0,0c-0.29,0.02-0.53,0.03-0.72,0.03l0,0
		c-0.05,0-0.07-0.03-0.07-0.08c0-0.06,0.03-0.08,0.07-0.08l0,0c0.3,0,0.55-0.05,0.73-0.13c0.18-0.08,0.36-0.25,0.52-0.49
		c0.16-0.24,0.34-0.62,0.56-1.12l0,0l2.18-5.12c0.02-0.04,0.05-0.06,0.08-0.06c0.04,0,0.07,0.02,0.08,0.06l0,0l2.33,5.05
		c0.24,0.53,0.44,0.92,0.6,1.16c0.16,0.25,0.33,0.42,0.49,0.52c0.16,0.09,0.37,0.14,0.61,0.14l0,0L433.12,407.3z M428.42,402.46
		l-0.64,1.53h1.36L428.42,402.46z M436.59,401.85v4.39c0,0.26,0.03,0.46,0.07,0.59c0.05,0.12,0.14,0.21,0.29,0.27
		c0.14,0.05,0.35,0.08,0.64,0.08h0.16c0.55,0,1.06-0.18,1.51-0.54c0.46-0.36,0.79-0.85,1.01-1.46l0,0c0,0,0.04-0.03,0.1-0.02
		c0.06,0.01,0.08,0.02,0.08,0.04l0,0c-0.07,0.51-0.1,1.2-0.1,2.07l0,0c0,0.08-0.02,0.14-0.05,0.17c-0.03,0.03-0.1,0.05-0.18,0.05
		h-5.83c0,0-0.03-0.03-0.03-0.08c0-0.06,0.01-0.08,0.03-0.08l0,0c0.25,0,0.44-0.03,0.55-0.07c0.12-0.05,0.2-0.14,0.24-0.29
		c0.05-0.14,0.07-0.36,0.07-0.65l0,0v-4.46c0-0.29-0.02-0.51-0.07-0.64c-0.05-0.14-0.12-0.23-0.24-0.29
		c-0.12-0.05-0.3-0.08-0.55-0.08l0,0c0,0-0.03-0.03-0.03-0.08c0-0.06,0.01-0.08,0.03-0.08l0,0l0.72,0.01
		c0.41,0.02,0.72,0.03,0.95,0.03l0,0c0.25,0,0.59-0.01,0.99-0.03l0,0l0.67-0.01c0,0,0.05,0.03,0.05,0.08c0,0.06-0.01,0.08-0.05,0.08
		l0,0c-0.29,0-0.51,0.03-0.65,0.08c-0.14,0.05-0.23,0.15-0.29,0.29C436.62,401.34,436.6,401.56,436.59,401.85L436.59,401.85
		L436.59,401.85z M444.34,406.29c0,0.29,0.03,0.51,0.07,0.65c0.05,0.14,0.14,0.23,0.26,0.29c0.12,0.05,0.33,0.07,0.61,0.07l0,0
		c0,0,0.03,0.03,0.03,0.08s-0.01,0.08-0.03,0.08l0,0c-0.3,0-0.53,0-0.7-0.01l0,0l-0.99-0.01l-0.95,0.01
		c-0.18,0.01-0.42,0.01-0.73,0.01l0,0c0,0-0.03-0.03-0.03-0.08s0.01-0.08,0.03-0.08l0,0c0.28,0,0.49-0.03,0.62-0.07
		s0.22-0.14,0.27-0.29c0.05-0.14,0.07-0.36,0.07-0.65l0,0v-4.46c0-0.29-0.03-0.51-0.07-0.64c-0.05-0.14-0.14-0.23-0.27-0.29
		c-0.13-0.05-0.34-0.08-0.62-0.08l0,0c0,0-0.03-0.03-0.03-0.08s0.01-0.08,0.03-0.08l0,0l0.73,0.01c0.39,0.02,0.7,0.03,0.95,0.03l0,0
		c0.26,0,0.6-0.01,1.01-0.03l0,0l0.68-0.01c0,0,0.03,0.03,0.03,0.08s-0.01,0.08-0.03,0.08l0,0c-0.27,0-0.47,0.03-0.6,0.08
		c-0.13,0.06-0.22,0.16-0.27,0.3c-0.05,0.14-0.07,0.36-0.07,0.65l0,0L444.34,406.29L444.34,406.29z M448.91,400.94
		c-0.37,0-0.72,0.16-1.06,0.47c-0.34,0.31-0.6,0.73-0.79,1.27l0,0c0,0-0.04,0.05-0.08,0.05c-0.05,0-0.07-0.01-0.07-0.05l0,0
		c0.04-0.31,0.08-0.72,0.13-1.22c0.05-0.5,0.07-0.88,0.07-1.13l0,0c0-0.05,0.03-0.07,0.08-0.07c0.05,0,0.08,0.03,0.08,0.07l0,0
		c0,0.12,0.07,0.21,0.22,0.24c0.14,0.03,0.33,0.05,0.55,0.05l0,0c0.84,0.02,1.57,0.03,2.2,0.03l0,0l1.27-0.01
		c0.16-0.01,0.39-0.01,0.67-0.01l0,0c0.38,0,0.66-0.02,0.85-0.07s0.31-0.14,0.36-0.29l0,0c0,0,0.04-0.05,0.1-0.05
		s0.08,0.01,0.08,0.05l0,0l-0.05,0.73c-0.06,0.86-0.08,1.42-0.08,1.68l0,0c0,0-0.03,0.05-0.08,0.05c-0.06,0-0.08-0.01-0.08-0.05l0,0
		c-0.05-0.3-0.16-0.59-0.34-0.85s-0.38-0.48-0.62-0.64c-0.24-0.16-0.48-0.24-0.72-0.24l0,0c-0.23,0-0.39,0.06-0.47,0.18
		c-0.08,0.12-0.12,0.36-0.12,0.71l0,0v4.46c0,0.29,0.03,0.51,0.08,0.65s0.16,0.23,0.3,0.29c0.14,0.05,0.38,0.07,0.7,0.07l0,0
		c0,0,0.05,0.03,0.05,0.08c0,0.06-0.01,0.08-0.05,0.08l0,0c-0.32,0-0.57,0-0.76-0.01l0,0l-1.09-0.01l-1.07,0.01
		c-0.18,0.01-0.45,0.01-0.79,0.01l0,0c0,0-0.03-0.03-0.03-0.08c0-0.06,0.01-0.08,0.03-0.08l0,0c0.33,0,0.57-0.03,0.72-0.07
		c0.15-0.05,0.25-0.14,0.31-0.29c0.05-0.14,0.08-0.36,0.08-0.65l0,0v-4.49c0-0.36-0.03-0.59-0.1-0.7
		C449.31,400.99,449.15,400.93,448.91,400.94L448.91,400.94L448.91,400.94z M461.83,400.65c0,0,0.05,0.03,0.05,0.08
		s-0.01,0.08-0.05,0.08l0,0c-0.59,0-1.13,0.44-1.62,1.31l0,0l-1.11,2v2.16c0,0.3,0.03,0.52,0.07,0.66c0.05,0.14,0.14,0.23,0.29,0.28
		c0.14,0.05,0.38,0.07,0.72,0.07l0,0c0,0,0.03,0.03,0.03,0.08c0,0.06-0.01,0.08-0.03,0.08l0,0c-0.32,0-0.57,0-0.76-0.01l0,0
		l-1.09-0.01l-1.03,0.01c-0.2,0.01-0.46,0.01-0.8,0.01l0,0c0,0-0.05-0.03-0.05-0.08c0-0.06,0.01-0.08,0.05-0.08l0,0
		c0.32,0,0.56-0.03,0.71-0.07s0.25-0.14,0.31-0.29c0.05-0.14,0.08-0.36,0.08-0.65l0,0v-1.94l-1.61-2.49
		c-0.23-0.37-0.46-0.64-0.66-0.79c-0.21-0.16-0.42-0.24-0.65-0.24l0,0c0,0-0.05-0.03-0.05-0.08s0.01-0.08,0.05-0.08l0,0l0.54,0.01
		l0.59,0.03c0.29,0,0.75-0.01,1.37-0.03l0,0l0.92-0.01c0,0,0.03,0.03,0.03,0.08s-0.01,0.08-0.03,0.08l0,0
		c-0.47,0-0.72,0.12-0.72,0.36l0,0c0,0.12,0.07,0.27,0.19,0.46l0,0l1.36,2.11l0.89-1.63c0.14-0.26,0.22-0.49,0.22-0.7l0,0
		c0-0.18-0.06-0.33-0.18-0.44c-0.12-0.1-0.31-0.16-0.56-0.16l0,0c0,0-0.05-0.03-0.05-0.08s0.01-0.08,0.05-0.08l0,0l0.7,0.01
		c0.39,0.02,0.74,0.03,1.07,0.03l0,0c0.12,0,0.26-0.01,0.44-0.03l0,0l0.35-0.01L461.83,400.65z"/>
	<path class="st0" d="M211.55,384.99c1.38,0.16,2.49,0.63,3.31,1.38c0.82,0.76,1.23,1.7,1.23,2.82l0,0c0,0.86-0.25,1.64-0.74,2.33
		c-0.49,0.7-1.18,1.24-2.05,1.65c-0.88,0.4-1.85,0.6-2.93,0.6l0,0c-0.46,0-0.99-0.03-1.59-0.07l0,0c-0.23-0.02-0.51-0.03-0.85-0.05
		c-0.34-0.02-0.72-0.03-1.12-0.03l0,0l-1.81,0.03c-0.33,0.02-0.77,0.03-1.34,0.03l0,0c-0.05,0-0.07-0.05-0.07-0.15
		c0-0.1,0.03-0.15,0.07-0.15l0,0c0.48,0,0.85-0.05,1.09-0.14c0.25-0.09,0.42-0.25,0.53-0.49c0.11-0.24,0.16-0.6,0.16-1.08l0,0
		v-11.47c0-0.7-0.12-1.15-0.34-1.37c-0.23-0.22-0.7-0.33-1.41-0.33l0,0c-0.03,0-0.05-0.05-0.05-0.15s0.02-0.15,0.05-0.15l0,0
		l1.31,0.03c0.76,0.03,1.37,0.05,1.81,0.05l0,0c0.46,0,0.94-0.03,1.44-0.07l0,0c0.16-0.02,0.42-0.03,0.74-0.05
		c0.33-0.02,0.62-0.03,0.86-0.03l0,0c1.5,0,2.67,0.27,3.49,0.82c0.83,0.55,1.24,1.34,1.24,2.38l0,0c0,0.79-0.26,1.51-0.78,2.16
		c-0.52,0.64-1.27,1.15-2.24,1.51l0,0L211.55,384.99z M209.47,378.67c-0.48,0-0.81,0.11-0.99,0.33c-0.18,0.22-0.27,0.64-0.27,1.25
		l0,0v4.71l0.99,0.03c0.86,0,1.52-0.33,1.98-0.97c0.46-0.64,0.7-1.47,0.7-2.48l0,0c0-0.94-0.21-1.66-0.62-2.15
		C210.84,378.9,210.25,378.66,209.47,378.67L209.47,378.67L209.47,378.67z M209.93,393.16c2.17,0,3.24-1.12,3.24-3.37l0,0
		c0-1.27-0.31-2.28-0.92-3.02c-0.61-0.74-1.53-1.11-2.78-1.11l0,0c-0.48,0-0.91,0.02-1.29,0.05l0,0v5.97c0,0.55,0.11,0.93,0.33,1.15
		C208.74,393.05,209.21,393.16,209.93,393.16L209.93,393.16z M229.65,389.74c0-0.03,0.03-0.05,0.1-0.05l0,0
		c0.05,0,0.1,0.01,0.14,0.04s0.07,0.05,0.07,0.07l0,0c-0.16,1.29-0.25,2.46-0.25,3.52l0,0c0,0.13-0.03,0.23-0.07,0.29
		c-0.05,0.06-0.15,0.08-0.3,0.08h-10.95c-0.05,0-0.07-0.05-0.07-0.15c0-0.1,0.03-0.15,0.07-0.15l0,0c0.53,0,0.91-0.04,1.15-0.12
		c0.24-0.08,0.4-0.24,0.48-0.48c0.08-0.24,0.12-0.6,0.12-1.11l0,0V380.2c0-0.49-0.04-0.86-0.12-1.09c-0.08-0.23-0.25-0.39-0.49-0.48
		s-0.63-0.14-1.14-0.14l0,0c-0.05,0-0.07-0.05-0.07-0.15c0-0.1,0.03-0.15,0.07-0.15h10.51c0.16,0,0.25,0.07,0.25,0.22l0,0l0.05,3.3
		c0,0.03-0.05,0.06-0.14,0.07c-0.09,0.01-0.14,0-0.16-0.05l0,0c-0.27-0.96-0.71-1.67-1.34-2.13c-0.63-0.46-1.46-0.7-2.48-0.7h-0.74
		c-0.49,0-0.86,0.11-1.09,0.33s-0.34,0.55-0.34,0.99l0,0v5.05h2.05c0.96,0,1.69-0.16,2.2-0.49c0.51-0.33,0.77-0.79,0.77-1.38l0,0
		c0-0.05,0.05-0.07,0.14-0.07c0.09,0,0.14,0.03,0.14,0.07l0,0l-0.03,2.23l0.03,1.19c0.03,0.56,0.05,1.01,0.05,1.34l0,0
		c0,0.03-0.05,0.05-0.15,0.05s-0.15-0.02-0.15-0.05l0,0c0-0.68-0.26-1.21-0.78-1.6c-0.52-0.39-1.27-0.59-2.24-0.59h-2.03v5.6
		c0,0.48,0.09,0.83,0.27,1.07s0.47,0.34,0.86,0.34h0.82c1.29,0,2.32-0.27,3.1-0.79c0.77-0.53,1.35-1.35,1.71-2.45l0,0L229.65,389.74
		z M248.58,393.38c0.03,0,0.05,0.05,0.05,0.15c0,0.1-0.02,0.15-0.05,0.15h-4.41c-0.36,0-1.04-0.68-2.03-2.04
		c-0.99-1.37-2.19-3.26-3.6-5.71l0,0c-0.13,0.02-0.33,0.03-0.57,0.03l0,0c-0.64,0-1.1-0.01-1.37-0.03l0,0v5.75
		c0,0.51,0.04,0.88,0.12,1.11c0.08,0.23,0.24,0.39,0.48,0.47c0.24,0.08,0.62,0.12,1.15,0.12l0,0c0.03,0,0.05,0.05,0.05,0.15
		c0,0.1-0.02,0.15-0.05,0.15l0,0c-0.55,0-0.98-0.01-1.29-0.03l0,0l-1.89-0.03l-1.81,0.03c-0.33,0.02-0.77,0.03-1.34,0.03l0,0
		c-0.05,0-0.07-0.05-0.07-0.15c0-0.1,0.03-0.15,0.07-0.15l0,0c0.53,0,0.91-0.04,1.15-0.12c0.24-0.08,0.4-0.24,0.49-0.48
		c0.09-0.24,0.14-0.6,0.14-1.11l0,0V380.2c0-0.49-0.04-0.86-0.12-1.09c-0.08-0.23-0.25-0.39-0.49-0.48
		c-0.25-0.09-0.63-0.14-1.14-0.14l0,0c-0.03,0-0.05-0.05-0.05-0.15c0-0.1,0.02-0.15,0.05-0.15l0,0l1.31,0.03
		c0.76,0.03,1.37,0.05,1.81,0.05l0,0c0.48,0,1.01-0.03,1.59-0.07l0,0c0.18-0.02,0.42-0.03,0.71-0.05c0.29-0.02,0.63-0.03,1.03-0.03
		l0,0c1.52,0,2.7,0.28,3.53,0.83s1.25,1.33,1.25,2.31l0,0c0,0.76-0.23,1.49-0.7,2.18c-0.46,0.7-1.07,1.25-1.81,1.68l0,0
		c1.32,2.08,2.43,3.71,3.34,4.88c0.9,1.17,1.7,2.03,2.41,2.56C247.24,393.11,247.92,393.38,248.58,393.38L248.58,393.38
		L248.58,393.38z M236.61,385.2c0.4,0.07,0.88,0.1,1.44,0.1l0,0c0.59,0,1.07-0.09,1.41-0.27c0.34-0.18,0.6-0.49,0.75-0.94
		c0.16-0.45,0.23-1.07,0.23-1.89l0,0c0-1.35-0.2-2.29-0.59-2.8c-0.4-0.51-0.97-0.77-1.71-0.77l0,0c-0.56,0-0.96,0.12-1.19,0.37
		c-0.23,0.25-0.34,0.66-0.34,1.24l0,0V385.2L236.61,385.2z M257.3,393.97c-1.81,0-3.4-0.34-4.76-1.04c-1.35-0.7-2.39-1.64-3.1-2.83
		s-1.07-2.53-1.07-4l0,0c0-1.59,0.41-3,1.23-4.25s1.94-2.21,3.37-2.9c1.43-0.68,3.03-1.03,4.79-1.03l0,0c0.77,0,1.56,0.07,2.35,0.19
		c0.79,0.12,1.43,0.29,1.91,0.48l0,0c0.15,0.05,0.24,0.11,0.29,0.19c0.04,0.07,0.07,0.2,0.08,0.38l0,0l0.33,3.45
		c0,0.05-0.04,0.08-0.12,0.1c-0.08,0.02-0.14-0.01-0.18-0.07l0,0c-0.58-1.27-1.37-2.26-2.39-2.97c-1.01-0.71-2.18-1.07-3.48-1.07
		l0,0c-1.68,0-2.97,0.59-3.86,1.76c-0.88,1.17-1.33,2.78-1.33,4.81l0,0c0,1.64,0.28,3.1,0.85,4.38c0.56,1.28,1.34,2.27,2.34,2.97
		c1,0.7,2.12,1.05,3.36,1.05l0,0c0.68,0,1.2-0.07,1.56-0.22s0.63-0.44,0.79-0.86c0.16-0.43,0.25-1.07,0.25-1.91l0,0
		c0-0.86-0.05-1.46-0.15-1.79c-0.1-0.34-0.31-0.57-0.63-0.68s-0.88-0.18-1.67-0.18l0,0c-0.1,0-0.15-0.07-0.15-0.2l0,0
		c0-0.05,0.01-0.1,0.04-0.14c0.03-0.04,0.05-0.07,0.08-0.07l0,0c1.4,0.08,2.54,0.12,3.39,0.12l0,0c0.85,0,1.72-0.03,2.63-0.07l0,0
		c0.03,0,0.07,0.02,0.08,0.07c0.03,0.04,0.04,0.08,0.04,0.11l0,0c0,0.12-0.04,0.18-0.12,0.18l0,0c-0.3-0.02-0.5,0.04-0.62,0.16
		c-0.12,0.12-0.19,0.37-0.22,0.74c-0.03,0.37-0.05,1.03-0.05,2l0,0c0,0.74,0.03,1.27,0.08,1.59c0.06,0.31,0.08,0.51,0.08,0.59l0,0
		c0,0.1-0.02,0.16-0.07,0.2c-0.04,0.03-0.12,0.07-0.23,0.1l0,0c-2.13,0.46-4.04,0.7-5.75,0.7l0,0L257.3,393.97z M285.62,393.38
		c0.03,0,0.05,0.05,0.05,0.15c0,0.1-0.02,0.15-0.05,0.15l0,0c-0.56,0-1.01-0.01-1.34-0.03l0,0l-1.83-0.03l-1.86,0.03
		c-0.31,0.02-0.74,0.03-1.29,0.03l0,0c-0.05,0-0.07-0.05-0.07-0.15c0-0.1,0.03-0.15,0.07-0.15l0,0c0.7,0,1.16-0.08,1.41-0.25
		c0.25-0.16,0.37-0.51,0.37-1.04l0,0l-0.03-0.42l-0.52-10.14l-5.1,11.97c-0.03,0.07-0.1,0.1-0.2,0.1l0,0c-0.1,0-0.16-0.03-0.2-0.1
		l0,0l-6.27-11.92l-0.2,8.95c-0.02,0.89,0.16,1.59,0.53,2.09c0.37,0.5,0.9,0.75,1.57,0.75l0,0c0.05,0,0.07,0.05,0.07,0.15
		c0,0.1-0.03,0.15-0.07,0.15l0,0c-0.45,0-0.79-0.01-1.04-0.03l0,0l-1.37-0.03l-1.56,0.03c-0.27,0.02-0.62,0.03-1.07,0.03l0,0
		c-0.05,0-0.07-0.05-0.07-0.15c0-0.1,0.03-0.15,0.07-0.15l0,0c0.68,0,1.22-0.25,1.61-0.77c0.4-0.51,0.6-1.2,0.62-2.08l0,0
		l0.22-10.26l-0.03-0.03c-0.33-0.61-0.68-1.06-1.03-1.34c-0.36-0.28-0.76-0.42-1.23-0.42l0,0c-0.05,0-0.07-0.05-0.07-0.15
		c0-0.1,0.03-0.15,0.07-0.15l0,0l1.16,0.03c0.23,0.02,0.53,0.03,0.89,0.03l0,0l1.31-0.03c0.15-0.02,0.34-0.03,0.57-0.03l0,0
		c0.21,0,0.38,0.07,0.49,0.22c0.12,0.15,0.33,0.5,0.64,1.07l0,0l5.4,10.14l4.71-10.8c0.1-0.23,0.2-0.39,0.31-0.48
		c0.11-0.09,0.25-0.14,0.44-0.14l0,0c0.15,0,0.32,0.01,0.51,0.03c0.19,0.02,0.41,0.03,0.66,0.03l0,0l1.46-0.03
		c0.23-0.02,0.56-0.03,0.99-0.03l0,0c0.05,0,0.07,0.05,0.07,0.15c0,0.1-0.03,0.15-0.07,0.15l0,0c-0.77,0-1.34,0.16-1.68,0.47
		c-0.34,0.31-0.5,0.8-0.47,1.46l0,0l0.59,11.25c0.03,0.51,0.1,0.88,0.19,1.11s0.25,0.39,0.49,0.47
		C284.74,393.33,285.12,393.37,285.62,393.38L285.62,393.38L285.62,393.38z M303.99,393.38c0.08,0,0.12,0.05,0.12,0.15
		c0,0.1-0.04,0.15-0.12,0.15l0,0c-0.33,0-0.85-0.02-1.53-0.05l0,0c-0.73-0.03-1.25-0.05-1.56-0.05l0,0c-0.42,0-0.92,0.02-1.51,0.05
		l0,0c-0.56,0.03-1.01,0.05-1.34,0.05l0,0c-0.07,0-0.1-0.05-0.1-0.15c0-0.1,0.03-0.15,0.1-0.15l0,0c0.43,0,0.74-0.05,0.93-0.14
		s0.29-0.25,0.29-0.48l0,0c0-0.28-0.16-0.75-0.49-1.41l0,0l-2.57-5.08h-4.41l-1.76,3.89c-0.21,0.48-0.33,0.92-0.33,1.34l0,0
		c0,0.59,0.21,1.06,0.63,1.38c0.42,0.33,0.99,0.49,1.7,0.49l0,0c0.08,0,0.12,0.05,0.12,0.15c0,0.1-0.04,0.15-0.12,0.15l0,0
		c-0.3,0-0.73-0.02-1.29-0.05l0,0c-0.63-0.03-1.17-0.05-1.64-0.05l0,0c-0.45,0-0.98,0.02-1.61,0.05l0,0
		c-0.56,0.03-1.01,0.05-1.37,0.05l0,0c-0.07,0-0.1-0.05-0.1-0.15c0-0.1,0.03-0.15,0.1-0.15l0,0c0.46,0,0.85-0.1,1.16-0.29
		c0.31-0.19,0.63-0.53,0.94-1.01c0.31-0.49,0.68-1.21,1.11-2.17l0,0l5.38-11.82c0.03-0.05,0.11-0.07,0.22-0.07l0,0
		c0.13,0,0.21,0.03,0.22,0.07l0,0l6.2,12.19c0.58,1.17,1.06,1.98,1.44,2.43C303.17,393.16,303.56,393.38,303.99,393.38
		L303.99,393.38L303.99,393.38z M293.85,381.66l-1.76,3.91h3.74L293.85,381.66L293.85,381.66z M321.87,378.2
		c0.03,0,0.05,0.05,0.05,0.15c0,0.1-0.02,0.15-0.05,0.15l0,0c-0.66,0-1.18,0.26-1.56,0.78s-0.57,1.22-0.57,2.09l0,0v12.69
		c0,0.05-0.04,0.08-0.11,0.1c-0.07,0.02-0.13,0.01-0.16-0.03l0,0l-11.62-13.23v9.64c0,0.88,0.18,1.57,0.55,2.08
		c0.36,0.51,0.86,0.77,1.51,0.77l0,0c0.03,0,0.05,0.05,0.05,0.15c0,0.1-0.02,0.15-0.05,0.15l0,0c-0.46,0-0.82-0.01-1.07-0.03l0,0
		l-1.34-0.03l-1.53,0.03c-0.28,0.02-0.68,0.03-1.22,0.03l0,0c-0.05,0-0.07-0.05-0.07-0.15c0-0.1,0.03-0.15,0.07-0.15l0,0
		c0.73,0,1.3-0.25,1.72-0.77c0.42-0.51,0.63-1.2,0.63-2.08l0,0v-10.48c-0.55-0.59-1.01-1-1.4-1.23c-0.39-0.22-0.79-0.33-1.2-0.33
		l0,0c-0.03,0-0.05-0.05-0.05-0.15c0-0.1,0.02-0.15,0.05-0.15l0,0l1.04,0.03c0.21,0.02,0.53,0.03,0.94,0.03l0,0l1.89-0.03
		c0.23-0.02,0.51-0.03,0.85-0.03l0,0c0.13,0,0.23,0.03,0.3,0.1c0.07,0.07,0.18,0.21,0.34,0.42l0,0c0.28,0.38,0.48,0.64,0.59,0.77
		l0,0l8.58,9.88v-8c0-0.89-0.18-1.59-0.55-2.11c-0.36-0.51-0.86-0.77-1.51-0.77l0,0c-0.03,0-0.05-0.05-0.05-0.15
		c0-0.1,0.02-0.15,0.05-0.15l0,0l1.07,0.03c0.53,0.03,0.98,0.05,1.34,0.05l0,0c0.33,0,0.79-0.02,1.38-0.05l0,0l1.11-0.03
		L321.87,378.2z"/>
	<path class="st0" d="M330.26,391.61c0,0.55,0.08,0.94,0.23,1.2c0.16,0.25,0.45,0.42,0.88,0.53s1.13,0.16,2.09,0.16l0,0
		c0.05,0,0.08,0.05,0.08,0.16c0,0.1-0.03,0.16-0.08,0.16l0,0c-0.7,0-1.25-0.01-1.65-0.03l0,0l-2.24-0.03l-1.7,0.03
		c-0.31,0.02-0.73,0.03-1.29,0.03l0,0c-0.03,0-0.05-0.05-0.05-0.16c0-0.1,0.02-0.16,0.05-0.16l0,0c0.67,0,1.16-0.05,1.48-0.13
		c0.32-0.08,0.53-0.25,0.64-0.5c0.11-0.25,0.17-0.63,0.17-1.14l0,0v-11.89c0-0.51-0.06-0.89-0.17-1.13s-0.33-0.41-0.64-0.5
		c-0.32-0.09-0.81-0.14-1.48-0.14l0,0c-0.03,0-0.05-0.05-0.05-0.16c0-0.1,0.02-0.16,0.05-0.16l0,0l1.26,0.03
		c0.72,0.03,1.29,0.05,1.7,0.05l0,0c0.41,0,0.88-0.03,1.41-0.08l0,0c1.33-0.05,2.06-0.08,2.18-0.08l0,0c1.51,0,2.73,0.34,3.67,1.04
		c0.94,0.7,1.41,1.75,1.41,3.17l0,0c0,1.14-0.28,2.11-0.85,2.89c-0.57,0.78-1.28,1.36-2.15,1.74c-0.86,0.38-1.76,0.57-2.69,0.57l0,0
		c-0.51,0-0.94-0.05-1.26-0.13l0,0c-0.05,0-0.08-0.05-0.08-0.13l0,0c0-0.05,0.01-0.1,0.04-0.16c0.03-0.05,0.06-0.07,0.09-0.05l0,0
		c0.27,0.07,0.59,0.1,0.92,0.1l0,0c1.22,0,2.25-0.37,3.1-1.11c0.85-0.73,1.27-1.81,1.27-3.21l0,0c0-0.91-0.18-1.69-0.54-2.35
		c-0.36-0.66-0.85-1.16-1.48-1.51c-0.62-0.35-1.31-0.53-2.07-0.53l0,0c-0.7,0-1.2,0.03-1.49,0.1c-0.29,0.07-0.5,0.23-0.63,0.47
		c-0.13,0.25-0.2,0.68-0.2,1.29l0,0v11.74L330.26,391.61z M356.72,393.48c0.05,0,0.08,0.05,0.08,0.16s-0.03,0.16-0.08,0.16h-2.98
		c-0.44,0-1.27-0.74-2.49-2.22c-1.22-1.48-2.69-3.53-4.41-6.15l0,0c-0.51,0.14-1.03,0.21-1.57,0.21l0,0c-0.29,0-0.66-0.02-1.11-0.05
		l0,0v6.14c0,0.53,0.06,0.92,0.17,1.16c0.11,0.24,0.32,0.4,0.63,0.49c0.31,0.08,0.81,0.13,1.49,0.13l0,0c0.05,0,0.08,0.05,0.08,0.16
		s-0.03,0.16-0.08,0.16l0,0c-0.51,0-0.92-0.01-1.24-0.03l0,0l-1.75-0.03l-1.7,0.03c-0.31,0.02-0.73,0.03-1.29,0.03l0,0
		c-0.03,0-0.05-0.05-0.05-0.16s0.02-0.16,0.05-0.16l0,0c0.68,0,1.18-0.05,1.5-0.13c0.32-0.08,0.53-0.25,0.66-0.5
		c0.12-0.25,0.18-0.63,0.18-1.14l0,0v-11.89c0-0.51-0.06-0.89-0.17-1.13c-0.11-0.24-0.33-0.41-0.64-0.5
		c-0.32-0.09-0.81-0.14-1.48-0.14l0,0c-0.05,0-0.08-0.05-0.08-0.16s0.03-0.16,0.08-0.16l0,0l1.24,0.03c0.68,0.03,1.25,0.05,1.7,0.05
		l0,0c0.31,0,0.6-0.01,0.87-0.03c0.27-0.02,0.51-0.03,0.72-0.05l0,0c0.53-0.05,1-0.08,1.41-0.08l0,0c1.35,0,2.39,0.28,3.11,0.85
		c0.72,0.57,1.08,1.35,1.08,2.36l0,0c0,0.82-0.24,1.6-0.72,2.32c-0.48,0.73-1.11,1.31-1.9,1.74l0,0c1.49,2.19,2.73,3.89,3.73,5.11
		c0.99,1.22,1.88,2.09,2.66,2.63c0.78,0.54,1.55,0.81,2.3,0.81l0,0L356.72,393.48z M344.16,384.96c0.65,0.07,1.16,0.1,1.54,0.1l0,0
		c1.25,0,2.15-0.26,2.7-0.78c0.55-0.52,0.82-1.37,0.82-2.53l0,0c0-1.3-0.31-2.25-0.91-2.85c-0.6-0.6-1.42-0.9-2.43-0.9l0,0
		c-0.48,0-0.83,0.03-1.05,0.1c-0.22,0.07-0.39,0.23-0.5,0.49c-0.11,0.25-0.17,0.68-0.17,1.29l0,0v5.08V384.96z M364.68,394.1
		c-1.59,0-3.01-0.37-4.25-1.12c-1.24-0.75-2.2-1.76-2.87-3.03c-0.68-1.27-1.01-2.67-1.01-4.17l0,0c0-1.76,0.44-3.28,1.33-4.53
		c0.89-1.26,2.04-2.2,3.43-2.83c1.4-0.63,2.82-0.95,4.28-0.95l0,0c1.63,0,3.06,0.38,4.29,1.14c1.24,0.76,2.18,1.77,2.83,3.02
		c0.66,1.25,0.99,2.57,0.99,3.98l0,0c0,1.56-0.41,2.99-1.24,4.29c-0.82,1.3-1.92,2.33-3.3,3.08S366.28,394.11,364.68,394.1
		L364.68,394.1L364.68,394.1z M365.6,393.59c1.22,0,2.31-0.28,3.29-0.85c0.98-0.57,1.75-1.4,2.31-2.49c0.57-1.1,0.85-2.41,0.85-3.93
		l0,0c0-1.61-0.31-3.04-0.94-4.3c-0.62-1.26-1.51-2.24-2.65-2.94c-1.14-0.7-2.46-1.05-3.97-1.05l0,0c-1.98,0-3.54,0.62-4.65,1.85
		c-1.11,1.24-1.67,2.91-1.67,5.03l0,0c0,1.59,0.31,3.05,0.94,4.38c0.62,1.33,1.5,2.37,2.63,3.15
		C362.88,393.21,364.16,393.59,365.6,393.59L365.6,393.59L365.6,393.59z M379.11,378.18c-1.08,0-1.87,0.26-2.36,0.77
		c-0.49,0.51-0.83,1.43-1,2.75l0,0c0,0.03-0.05,0.05-0.16,0.05c-0.1,0-0.16-0.02-0.16-0.05l0,0c0.07-0.46,0.14-1.2,0.23-2.22
		c0.08-1.02,0.13-1.79,0.13-2.3l0,0c0-0.08,0.05-0.13,0.16-0.13c0.1,0,0.16,0.05,0.16,0.13l0,0c0,0.38,0.46,0.57,1.36,0.57l0,0
		c1.47,0.05,3.19,0.08,5.16,0.08l0,0c1.01,0,2.08-0.02,3.21-0.05l0,0l1.75-0.03c0.62,0,1.07-0.05,1.36-0.13
		c0.29-0.08,0.48-0.26,0.57-0.51l0,0c0.02-0.07,0.07-0.1,0.16-0.1c0.08,0,0.13,0.03,0.13,0.1l0,0c-0.05,0.48-0.1,1.21-0.16,2.2
		c-0.05,0.98-0.08,1.79-0.08,2.4l0,0c0,0.03-0.05,0.05-0.16,0.05c-0.1,0-0.16-0.02-0.16-0.05l0,0c0-0.91-0.09-1.61-0.28-2.11
		c-0.19-0.49-0.51-0.86-0.95-1.08c-0.44-0.22-1.07-0.33-1.87-0.33l0,0c-0.89,0-1.51,0.03-1.87,0.09c-0.36,0.06-0.6,0.2-0.73,0.42
		c-0.13,0.22-0.2,0.62-0.2,1.18l0,0v11.84c0,0.53,0.06,0.92,0.18,1.16c0.12,0.24,0.36,0.4,0.72,0.49c0.36,0.08,0.92,0.13,1.7,0.13
		l0,0c0.03,0,0.05,0.05,0.05,0.16s-0.02,0.16-0.05,0.16l0,0c-0.57,0-1.01-0.01-1.33-0.03l0,0l-1.98-0.03l-1.87,0.03
		c-0.34,0.02-0.81,0.03-1.41,0.03l0,0c-0.03,0-0.05-0.05-0.05-0.16s0.02-0.16,0.05-0.16l0,0c0.77,0,1.33-0.05,1.7-0.13
		c0.36-0.08,0.6-0.25,0.73-0.5c0.13-0.25,0.2-0.63,0.2-1.14l0,0v-11.89c0-0.57-0.07-0.96-0.21-1.17c-0.14-0.21-0.38-0.34-0.73-0.4
		c-0.35-0.05-0.99-0.08-1.91-0.08l0,0L379.11,378.18z M399.82,394.1c-1.59,0-3.01-0.37-4.25-1.12c-1.24-0.75-2.2-1.76-2.87-3.03
		c-0.68-1.27-1.01-2.67-1.01-4.17l0,0c0-1.76,0.44-3.28,1.33-4.53c0.89-1.26,2.04-2.2,3.43-2.83c1.4-0.63,2.82-0.95,4.28-0.95l0,0
		c1.63,0,3.06,0.38,4.29,1.14c1.24,0.76,2.18,1.77,2.83,3.02c0.66,1.25,0.99,2.57,0.99,3.98l0,0c0,1.56-0.41,2.99-1.24,4.29
		c-0.82,1.3-1.92,2.33-3.3,3.08S401.41,394.11,399.82,394.1L399.82,394.1L399.82,394.1z M400.74,393.59c1.22,0,2.31-0.28,3.29-0.85
		c0.98-0.57,1.75-1.4,2.31-2.49c0.57-1.1,0.85-2.41,0.85-3.93l0,0c0-1.61-0.31-3.04-0.94-4.3c-0.62-1.26-1.51-2.24-2.65-2.94
		c-1.14-0.7-2.46-1.05-3.97-1.05l0,0c-1.98,0-3.54,0.62-4.65,1.85c-1.11,1.24-1.67,2.91-1.67,5.03l0,0c0,1.59,0.31,3.05,0.94,4.38
		c0.62,1.33,1.5,2.37,2.63,3.15C398.02,393.21,399.3,393.59,400.74,393.59L400.74,393.59L400.74,393.59z M414.25,378.18
		c-1.08,0-1.87,0.26-2.36,0.77c-0.49,0.51-0.83,1.43-1,2.75l0,0c0,0.03-0.05,0.05-0.16,0.05s-0.16-0.02-0.16-0.05l0,0
		c0.07-0.46,0.14-1.2,0.23-2.22c0.08-1.02,0.13-1.79,0.13-2.3l0,0c0-0.08,0.05-0.13,0.16-0.13s0.16,0.05,0.16,0.13l0,0
		c0,0.38,0.46,0.57,1.36,0.57l0,0c1.47,0.05,3.19,0.08,5.16,0.08l0,0c1.01,0,2.08-0.02,3.21-0.05l0,0l1.75-0.03
		c0.62,0,1.07-0.05,1.36-0.13c0.29-0.08,0.48-0.26,0.57-0.51l0,0c0.02-0.07,0.07-0.1,0.16-0.1s0.13,0.03,0.13,0.1l0,0
		c-0.05,0.48-0.1,1.21-0.16,2.2c-0.05,0.98-0.08,1.79-0.08,2.4l0,0c0,0.03-0.05,0.05-0.16,0.05s-0.16-0.02-0.16-0.05l0,0
		c0-0.91-0.09-1.61-0.28-2.11s-0.51-0.86-0.95-1.08c-0.44-0.22-1.07-0.33-1.87-0.33l0,0c-0.89,0-1.51,0.03-1.87,0.09
		c-0.36,0.06-0.6,0.2-0.73,0.42c-0.13,0.22-0.2,0.62-0.2,1.18l0,0v11.84c0,0.53,0.06,0.92,0.18,1.16c0.12,0.24,0.36,0.4,0.72,0.49
		c0.36,0.08,0.92,0.13,1.7,0.13l0,0c0.03,0,0.05,0.05,0.05,0.16s-0.02,0.16-0.05,0.16l0,0c-0.57,0-1.01-0.01-1.33-0.03l0,0
		l-1.98-0.03l-1.87,0.03c-0.34,0.02-0.81,0.03-1.41,0.03l0,0c-0.03,0-0.05-0.05-0.05-0.16s0.02-0.16,0.05-0.16l0,0
		c0.77,0,1.33-0.05,1.7-0.13c0.36-0.08,0.6-0.25,0.73-0.5c0.13-0.25,0.2-0.63,0.2-1.14l0,0v-11.89c0-0.57-0.07-0.96-0.21-1.17
		c-0.14-0.21-0.38-0.34-0.73-0.4c-0.35-0.05-0.99-0.08-1.91-0.08l0,0L414.25,378.18z M441.55,377.74c0.03,0,0.05,0.05,0.05,0.16
		s-0.02,0.16-0.05,0.16l0,0c-0.63,0-1.25,0.2-1.85,0.6c-0.6,0.4-1.14,0.97-1.62,1.71l0,0l-3.62,5.49v5.86
		c0,0.53,0.05,0.92,0.16,1.16c0.1,0.24,0.31,0.4,0.62,0.49c0.31,0.08,0.81,0.13,1.49,0.13l0,0c0.05,0,0.08,0.05,0.08,0.16
		c0,0.1-0.03,0.16-0.08,0.16l0,0c-0.51,0-0.92-0.01-1.21-0.03l0,0l-1.75-0.03l-1.75,0.03c-0.31,0.02-0.72,0.03-1.24,0.03l0,0
		c-0.05,0-0.08-0.05-0.08-0.16c0-0.1,0.03-0.16,0.08-0.16l0,0c0.67,0,1.16-0.05,1.48-0.13s0.53-0.25,0.66-0.5
		c0.12-0.25,0.18-0.63,0.18-1.14l0,0v-5.47l-4.39-6.37c-0.44-0.67-0.88-1.14-1.31-1.41c-0.43-0.27-0.96-0.41-1.59-0.41l0,0
		c-0.05,0-0.08-0.05-0.08-0.16c0-0.1,0.03-0.16,0.08-0.16l0,0l0.95,0.03c0.41,0.03,0.72,0.05,0.92,0.05l0,0
		c0.57,0,1.26-0.02,2.08-0.05l0,0l1.33-0.03c0.03,0,0.05,0.05,0.05,0.16c0,0.1-0.02,0.16-0.05,0.16l0,0c-0.51,0-0.88,0.04-1.12,0.12
		c-0.23,0.08-0.34,0.2-0.34,0.37l0,0c0,0.1,0.08,0.28,0.26,0.54l0,0l4.32,6.19l3.29-4.98c0.38-0.62,0.57-1.09,0.57-1.41l0,0
		c0-0.55-0.46-0.82-1.38-0.82l0,0c-0.03,0-0.05-0.05-0.05-0.16c0-0.1,0.02-0.16,0.05-0.16l0,0l1.16,0.03
		c0.65,0.03,1.22,0.05,1.72,0.05l0,0c0.29,0,0.64-0.02,1.05-0.05l0,0l0.95-0.03L441.55,377.74z M446.23,391.61
		c0,0.55,0.08,0.94,0.23,1.2c0.16,0.25,0.45,0.42,0.88,0.53s1.13,0.16,2.09,0.16l0,0c0.05,0,0.08,0.05,0.08,0.16
		c0,0.1-0.03,0.16-0.08,0.16l0,0c-0.7,0-1.25-0.01-1.65-0.03l0,0l-2.24-0.03l-1.7,0.03c-0.31,0.02-0.73,0.03-1.29,0.03l0,0
		c-0.03,0-0.05-0.05-0.05-0.16c0-0.1,0.02-0.16,0.05-0.16l0,0c0.67,0,1.16-0.05,1.48-0.13s0.53-0.25,0.64-0.5
		c0.11-0.25,0.17-0.63,0.17-1.14l0,0v-11.89c0-0.51-0.06-0.89-0.17-1.13s-0.33-0.41-0.64-0.5s-0.81-0.14-1.48-0.14l0,0
		c-0.03,0-0.05-0.05-0.05-0.16c0-0.1,0.02-0.16,0.05-0.16l0,0l1.26,0.03c0.72,0.03,1.29,0.05,1.7,0.05l0,0
		c0.41,0,0.88-0.03,1.41-0.08l0,0c1.33-0.05,2.06-0.08,2.18-0.08l0,0c1.51,0,2.73,0.34,3.67,1.04c0.94,0.7,1.41,1.75,1.41,3.17l0,0
		c0,1.14-0.28,2.11-0.85,2.89c-0.57,0.78-1.28,1.36-2.15,1.74c-0.86,0.38-1.76,0.57-2.69,0.57l0,0c-0.51,0-0.94-0.05-1.26-0.13l0,0
		c-0.05,0-0.08-0.05-0.08-0.13l0,0c0-0.05,0.01-0.1,0.04-0.16c0.03-0.05,0.06-0.07,0.09-0.05l0,0c0.27,0.07,0.59,0.1,0.92,0.1l0,0
		c1.22,0,2.25-0.37,3.1-1.11c0.85-0.73,1.27-1.81,1.27-3.21l0,0c0-0.91-0.18-1.69-0.54-2.35c-0.36-0.66-0.85-1.16-1.48-1.51
		c-0.62-0.35-1.31-0.53-2.07-0.53l0,0c-0.7,0-1.2,0.03-1.49,0.1c-0.29,0.07-0.5,0.23-0.63,0.47c-0.13,0.25-0.2,0.68-0.2,1.29l0,0
		v11.74L446.23,391.61z M460.25,391.72c0,0.53,0.06,0.92,0.17,1.16s0.32,0.4,0.63,0.49c0.31,0.08,0.81,0.13,1.49,0.13l0,0
		c0.03,0,0.05,0.05,0.05,0.16c0,0.1-0.02,0.16-0.05,0.16l0,0c-0.51,0-0.92-0.01-1.21-0.03l0,0l-1.8-0.03l-1.72,0.03
		c-0.31,0.02-0.73,0.03-1.26,0.03l0,0c-0.05,0-0.08-0.05-0.08-0.16c0-0.1,0.03-0.16,0.08-0.16l0,0c0.67,0,1.16-0.05,1.48-0.13
		s0.53-0.25,0.66-0.5c0.12-0.25,0.18-0.63,0.18-1.14l0,0v-11.89c0-0.51-0.06-0.89-0.18-1.13c-0.12-0.24-0.34-0.41-0.66-0.5
		s-0.81-0.14-1.48-0.14l0,0c-0.05,0-0.08-0.05-0.08-0.16c0-0.1,0.03-0.16,0.08-0.16l0,0l1.26,0.03c0.72,0.03,1.29,0.05,1.72,0.05
		l0,0c0.48,0,1.08-0.02,1.8-0.05l0,0l1.21-0.03c0.03,0,0.05,0.05,0.05,0.16c0,0.1-0.02,0.16-0.05,0.16l0,0
		c-0.67,0-1.16,0.05-1.48,0.16c-0.32,0.1-0.53,0.28-0.64,0.53c-0.11,0.25-0.17,0.63-0.17,1.14l0,0V391.72z M481.75,377.74
		c0.05,0,0.08,0.05,0.08,0.16s-0.03,0.16-0.08,0.16l0,0c-0.73,0-1.25,0.18-1.55,0.54c-0.3,0.36-0.45,0.98-0.45,1.85l0,0v13.64
		c0,0.03-0.05,0.06-0.13,0.08c-0.08,0.02-0.14,0.01-0.18-0.03l0,0l-11.61-14.28l-0.44-0.49v11.76c0,0.87,0.14,1.48,0.44,1.83
		c0.29,0.35,0.79,0.53,1.51,0.53l0,0c0.05,0,0.08,0.05,0.08,0.16s-0.03,0.16-0.08,0.16l0,0c-0.41,0-0.73-0.01-0.95-0.03l0,0
		l-1.24-0.03l-1.26,0.03c-0.22,0.02-0.56,0.03-1,0.03l0,0c-0.03,0-0.05-0.05-0.05-0.16s0.02-0.16,0.05-0.16l0,0
		c0.73,0,1.24-0.17,1.51-0.51c0.27-0.34,0.41-0.96,0.41-1.85l0,0v-12.3c-0.6-0.51-1.22-0.77-1.85-0.77l0,0
		c-0.05,0-0.08-0.05-0.08-0.16c0-0.1,0.03-0.16,0.08-0.16l0,0l0.92,0.03c0.19,0.02,0.46,0.03,0.79,0.03l0,0
		c0.29,0,0.53-0.01,0.72-0.03c0.19-0.02,0.33-0.03,0.44-0.03l0,0c0.12,0,0.22,0.03,0.29,0.09c0.08,0.06,0.17,0.18,0.27,0.37l0,0
		c0.19,0.31,0.4,0.6,0.62,0.87l0,0l10.14,12.61v-11.25c0-0.87-0.14-1.49-0.41-1.85c-0.27-0.36-0.77-0.54-1.49-0.54l0,0
		c-0.03,0-0.05-0.05-0.05-0.16c0-0.1,0.02-0.16,0.05-0.16l0,0l0.98,0.03c0.51,0.03,0.92,0.05,1.24,0.05l0,0
		c0.29,0,0.71-0.02,1.26-0.05l0,0L481.75,377.74L481.75,377.74z M492.8,394.1c-1.87,0-3.49-0.36-4.87-1.08
		c-1.38-0.72-2.43-1.7-3.16-2.93s-1.09-2.61-1.09-4.14l0,0c0-1.66,0.42-3.13,1.27-4.41c0.85-1.29,2.01-2.29,3.49-3
		c1.48-0.72,3.15-1.08,5.02-1.08l0,0c0.84,0,1.63,0.08,2.37,0.26c0.75,0.17,1.37,0.41,1.86,0.72l0,0c0.12,0.08,0.2,0.16,0.22,0.22
		c0.03,0.06,0.05,0.13,0.05,0.21c0.01,0.08,0.01,0.13,0.01,0.17l0,0l0.31,2.7c0,0.05-0.05,0.08-0.14,0.09
		c-0.1,0.01-0.15-0.01-0.17-0.07l0,0c-0.33-1.22-0.97-2.15-1.92-2.79c-0.96-0.64-2.17-0.96-3.65-0.96l0,0
		c-2.26,0-4.02,0.62-5.27,1.87c-1.25,1.25-1.87,2.98-1.87,5.19l0,0c0,1.65,0.35,3.12,1.05,4.43s1.67,2.33,2.91,3.07
		c1.24,0.73,2.63,1.11,4.17,1.11l0,0c0.92,0,1.64-0.08,2.15-0.23c0.51-0.16,0.87-0.46,1.11-0.9c0.23-0.44,0.34-1.11,0.34-1.98l0,0
		c0-0.89-0.06-1.51-0.18-1.86c-0.12-0.35-0.38-0.59-0.77-0.71c-0.4-0.12-1.08-0.18-2.05-0.18l0,0c-0.1,0-0.16-0.07-0.16-0.21l0,0
		c0-0.05,0.01-0.1,0.04-0.14c0.03-0.05,0.06-0.07,0.09-0.07l0,0c1.32,0.08,2.38,0.13,3.19,0.13l0,0c0.77,0,1.59-0.03,2.46-0.08l0,0
		c0.03,0,0.07,0.02,0.09,0.07s0.04,0.08,0.04,0.12l0,0c0,0.12-0.05,0.18-0.13,0.18l0,0c-0.44-0.02-0.76,0.04-0.95,0.17
		c-0.19,0.13-0.31,0.39-0.36,0.78c-0.05,0.4-0.08,1.08-0.08,2.05l0,0c0,0.77,0.03,1.32,0.09,1.65c0.06,0.33,0.09,0.53,0.09,0.62l0,0
		c0,0.1-0.02,0.17-0.05,0.21c-0.03,0.03-0.11,0.07-0.23,0.1l0,0c-2,0.48-3.78,0.72-5.34,0.72l0,0L492.8,394.1z"/>
	<g>
		<path class="st0" d="M153.66,435.04c0-2.26,0-4.53,0.01-6.79c0-0.23-0.07-0.29-0.29-0.33c-2.1-0.33-3.95-1.15-5.23-2.93
			c-1.11-1.55-1.24-3.22-0.42-4.95c0.1-0.23,0.2-0.34,0.47-0.15c0.48,0.34,1,0.62,1.51,0.92c0.14,0.08,0.2,0.14,0.11,0.33
			c-0.58,1.16-0.14,2.21,0.67,3c0.83,0.81,1.87,1.2,2.98,1.44c0.27,0.06,0.2-0.1,0.2-0.23c0-0.85,0-1.7,0-2.55c0-1.29,0-2.57,0-3.86
			c0-0.14,0.07-0.31-0.19-0.34c-1.42-0.12-2.76-0.54-4.06-1.13c-1.13-0.62-2.18-1.35-3.01-2.37c-0.85-1.16-1.37-2.43-1.35-3.89
			c0.03-1.72,0.75-3.14,1.97-4.41c0.51,0.52,1,1.05,1.51,1.55c0.17,0.17,0.03,0.24-0.05,0.34c-0.47,0.53-0.85,1.13-0.99,1.84
			c-0.22,1.05,0,2.01,0.63,2.88c0.51,0.79,1.23,1.33,2.03,1.78c0.36,0.2,0.73,0.42,1.15,0.47c0.68,0.38,1.45,0.47,2.2,0.6
			c0.2,0.03,0.16-0.1,0.16-0.21c0-0.83-0.01-1.65-0.01-2.47c0-2.37,0-4.75,0.02-7.12c0-0.27-0.15-0.27-0.34-0.29
			c-0.88-0.09-1.76-0.23-2.61-0.47c-1.28-0.34-2.48-0.89-3.63-1.54c-0.33-0.25-0.64-0.51-1-0.7c-0.85-0.76-1.64-1.57-2.22-2.56
			c-0.4-0.72-0.66-1.5-0.88-2.29c0-0.08,0.01-0.16,0-0.23c-0.3-1.93,0.16-3.69,1.27-5.28c0.57-0.81,1.28-1.48,2.04-2.12
			c0.16-0.11,0.28-0.14,0.42,0.07c0.33,0.5,0.71,0.98,1.07,1.46c0.09,0.14,0.13,0.26-0.06,0.37c-0.16,0.09-0.29,0.21-0.42,0.34
			c-1.24,1.13-2.11,2.45-2.05,4.21c0.05,1.51,0.76,2.73,1.84,3.73c1.79,1.65,3.97,2.39,6.34,2.68c0.2,0.03,0.24-0.05,0.23-0.23
			c-0.01-0.57-0.01-1.13-0.01-1.7c0-0.07,0.01-0.13,0.01-0.2c0-3.73,0-7.45,0-11.18c0-0.08,0.03-0.18-0.03-0.25
			c-0.02,0-0.03-0.01-0.05,0c-0.08,0.03-0.17,0.06-0.25,0.09c-1.97,0.64-3.85,0.43-5.53-0.77c-0.46-0.33-0.77-0.54-1.28-0.27
			c-0.02,0.01-0.04,0.03-0.06,0.05c-0.1,0.02-0.2,0.04-0.29,0.06c-2.14,0.37-4.02-0.14-5.6-1.66c-0.07-0.07-0.18-0.14-0.21-0.23
			c-0.13-0.46-0.42-0.44-0.83-0.41c-2.41,0.21-4.34-0.68-5.76-2.63c-0.09-0.12-0.21-0.26-0.22-0.4c-0.03-0.37-0.23-0.4-0.54-0.42
			c-2.52-0.22-4.32-1.47-5.36-3.8c-0.04-0.09-0.09-0.2-0.08-0.29c0.07-0.39-0.18-0.46-0.49-0.55c-2.46-0.7-3.95-2.33-4.53-4.81
			c0-0.03-0.01-0.05-0.01-0.08c0.19-0.57-0.22-0.7-0.6-0.9c-1.86-1.02-2.94-2.59-3.24-4.69c-0.05-0.32-0.04-0.64-0.02-0.96
			c0.03-0.49,0.51-0.92,1.04-0.98c0.14-0.01,0.28,0,0.42,0c8.14,0,16.28,0,24.42,0c0.55,0,1.05,0.05,1.43,0.6
			c0.12-1.72,0.67-3.21,1.55-4.58c1.63-2.53,3.97-4.11,6.83-4.97c2.42-0.73,4.89-0.75,7.37-0.44c1.07,0.14,2.13,0.32,3.18,0.58
			c0.18,0.05,0.31,0.05,0.43-0.17c0.24-0.46,0.73-0.47,1.38-0.35c0.35,0.07,0.53,0.38,0.53,0.88c0,1.63,0.01,3.26,0,4.9
			c0,0.58-0.25,0.85-0.77,0.91c-0.73,0.08-1.12-0.12-1.25-0.7c-0.03-0.15-0.08-0.22-0.22-0.27c-0.86-0.29-1.73-0.57-2.62-0.76
			c-0.03,0-0.08-0.02-0.09-0.01c-0.03,0.04,0,0.05,0.04,0.07c0.47,0.81,0.95,1.61,1.26,2.5c0.22,0.62,0.38,1.25,0.48,1.93
			c0.67-0.21,1.36-0.12,2.04-0.12c7.81-0.01,15.61,0,23.42-0.02c0.98,0,1.52,0.61,1.44,1.5c-0.21,2.43-1.38,4.2-3.57,5.29
			c-0.26,0.13-0.36,0.22-0.33,0.55c0.05,0.54-0.18,1.06-0.4,1.55c-0.84,1.86-2.24,3.06-4.23,3.56c-0.26,0.07-0.33,0.17-0.38,0.44
			c-0.13,0.78-0.58,1.42-1.08,2.01c-1.16,1.35-2.65,2.07-4.43,2.17c-0.26,0.01-0.36,0.08-0.46,0.36c-0.26,0.72-0.8,1.25-1.39,1.72
			c-1.45,1.14-3.1,1.63-4.94,1.34c-0.1-0.02-0.23-0.09-0.3,0.07c-0.34,0.79-1.03,1.21-1.72,1.59c-1.62,0.9-3.34,1.05-5.09,0.42
			c-0.2-0.07-0.36-0.13-0.49,0.14c-0.08,0.18-0.27,0.27-0.43,0.38c-1.7,1.07-3.52,1.29-5.42,0.66c-0.33-0.1-0.35-0.03-0.35,0.27
			c0.01,4.32,0.01,8.64,0,12.97c0,0.23,0.05,0.34,0.3,0.37c0.53,0.06,1.06,0.16,1.59,0.24c0.51,0.17,1.01,0.33,1.51,0.51
			c0.81,0.3,1.52,0.77,2.25,1.2c0.64,0.54,1.27,1.08,1.76,1.77c1.33,1.91,1.59,3.93,0.64,6.08c-0.04,0.08-0.07,0.17-0.1,0.25
			c-0.43,0.67-0.87,1.33-1.46,1.88c-0.21,0.2-0.31,0.16-0.46-0.04c-0.21-0.27-0.46-0.53-0.68-0.79c-0.2-0.22-0.51-0.43-0.55-0.68
			c-0.05-0.29,0.36-0.44,0.54-0.68c0.37-0.52,0.78-1.02,0.81-1.7c0.15-0.28,0.16-0.59,0.13-0.89c-0.16-1.63-1.08-2.73-2.44-3.52
			c-0.01-0.02-0.03-0.05-0.05-0.06c-1.1-0.67-2.31-1.02-3.58-1.2c-0.19-0.03-0.18,0.09-0.18,0.21c0,1.74,0,3.49-0.01,5.23
			c0,1.46-0.01,2.93-0.02,4.4c0,0.18,0.05,0.23,0.23,0.26c1.35,0.2,2.61,0.64,3.75,1.42c1.59,1.1,2.53,2.57,2.47,4.56
			c-0.03,0.92-0.36,1.75-0.88,2.51c-0.11,0.16-0.18,0.16-0.33,0.05c-0.49-0.39-0.99-0.77-1.5-1.15c-0.12-0.09-0.17-0.16-0.07-0.31
			c0.81-1.18,0.42-2.42-0.49-3.3c-0.81-0.79-1.82-1.18-2.91-1.41c-0.19-0.04-0.27,0-0.27,0.22c0.01,2.16,0.01,4.32,0,6.48
			c0,0.25,0.12,0.28,0.32,0.33c1.42,0.33,2.66,0.97,3.45,2.26c1.03,1.68,0.54,3.65-1.05,4.89c-0.12,0.09-0.18,0.08-0.27-0.04
			c-0.38-0.54-0.75-1.07-1.14-1.6c-0.1-0.14-0.05-0.2,0.07-0.3c0.85-0.76,0.79-1.65-0.14-2.32c-0.28-0.21-0.59-0.36-0.92-0.49
			c-0.22-0.09-0.32-0.06-0.31,0.22c0.01,1.14,0,2.29,0.01,3.43c0.01,1.04-0.05,2.08,0.03,3.12h-2.39L153.66,435.04z M136.42,384
			c0.66,0.53,1.39,0.81,2.2,0.86c0.92,0.07,1.74-0.21,2.5-0.72c1.32-0.87,2.64-1.73,3.97-2.59c0.45-0.29,0.92-0.31,1.37,0
			c0.41,0.27,0.54,0.67,0.47,1.14c-0.05,0.34-0.25,0.58-0.49,0.81c-1.04,1-2.06,2.01-3.12,2.99c-0.31,0.29-0.16,0.35,0.1,0.44
			c1.49,0.53,2.86,0.36,4.06-0.72c0.88-0.79,1.72-1.63,2.57-2.44c0.39-0.38,0.85-0.49,1.35-0.29c0.72,0.3,0.92,1.05,0.48,1.78
			c-0.55,0.9-1.11,1.79-1.68,2.68c-0.08,0.14-0.2,0.25,0.07,0.32c1.13,0.27,2.19,0.11,3.17-0.53c0.14-0.09,0.2-0.2,0.2-0.38
			c0-2.78,0-5.56,0-8.34c0-0.18-0.05-0.23-0.23-0.25c-0.51-0.05-1.01-0.16-1.51-0.3c-4.27-1.18-7.43-4.77-8-9.13
			c-0.04-0.31-0.18-0.35-0.44-0.35c-7.3,0.01-14.59,0-21.88,0c-0.05,0-0.1,0-0.16,0c-0.21-0.02-0.25,0.05-0.17,0.24
			c0.16,0.4,0.36,0.77,0.64,1.09c0.8,0.91,1.8,1.38,3.02,1.37c1.61,0,3.22,0,4.82,0c0.81,0,1.37,0.6,1.27,1.35
			c-0.07,0.53-0.49,0.89-1.19,1.03c-1.42,0.27-2.85,0.57-4.27,0.83c-0.33,0.06-0.25,0.16-0.13,0.36c0.83,1.27,2.4,1.94,3.92,1.64
			c1.6-0.31,3.2-0.63,4.8-0.94c0.36-0.07,0.72-0.06,1.03,0.18c0.37,0.27,0.53,0.65,0.48,1.11c-0.05,0.47-0.32,0.77-0.75,0.94
			c-1.38,0.56-2.76,1.12-4.13,1.68c-0.12,0.05-0.27,0.06-0.36,0.19c1.05,1.23,2.59,1.67,4.12,1.17c0.6-0.2,1.17-0.46,1.76-0.69
			c1.02-0.42,2.04-0.84,3.06-1.25c0.75-0.3,1.45,0.04,1.65,0.77c0.14,0.51-0.06,1-0.59,1.35c-1.33,0.87-2.67,1.73-4.03,2.61
			L136.42,384z M173.24,383.98c-0.16-0.1-0.3-0.2-0.44-0.29c-1.2-0.77-2.39-1.55-3.58-2.33c-0.55-0.36-0.73-0.87-0.54-1.42
			c0.23-0.68,0.9-0.96,1.64-0.67c1.46,0.59,2.92,1.19,4.38,1.78c1.57,0.63,2.99,0.4,4.26-0.72c0.35-0.31,0.34-0.32-0.08-0.49
			c-1.35-0.55-2.71-1.09-4.06-1.65c-0.7-0.29-0.99-0.84-0.78-1.5c0.18-0.59,0.77-0.9,1.46-0.77c1.36,0.27,2.72,0.53,4.08,0.81
			c0.9,0.19,1.79,0.33,2.7,0.01c0.93-0.33,1.63-0.93,2.13-1.8c-1.65-0.33-3.24-0.63-4.84-0.96c-0.66-0.14-1.01-0.69-0.9-1.35
			c0.1-0.59,0.57-0.96,1.25-0.96c1.58,0,3.17-0.01,4.75,0c0.66,0,1.27-0.12,1.86-0.41c0.96-0.48,1.61-1.24,1.96-2.3h-0.46
			c-6.97,0-13.94,0-20.92,0c-0.33,0-0.67,0.01-1,0c-0.21-0.01-0.31,0.04-0.34,0.28c-0.19,1.5-0.66,2.9-1.45,4.19
			c-1.85,3-4.53,4.76-8.01,5.3c-0.18,0.03-0.29,0.05-0.29,0.29c0.01,2.76,0,5.53,0,8.3c0,0.15,0.02,0.27,0.16,0.36
			c1.06,0.72,2.19,0.85,3.41,0.51c-0.03-0.06-0.03-0.08-0.04-0.1c-0.58-0.92-1.16-1.85-1.74-2.78c-0.18-0.28-0.31-0.57-0.25-0.9
			c0.07-0.47,0.33-0.81,0.79-0.96c0.46-0.15,0.89-0.05,1.25,0.3c0.78,0.75,1.56,1.5,2.34,2.24c0.3,0.29,0.62,0.55,0.98,0.75
			c1.11,0.64,2.74,0.64,3.52,0.08c-0.51-0.57-1.03-1.18-1.58-1.76c-0.58-0.6-1.21-1.15-1.79-1.75c-0.42-0.43-0.46-1.01-0.13-1.48
			c0.3-0.43,0.9-0.62,1.4-0.42c0.23,0.1,0.45,0.25,0.66,0.39c1.36,0.87,2.7,1.79,4.08,2.61
			C170.36,385.19,172.18,384.96,173.24,383.98L173.24,383.98z M165.24,362.34c0-1.14-0.01-2.24,0-3.34c0-0.27-0.08-0.34-0.34-0.39
			c-1.43-0.31-2.87-0.57-4.33-0.7c-2.48-0.23-4.89,0.03-7.21,0.99c-1.98,0.82-3.66,2-4.92,3.76c-2.28,3.21-2.32,7.13-0.05,10.23
			c1.24,1.68,2.92,2.7,4.95,3.16c0.26,0.06,0.33-0.01,0.32-0.27c-0.02-0.51-0.02-1.03,0-1.54c0.01-0.23-0.06-0.34-0.29-0.38
			c-0.49-0.09-0.96-0.28-1.4-0.53c-2.36-1.31-3.5-3.35-3.31-6.01c0.19-2.56,1.61-4.31,3.99-5.3c0.69-0.29,1.43-0.29,2.14-0.46
			c2.55-0.59,5.09-0.58,7.64-0.02C163.37,361.75,164.29,362.03,165.24,362.34L165.24,362.34z M156.87,361.95
			c2.65,1.04,4.17,2.83,4.31,5.63c0.09,1.99-0.63,3.67-2.14,4.99c-0.76,0.66-1.65,1.06-2.63,1.27c-0.16,0.03-0.4,0-0.38,0.31
			c0.02,0.59,0.01,1.18,0,1.78c0,0.2,0.07,0.23,0.25,0.2c3.86-0.48,7.01-3.89,7.18-7.78c0.1-2.34-0.8-4.32-2.13-6.17
			c-0.05-0.08-0.11-0.13-0.21-0.15C159.74,361.82,158.36,361.77,156.87,361.95L156.87,361.95z M154.13,367.49
			c-0.68-0.7-1.33-1.37-1.97-2.05c-0.12-0.12-0.18-0.08-0.26,0.03c-0.38,0.54-0.64,1.13-0.73,1.79c-0.03,0.18,0.01,0.23,0.18,0.22
			C152.27,367.49,153.19,367.49,154.13,367.49L154.13,367.49z M154.23,368.22c-1.04,0-1.96,0-2.89,0c-0.18,0-0.2,0.05-0.18,0.23
			c0.09,0.66,0.34,1.25,0.73,1.79c0.1,0.15,0.18,0.14,0.29,0.01C152.83,369.59,153.49,368.94,154.23,368.22L154.23,368.22z
			 M154.73,366.98c0-0.99,0-1.86,0-2.73c0-0.15,0.02-0.29-0.21-0.26c-0.68,0.07-1.29,0.3-1.83,0.72c-0.09,0.07-0.12,0.12-0.03,0.21
			C153.33,365.58,154,366.25,154.73,366.98z M154.73,368.85c-0.04-0.03-0.07-0.05-0.11-0.07c-0.64,0.66-1.28,1.32-1.93,1.98
			c-0.1,0.1-0.14,0.16,0.01,0.27c0.54,0.37,1.13,0.59,1.78,0.65c0.16,0.01,0.26-0.01,0.25-0.21
			C154.72,370.6,154.73,369.72,154.73,368.85L154.73,368.85z M155.45,366.99c0.68-0.68,1.27-1.29,1.88-1.89
			c0.14-0.14,0.02-0.19-0.06-0.26c-0.47-0.4-1.01-0.64-1.61-0.79c-0.14-0.03-0.21-0.03-0.21,0.15
			C155.45,365.1,155.45,365.99,155.45,366.99L155.45,366.99z M155.56,368.78c-0.04,0.03-0.07,0.05-0.11,0.08c0,0.83,0,1.67,0,2.5
			c0,0.16-0.01,0.29,0.22,0.23c0.59-0.15,1.14-0.38,1.61-0.79c0.1-0.08,0.12-0.14,0.02-0.25
			C156.72,369.98,156.15,369.38,155.56,368.78L155.56,368.78z M156,367.49c0.86,0,1.65,0,2.44,0c0.15,0,0.24-0.01,0.2-0.21
			c-0.1-0.57-0.29-1.09-0.6-1.57c-0.07-0.11-0.12-0.18-0.25-0.05C157.22,366.26,156.64,366.85,156,367.49L156,367.49z
			 M155.95,368.22c0.66,0.65,1.24,1.22,1.8,1.79c0.14,0.14,0.21,0.12,0.31-0.03c0.3-0.47,0.49-0.98,0.59-1.53
			c0.03-0.16,0.01-0.23-0.18-0.23C157.67,368.22,156.87,368.22,155.95,368.22z M166.56,360.68c0-0.78,0-1.57,0-2.35
			c0-0.2,0-0.33-0.27-0.33c-0.23,0.01-0.31,0.06-0.31,0.3c0.01,1.57,0.01,3.13,0,4.7c0,0.22,0.07,0.28,0.28,0.28
			c0.23,0,0.31-0.05,0.31-0.29C166.55,362.23,166.57,361.45,166.56,360.68L166.56,360.68z"/>
		<path class="st0" d="M125.03,410.55c1.06,0.15,2.1,0.25,3.13,0.49c1.27,0.3,2.47,0.76,3.55,1.52c2.65,1.87,2.31,5.53,0.43,7.31
			c-1.18,1.11-2.65,1.59-4.19,1.89c-1.76,0.34-3.52,0.33-5.3,0.28c-2.97-0.08-5.94-0.1-8.91,0.03c-0.34,0.01-0.4-0.1-0.38-0.4
			c0.01-0.2,0.08-0.22,0.25-0.24c0.31-0.03,0.61-0.08,0.91-0.14c0.54-0.12,0.83-0.46,0.94-0.99c0.1-0.53,0.1-1.07,0.1-1.61
			c0-5.01,0-10.03,0-15.05c0-0.5,0.01-1-0.08-1.5c-0.15-0.8-0.44-1.09-1.25-1.22c-0.16-0.03-0.33-0.05-0.49-0.07
			c-0.32-0.03-0.46-0.24-0.34-0.53c0.05-0.15,0.17-0.08,0.25-0.08c0.8,0.01,1.59,0.03,2.39,0.05c2.8,0.07,5.6-0.1,8.41-0.03
			c1.63,0.04,3.23,0.24,4.73,0.92c1.04,0.47,1.95,1.12,2.46,2.18c0.73,1.51,0.46,2.93-0.55,4.21c-1.18,1.5-2.82,2.26-4.63,2.7
			C125.98,410.38,125.51,410.45,125.03,410.55L125.03,410.55z M121.84,415.48c0,1.08,0,2.16,0,3.24c0,0.5,0,1,0.1,1.5
			c0.1,0.5,0.32,0.91,0.85,1.03c1.53,0.36,3.1-0.01,3.77-1.74c0.72-1.83,0.79-3.74,0.3-5.63c-0.32-1.25-1.13-2.14-2.37-2.58
			c-0.75-0.26-1.53-0.31-2.31-0.33c-0.28-0.01-0.34,0.08-0.34,0.34C121.84,412.7,121.83,414.09,121.84,415.48L121.84,415.48z
			 M121.86,406.29c0,0-0.01,0-0.02,0c0,1.29,0,2.57,0,3.86c0,0.12-0.08,0.31,0.16,0.31c0.54,0,1.08,0.04,1.61-0.13
			c1.03-0.33,1.46-1.16,1.71-2.11c0.44-1.61,0.41-3.25,0.2-4.9c-0.07-0.56-0.21-1.11-0.49-1.61c-0.41-0.74-1.14-1.03-2.13-0.85
			c-0.65,0.12-0.9,0.45-1.02,1.38c-0.02,0.14-0.03,0.28-0.03,0.42c0,1.21,0,2.42,0,3.62V406.29z"/>
		<path class="st0" d="M181.99,422.07c-1.87-0.08-3.73-0.06-5.59,0c-0.16,0-0.37,0.08-0.35-0.23c0.01-0.23,0-0.38,0.32-0.41
			c1.55-0.16,1.82-0.44,1.85-2.01c0.04-2.15,0.03-4.3,0.03-6.44c0-3.28,0-6.56-0.01-9.84c0-0.36-0.02-0.72-0.09-1.07
			c-0.14-0.7-0.47-1.03-1.17-1.13c-0.19-0.03-0.38-0.08-0.57-0.07c-0.3,0.01-0.36-0.12-0.36-0.39c0-0.32,0.2-0.24,0.36-0.23
			c3.26,0.12,6.53,0.05,9.8,0c1.9-0.02,3.78,0.16,5.56,0.86c1.74,0.68,3.1,1.78,3.65,3.64c0.72,2.41-0.33,5.2-2.48,6.66
			c-1.53,1.05-3.26,1.54-5.08,1.72c-1,0.1-2,0.12-3,0.11c-0.23,0-0.33,0.04-0.33,0.31c0.01,1.79,0.01,3.58,0.02,5.36
			c0,0.24,0.03,0.49,0.07,0.73c0.17,1.09,0.64,1.54,1.74,1.66c0.44,0.05,0.87,0.09,1.31,0.07c0.38-0.02,0.27,0.21,0.3,0.42
			c0.03,0.27-0.08,0.31-0.32,0.31C185.74,422.07,183.86,422.08,181.99,422.07L181.99,422.07z M184.53,407.42c0,0-0.01,0-0.01,0
			c0,1.41,0,2.83,0,4.24c0,0.67,0.34,0.98,1.01,0.95c1.65-0.08,2.53-0.72,3.08-2.26c0.51-1.46,0.59-2.97,0.53-4.49
			c-0.05-1.17-0.14-2.33-0.59-3.43c-0.57-1.4-1.69-1.76-3.04-1.54c-0.44,0.07-0.71,0.34-0.83,0.76c-0.1,0.34-0.15,0.7-0.15,1.07
			C184.54,404.28,184.54,405.84,184.53,407.42L184.53,407.42z"/>
		<path class="st0" d="M162.14,412.04c-0.03,0.68-0.44,1.18-0.81,1.7c-0.18,0.25-0.59,0.4-0.54,0.68c0.04,0.25,0.36,0.45,0.55,0.68
			c0.23,0.26,0.47,0.51,0.68,0.79c0.16,0.2,0.25,0.23,0.46,0.04c0.59-0.55,1.03-1.2,1.46-1.88c0.16,0.01,0.23,0.15,0.33,0.25
			c3.81,3.81,7.62,7.62,11.44,11.42c0.27,0.27,0.26,0.44-0.01,0.67c-0.29,0.25-0.54,0.55-0.83,0.81c-0.18,0.17-0.2,0.3-0.01,0.47
			c0.32,0.3,0.61,0.63,0.94,0.92c0.23,0.21,0.08,0.32-0.06,0.46c-0.14,0.15-0.26,0.27-0.46,0.05c-0.31-0.34-0.66-0.66-0.98-0.99
			c-0.12-0.13-0.21-0.15-0.34-0.01c-0.16,0.18-0.36,0.33-0.51,0.53c-0.22,0.29-0.37,0.22-0.6-0.01
			c-5.49-5.5-10.98-10.99-16.47-16.48c-0.12-0.12-0.25-0.22-0.37-0.33c0-1.74,0-3.49,0.01-5.23c0-0.12-0.02-0.23,0.18-0.21
			c1.27,0.18,2.47,0.53,3.58,1.2c0.02,0.01,0.03,0.04,0.05,0.06c-0.23,0.34-0.54,0.62-0.86,0.86c-0.23,0.18-0.21,0.29-0.02,0.47
			c0.98,0.96,1.94,1.93,2.91,2.9C161.94,411.94,162.01,412.05,162.14,412.04L162.14,412.04z"/>
		<path class="st0" d="M161.66,405.95c-0.73-0.44-1.45-0.9-2.25-1.2c-0.5-0.19-1.01-0.34-1.51-0.51c0-0.18,0.16-0.26,0.26-0.36
			c1.48-1.44,2.97-2.87,4.45-4.3c0.63-0.6,1.17-1.29,1.63-2.04c0.05-0.07,0.07-0.17,0.19-0.16c0,0.56-0.11,1.09-0.32,1.61
			c-0.44,1.14-1.23,2-2.18,2.73c-0.2,0.15-0.22,0.25-0.08,0.46c0.34,0.5,0.66,1.01,0.98,1.52c0.1,0.16,0.17,0.17,0.32,0.06
			c0.4-0.3,0.79-0.62,1.15-0.97c1.5-1.46,2.43-3.2,2.48-5.33c0.04-1.62-0.47-3.08-1.38-4.4c0.07,0,0.12-0.03,0.15-0.1
			c0.55-1.29,1.59-2.11,2.73-2.84c0.44-0.28,0.92-0.51,1.41-0.71c0.08-0.03,0.17-0.07,0.25-0.09c0.22-0.06,0.49-0.14,0.65,0.05
			c0.17,0.2,0.03,0.44-0.09,0.64c-0.55,0.93-1.09,1.87-1.65,2.78c-0.18,0.29-0.2,0.55-0.01,0.83c0.84,1.26,1.95,2.02,3.54,1.91
			c0.4-0.03,0.71-0.23,0.9-0.57c0.44-0.77,0.85-1.55,1.28-2.33c0.04-0.07,0.07-0.14,0.11-0.2c0.1-0.14,0.2-0.33,0.42-0.29
			c0.2,0.04,0.24,0.22,0.27,0.38c0.27,1.23,0.21,2.44-0.13,3.65c-0.31,1.11-0.88,2.02-1.88,2.63c-0.61,0.36-1.29,0.47-1.98,0.59
			c-2.18,0.38-4.09,1.31-5.7,2.84c-1.27,1.21-2.56,2.41-3.85,3.62C161.77,405.89,161.71,405.92,161.66,405.95L161.66,405.95z"/>
		<path class="st0" d="M146.41,415.12c0.83,1.01,1.87,1.74,3.01,2.37c-0.14,0.29-0.42,0.44-0.64,0.64
			c-1.25,1.19-2.48,2.39-3.74,3.56c-0.95,0.88-1.91,1.76-2.7,2.79c-0.51,0.66-0.86,1.39-1.15,2.17c-0.28,0.73-0.64,1.42-1.17,2.02
			c-1.14,1.29-3.74,1.65-5.2,0.28c-0.81-0.76-1.2-1.7-1.14-2.83c0.07-1.43,0.7-2.5,1.96-3.17c0.51-0.27,1.06-0.46,1.61-0.63
			c1.78-0.56,3.29-1.53,4.62-2.82c1.32-1.27,2.65-2.54,3.97-3.82C146.02,415.49,146.26,415.36,146.41,415.12L146.41,415.12z
			 M137.37,423.54c-1.66-0.1-2.75,1.24-2.82,2.39c-0.11,1.87,1.06,3.04,2.64,3.08c1.68,0.05,2.85-1.11,2.86-2.83
			C140.06,424.87,138.96,423.5,137.37,423.54L137.37,423.54z"/>
		<path class="st0" d="M146.17,389.47c0.1-0.02,0.2-0.04,0.29-0.06c0.18,0.46,0.28,0.9-0.08,1.33c-0.05,0.07-0.06,0.16-0.09,0.25
			c-0.75,0.64-1.47,1.31-2.04,2.12c-1.11,1.6-1.57,3.35-1.27,5.28c0.01,0.07,0,0.15,0,0.23c-0.44-0.22-0.7-0.62-1.04-0.95
			c-0.76-0.73-0.75-0.75-1.51,0.01c-2.03,2.03-4.06,4.06-6.09,6.08c-0.09,0.09-0.17,0.25-0.29,0.23c-0.16-0.04-0.12-0.24-0.14-0.36
			c-0.1-0.4-0.16-0.81-0.23-1.2c-0.05-0.23,0.01-0.43,0.14-0.62c1.19-1.94,2.37-3.88,3.56-5.81c0.07-0.11,0.16-0.2,0.25-0.29
			c1.51-1.52,3.04-3.03,4.54-4.56c0.26-0.26,0.42-0.25,0.64,0.01c0.21,0.25,0.47,0.47,0.71,0.72c0.08,0.08,0.17,0.17,0.29,0.05
			c0.77-0.81,1.62-1.54,2.34-2.4c0.01-0.01,0.01-0.03,0.01-0.04L146.17,389.47z"/>
		<path class="st0" d="M147.1,404.17c1.15,0.65,2.35,1.2,3.63,1.54c0.86,0.23,1.73,0.38,2.61,0.47c0.19,0.02,0.34,0.02,0.34,0.29
			c-0.01,2.37-0.01,4.75-0.02,7.12c-0.56,0.38-0.99,0.92-1.49,1.37c-0.28,0.25-0.53,0.54-0.87,0.72c-0.42-0.06-0.79-0.27-1.15-0.47
			c-0.8-0.45-1.52-0.99-2.03-1.78c0.12,0,0.18-0.08,0.25-0.16c0.97-0.94,1.93-1.88,2.91-2.81c0.18-0.18,0.24-0.31,0.12-0.56
			c-0.12-0.26-0.13-0.57,0.05-0.81c0.18-0.25,0.08-0.38-0.1-0.55c-1.34-1.33-2.68-2.67-4.01-4.01c-0.1-0.1-0.27-0.18-0.25-0.36
			L147.1,404.17z"/>
		<path class="st0" d="M165.39,393.05c0.91,1.33,1.42,2.78,1.38,4.4c-0.05,2.13-0.98,3.87-2.48,5.33c-0.36,0.35-0.75,0.67-1.15,0.97
			c-0.15,0.11-0.22,0.1-0.32-0.06c-0.31-0.51-0.64-1.03-0.98-1.52c-0.14-0.2-0.11-0.31,0.08-0.46c0.96-0.73,1.74-1.59,2.18-2.73
			c0.2-0.52,0.32-1.05,0.32-1.61c0-1.89-0.96-3.26-2.35-4.39c-0.25-0.2-0.28-0.31-0.08-0.56c0.34-0.43,0.66-0.88,0.97-1.35
			c0.15-0.22,0.25-0.21,0.44-0.06C164.16,391.6,164.82,392.29,165.39,393.05L165.39,393.05z"/>
		<path class="st0" d="M143.87,400.91c0.59,0.99,1.38,1.79,2.22,2.56c-0.19,0.28-0.42,0.51-0.71,0.69
			c-1.91,1.18-3.82,2.36-5.73,3.54c-0.18,0.11-0.36,0.14-0.55,0.1c-0.47-0.09-0.95-0.21-1.43-0.29c-0.27-0.05-0.22-0.14-0.07-0.28
			c0.06-0.05,0.11-0.11,0.16-0.16c1.94-1.94,3.89-3.89,5.84-5.84C143.7,401.14,143.79,401.03,143.87,400.91L143.87,400.91z"/>
		<path class="st0" d="M150.59,430.04c0.1,0,0.21,0,0.31,0c0.44-0.02,0.92-0.14,0.99,0.56c0.01,0.15,0.19,0.31,0.33,0.42
			c0.27,0.19,0.2,0.34,0.03,0.55c-0.34,0.45-0.66,0.91-1,1.37c-0.07,0.09-0.11,0.24-0.29,0.1c-0.86-0.7-1.46-1.54-1.57-2.68
			c-0.02-0.2,0.02-0.28,0.23-0.27c0.32,0.01,0.64,0,0.96,0L150.59,430.04L150.59,430.04z"/>
		<path class="st0" d="M147.78,392.52c0,0,0.05-0.02,0.07-0.03c0.49-0.26,1.02-0.32,1.58-0.19c-0.01,0.15-0.14,0.21-0.22,0.29
			c-0.74,0.75-1.48,1.5-2.23,2.23c-0.14,0.14-0.23,0.24-0.04,0.43c2.21,2.2,4.41,4.4,6.62,6.61c0.03,0.03,0.07,0.04,0.1,0.06
			c0,0.57,0,1.13,0.01,1.7c0,0.18-0.04,0.25-0.23,0.23c-2.37-0.29-4.55-1.03-6.34-2.68c-1.08-1-1.79-2.21-1.84-3.73
			c-0.06-1.76,0.81-3.08,2.05-4.21c0.13-0.12,0.27-0.25,0.42-0.34C147.92,392.77,147.88,392.66,147.78,392.52L147.78,392.52z"/>
		<path class="st0" d="M162.36,362.35c0,0-0.07-0.03-0.04-0.07c0.01-0.01,0.06,0,0.09,0.01
			C162.4,362.31,162.38,362.33,162.36,362.35z"/>
	</g>
</g>
</svg>
