<?xml version="1.0" encoding="UTF-8"?>
<svg id="a" data-name="Layer 1" xmlns="http://www.w3.org/2000/svg" viewBox="0 0 1214.018 258.258">
  <g id="b" data-name="wB5nIP.tif">
    <g>
      <g>
        <path d="M1130.207,17.63c106.681-.788,105.391,202.364,30.683,233.125-139.108,57.278-160.425-232.167-30.683-233.125ZM1120.352,47.799c-22.78,4.679-33.421,40.781-36.347,60.476-4.971,33.451-2.635,123.836,48.234,120.253,28.756-2.025,40.399-43.682,42.313-67.036,2.917-35.593,2.788-125.397-54.2-113.693Z"/>
        <path d="M999.12,18.519v28.807c-39.031-.43-78.145,14.683-97.401,50.034-3.126,5.739-8.276,16.215-6.856,21.973,48.067-42.67,125.597-17.027,128.995,50.455,5.641,112.049-167.985,123.218-171.393-8.155-2.244-86.501,60.652-146.727,146.655-143.114ZM928.392,128.062c-15.393,2.614-37.86,21.501-38.537,37.73-1.068,25.597,15.113,57.912,42.665,62.097,69.281,10.525,73.061-112.938-4.129-99.827Z"/>
      </g>
      <g>
        <g>
          <rect x="567.682" width="37.157" height="253.088"/>
          <rect x="654.382" width="37.157" height="253.088"/>
        </g>
        <g>
          <path d="M0,16.461c9.014-.94,18.974-3.363,27.89-4.094,50.858-4.166,136.958-1.106,124.374,72.53-3.061,17.915-22,29.855-34.594,40.593,43.948,11.942,58.529,62.706,31.85,98.65-29.091,39.193-106.519,31.219-149.52,28.948V16.461ZM37.157,41.153v68.931c6.06,4.933,19.712,3.615,27.842,3.062,22.964-1.562,50.761-10.784,50.768-38.042.01-38.223-51.268-38.211-78.61-33.951ZM37.157,143.005v80.248l3.096,3.086h37.157c12.211,0,35.085-11.49,41.047-22.847,21.89-41.703-20.11-61.675-55.413-63.659-4.969-.279-24.478-1.379-25.887,3.172Z"/>
          <path d="M350.93,174.899h-125.922c3.471,58.928,68.173,61.913,111.45,43.211l6.217,28.789c-68.769,23.285-154.622,9.108-154.046-78.854.833-127.285,183.061-121.716,162.302,6.854ZM227.073,148.149h85.668c6.179,0,.657-16.498-.651-19.927-17.488-45.839-84.767-25.296-85.018,19.927Z"/>
          <path d="M522.267,253.088h-35.093l-2.089-16.456c-36.773,35.292-116.282,25.169-111.42-35.991,2.739-34.458,45.804-58.665,77.384-58.665h29.932c3.095-28.325-18.004-40.905-44.132-38.843-14.927,1.178-28.304,8.445-42.487,12.037l-8.306-24.536c32.344-16.103,87.677-24.848,115.652,2.904,32.124,31.869,11.705,117.686,20.559,159.55ZM483.045,166.668c-23.722-.43-71.867,3.882-71.868,36.009-.001,34.056,48.99,33.039,65.346,7.902,1.176-1.808,6.523-13.163,6.523-14.075v-29.836Z"/>
        </g>
      </g>
      <path d="M838.095,8.242l-23.685,86.453-38.229,4.06c7.093-31.068,21.362-59.87,35.412-88.135l26.502-2.378Z"/>
    </g>
  </g>
</svg>