<svg xmlns="http://www.w3.org/2000/svg" fill="none" viewBox="0 0 381 66" height="66" width="381">
<g clip-path="url(#clip0_653_3409)">
<path fill="#B2B2B2" d="M42.2628 15.5579L29.6216 34.8958L35.9128 46.8004L55.9858 37.3735L67.7804 17.1598L60.4544 7.17969L42.2628 15.5579Z"></path>
<path fill="#0076BB" d="M18.4858 8.06705L4.90381 26.6443L9.57224 38.0304L29.0103 28.9953L41.922 9.59979L36.1482 0L18.4858 8.06705Z"></path>
<path fill="#00A7E0" d="M0 45.5907L4.62139 60.5723L26.6818 50.0736L41.7454 25.9416L35.6541 13.4492L15.8515 22.6802L0 45.5907Z"></path>
<path fill="#81C9EC" d="M39.0643 20.4561L29.6216 34.8961L32.6202 40.5661L41.7336 25.9416L39.0643 20.4561Z"></path>
<path fill="#379BD6" d="M29.01 28.9956L37.218 16.6645L35.654 13.4492L15.8514 22.6802L7.96094 34.0893L9.57196 38.0307L29.01 28.9956Z"></path>
<path fill="#0076BB" d="M139.947 43.7697C142.863 41.7644 144.486 38.6874 144.486 35.6219C144.486 29.7445 141.405 25.1348 132.233 25.1348H117.439V64.6403H133.373C142.063 64.6403 146.167 59.4313 146.167 53.7613C146.167 49.5318 143.898 45.821 139.958 43.7581L139.947 43.7697ZM127.047 32.7639H129.904C134.549 32.7639 135.901 34.2966 135.901 36.9933C135.901 39.69 133.738 41.2804 129.751 41.2804H127.047V32.7639ZM130.386 57.2071H127.035V47.7917H130.269C134.373 47.7917 136.478 49.382 136.478 52.6088C136.478 55.3632 135.125 57.2071 130.375 57.2071H130.386Z"></path>
<path fill="#0076BB" d="M112.747 25.1348H103.14V64.6403H112.747V25.1348Z"></path>
<path fill="#0076BB" d="M97.4019 33.5591L100.624 25.1348H73.0249V64.6403H82.6322V47.9991H95.7556V40.3123H82.6322V33.5591H97.4019Z"></path>
<path fill="#0076BB" d="M192.546 56.4119V48.3794H205.857V40.8079H192.546V33.5591H207.257L210.479 25.1348H182.927V64.6403H208.691V56.4119H192.546Z"></path>
<path fill="#98989A" d="M338.314 33.4784L341.654 25.1348H326.343C320.71 25.1348 317.112 29.9865 316.936 33.9163C316.759 37.9499 318.241 40.3123 321.134 42.6864C323.25 44.4265 330.894 50.3846 332.117 51.4679C334.033 53.162 333.222 55.9048 330.623 55.9048C326.284 55.9048 318.982 55.9509 318.982 55.9509L306.752 25.1348H297.133L281.646 64.6403H291.641L293.805 58.613H309.892L312.055 64.6403H331.493C336.585 64.6403 343.194 60.9409 343.194 53.8535C343.194 50.0504 342.112 47.4805 339.384 45.1641C338.326 44.2652 330.035 37.9383 328.624 36.7974C327.154 35.6104 327.613 33.4784 329.518 33.4784H338.314ZM296.545 51.2144L301.895 36.7744L307.187 51.2144H296.545Z"></path>
<path fill="#98989A" d="M369.946 25.1348H345.193L341.818 33.4784H348.862V64.6403H358.469V33.4784H369.946V25.1348Z"></path>
<path fill="#98989A" d="M267.405 56.1007V25.1348H257.786L257.798 64.6403H278.13L281.399 56.1007H267.405Z"></path>
<path fill="#98989A" d="M235.855 49.7968H244.193C242.84 54.1415 238.901 57.3683 233.986 57.3683C232.869 57.3683 231.798 57.2185 230.775 56.9649C225.237 55.6051 221.297 50.7764 221.297 44.9335C221.297 38.1111 226.801 32.6024 233.986 32.6024C236.02 32.6024 237.984 33.0634 239.748 33.9162C240.9 34.4809 242.711 35.7947 243.769 36.901L247.215 27.9812C243.605 25.5265 238.913 23.9707 233.986 23.9707C221.403 23.9707 211.631 33.34 211.631 44.922C211.631 56.5616 221.403 65.977 233.986 65.977C234.527 65.977 235.044 65.9424 235.573 65.8963C246.251 65.0781 254.4 56.1582 254.4 44.8644V42.2138H238.76L235.855 49.7853V49.7968Z"></path>
<path fill="#0076BB" d="M178.988 38.6413C178.988 28.1657 170.403 25.1348 161.384 25.1348H149.295V64.6403H158.903V47.4574L169.098 64.6403H180.293L171.462 49.6816C175.777 47.5381 178.976 43.8849 178.976 38.6298L178.988 38.6413ZM164.724 44.0117C162.654 44.0117 160.467 43.9886 158.914 43.9656V33.6052H164.1C167.381 33.6052 169.486 35.3453 169.486 38.7911C169.486 41.338 167.546 44.0117 164.724 44.0117Z"></path>
<path fill="#98989A" d="M377.143 25.1348C379.271 25.1348 381 26.8288 381 28.9148C381 31.0007 379.271 32.6947 377.143 32.6947C375.014 32.6947 373.286 31.0007 373.286 28.9148C373.286 26.8288 375.014 25.1348 377.143 25.1348ZM380.059 28.9148C380.059 27.2783 378.754 25.953 377.143 25.953C375.532 25.953 374.226 27.2783 374.226 28.9148C374.226 30.5512 375.532 31.8765 377.143 31.8765C378.754 31.8765 380.059 30.5512 380.059 28.9148ZM376.907 29.249H376.249V31.0698H375.485V26.7482H377.201C378.295 26.7482 378.86 27.117 378.86 27.9928C378.86 28.7765 378.354 29.0991 377.731 29.2144L378.942 31.0698H378.048L376.931 29.249H376.907ZM377.037 28.6266C377.59 28.6266 378.072 28.5806 378.072 27.9698C378.072 27.4742 377.531 27.3935 377.096 27.3935H376.249V28.6266H377.037Z"></path>
</g>
<defs>
<clipPath id="clip0_653_3409">
<rect fill="white" height="66" width="381"></rect>
</clipPath>
</defs>
</svg>
