<svg width="100" height="100" viewBox="0 0 100 100" fill="none" xmlns="http://www.w3.org/2000/svg">
<path d="M80.0722 45.8761V34.2241H45.9282C45.9282 42.1521 39.5042 48.5761 31.5762 48.5761V77.4241H50.4122V63.2761H72.3362L77.3082 51.2761H50.4122V45.8761H80.0722Z" fill="#231F20"/>
<path d="M43.2322 34.2241C43.2322 31.0441 41.9722 28.0681 39.6882 25.8521C38.8282 25.0201 37.8602 24.3321 36.7922 23.7961C35.1722 22.9801 33.4162 22.5681 31.5802 22.5681C25.1562 22.5681 19.9282 27.7961 19.9282 34.2201C19.9282 40.6441 25.1562 45.8721 31.5802 45.8721C38.0042 45.8721 43.2322 40.6441 43.2322 34.2201V34.2241Z" fill="#231F20"/>
</svg>
