<?xml version="1.0" encoding="UTF-8"?>
<svg id="a" data-name="Layer 1" xmlns="http://www.w3.org/2000/svg" viewBox="0 0 3462.104 334.842">
  <g>
    <path d="M721.134,298.445l-48.441.331-59.941-212.386c-2.628,18.024-1.707,33.309-1.727,50.475l-.186,161.792-42.059.266.267-293.835,59.274-.245,50.845,175.834.901-175.707,41.1-.359-.033,293.833Z"/>
    <path d="M1093.113,298.862l-46.696.013c-3.589-9.324-5.955-19.302-6.026-29.386l-.433-62.171c-.093-13.401-10.09-27.206-23.532-27.485l-25.754-.534.131,119.284-47.248-.194.216-293.387,89.317.864c28.852.279,49.173,21.171,52.885,48.709l-.237,55.164c-.085,19.779-12.239,36.451-30.367,46.031,24.766,10.058,29.039,30.486,31.516,55.688l-.299,66.56,6.526,20.843ZM1039.306,113.634l.092-46.962c.023-11.958-10.17-20.607-21.723-20.808l-27.067-.472.038,93.118,25-.621c12.407-.308,23.634-10.453,23.661-24.254Z"/>
    <path d="M528.644,299.001l-45.826-.28c-4.358-7.878-7.242-18.229-7.365-28.079l-.817-65.546c-.127-10.157-7.578-22.962-17.567-24.797-9.909-1.82-19.353-1.496-30.44-1.1l.337,119.203-46.686.325-.028-293.388,68.916-.447,31.892,3.288c21.527,5.125,35.423,20.544,39.803,42.296,2.619,41.272,8.375,87.358-29.619,105.058,52.509,22.295,18.356,92.049,37.399,143.467ZM475.486,110.729l-.238-42.515c-.071-12.674-9.812-22.628-22.33-22.585l-26.237.09-.235,91.799,30.907-1.212c10.608-.416,18.194-14.595,18.133-25.577Z"/>
    <polygon points="1368.352 297.874 1320.373 299.031 1320.398 170.977 1264.482 170.956 1264.411 298.395 1216.684 298.847 1217.011 158.132 1216.943 5.148 1264.384 4.649 1264.356 130.16 1320.399 130.157 1320.303 5.202 1368.013 4.535 1368.352 297.874"/>
    <path d="M97.255,239.623l.792-60.583-22.271-.423-.086-43.294,65.344-.181c-.127,36.066,1.555,72.108-.895,107.811-2.489,36.266-30.957,59.006-65.693,58.779-20.054-.131-39.992-1.588-55.033-16.401C8.514,274.598-.002,257.484,0,240.85L.025,64.445c.003-19.072,8.849-38.039,22.585-49.729C39.411.417,61.118-1.236,82.068.621c52.656,4.669,63.086,51.964,59.076,101.388l-43.539.22-1.206-40.901c-.38-12.871-12.437-19.42-24.152-19.677-15.312-.336-26.207,10.699-26.198,26.966l.094,168.258c.009,15.854,11.774,24.81,26.199,24.729,11.894-.066,24.724-7.35,24.916-21.981Z"/>
    <path d="M1691.274,246.081l-60.14-.119-8.984,52.241-42.243.145L1628.967,5.388l69.049-.693,49.098,293.913-47.668.032-8.171-52.559ZM1685.575,206.229l-24.584-146.316-23.601,147.452,48.186-1.136Z"/>
    <path d="M286.554,245.935l-60.367.237-8.791,52.268-42.886.089,11.144-61.505L224.589,5.107l68.018-.404,50.004,293.632-47.445.566-8.612-52.965ZM280.804,207.028l-25.041-147.238-23.956,147.06,48.997.178Z"/>
    <polygon points="1531.425 169.237 1465.068 169.236 1465.6 257.351 1549.394 257.488 1549.859 298.623 1418.484 298.741 1418.629 5.066 1549.466 4.758 1549.242 45.774 1465.097 45.622 1465.341 128.208 1531.29 127.966 1531.425 169.237"/>
    <polygon points="882.7 169.347 816.958 169.414 817.044 257.464 900.706 257.263 900.772 298.466 769.929 298.65 770.063 5.2 900.806 4.753 900.652 45.572 817.036 45.558 817.187 128.346 882.624 127.987 882.7 169.347"/>
    <polygon points="1857.558 298.24 1810.479 298.534 1810.507 45.928 1761.588 46.182 1761.747 5.1 1905.892 4.706 1905.951 46.016 1856.998 45.732 1857.558 298.24"/>
  </g>
  <g>
    <polygon points="3198.376 295.505 3151.049 295.937 3092.149 83.574 3091.239 295.785 3050.989 295.788 3051.018 8.948 3108.385 9.271 3157.386 178.766 3158.253 9.208 3198.329 9.04 3198.376 295.505"/>
    <path d="M2283.403,295.835l-44.632-.04c-2.07-4.201-5.799-12.49-5.85-17.145l-.804-72.172c-.132-11.89-8.178-26.824-20.122-27.414l-27.479-1.356.028,118.11-44.685-.092.416-286.607,84.343.931c28.444.314,47.776,20.732,51.114,48.379,1.876,39.15,6.145,80.682-31.073,97.068,21.836,7.678,31.567,30.76,31.701,52.578l.393,63.907c.045,7.346,2.981,14.475,6.65,23.854ZM2231.403,113.503l-.537-45.171c-.143-12.026-10.822-19.993-21.984-19.985l-24.403.018.058,90.188,28.353-.861c10.266-.312,18.642-13.35,18.513-24.189Z"/>
    <path d="M2588.192,243.36l-58.065.238-8.875,52.154-41.316-.049,47.751-286.321,66.344-.56,47.954,286.325-45.813.932-7.981-52.719ZM2582.528,205.096l-24.052-142.974-22.996,144.013,47.048-1.039Z"/>
    <path d="M3308.617,258.056c15.034,1.016,26.218-7.934,26.248-22.293l.098-46.429,41.712-.171-1.586,55.557c-3.784,35.814-31.771,54.041-65.539,54.479-37.091.481-66.752-23.033-66.78-62.152l-.121-167.485c-.018-25.324,13.072-49.071,36.025-58.637,19.816-8.258,42.258-7.413,62.159-.355,34.582,12.264,38.207,55.12,36.278,91.627l-41.363.266-.176-32.051c-.086-15.7-9.108-25.372-23.094-25.941-14.368-.585-25.738,9.648-25.715,25.918l.233,165.926c.018,12.965,9.776,20.94,21.62,21.74Z"/>
    <polygon points="2431.241 168.662 2368.811 168.933 2368.771 256.257 2448.039 255.958 2448.661 295.669 2322.837 295.855 2322.644 9.239 2448.873 8.813 2448.864 49.011 2368.76 48.444 2368.764 129.492 2431.224 129.093 2431.241 168.662"/>
    <polygon points="2744.708 295.509 2699.769 295.829 2699.897 48.701 2651.996 49.59 2651.992 9.079 2791.272 8.793 2790.882 48.822 2744.52 48.789 2744.708 295.509"/>
    <polygon points="2058.328 294.604 2012.803 295.78 2013.381 48.759 1965.256 48.797 1965.451 9.047 2105.773 8.967 2105.696 48.647 2057.824 48.64 2058.328 294.604"/>
    <rect x="2838.549" y="129.429" width="286.877" height="45.742" transform="translate(2828.233 3134.214) rotate(-89.972)"/>
    <path d="M2828.064,333.807l-26.483,1.035,17.656-38.838-13.925-1.396-.042-43.536,42.029-.396-.792,40.594c-.292,14.979-12.092,27.107-18.443,42.537Z"/>
    <rect x="3418.85" y="253.569" width="43.135" height="42.309" transform="translate(-1.49 19.339) rotate(-.322)"/>
  </g>
</svg>