<?xml version="1.0" encoding="UTF-8"?>
<svg id="a" data-name="Layer 1" xmlns="http://www.w3.org/2000/svg" viewBox="0 0 998.65 1110.313">
  <g>
    <path d="M661.304,247.677c9.679-3.336,19.339-6.708,28.979-10.116,5.371-1.48,11.183-2.41,16.779-2.025,89.083,20.532,178.121,41.907,267.115,64.124,9.825,5.055,17.834,12.607,21.999,22.978,1.34,3.918,2.165,7.983,2.476,12.196l-.021,192.212c-.382,4.572-1.201,9.065-2.459,13.48-4.31,9.344-10.803,18.263-20.693,23.126l-7.504,3.69c-9.122,2.105-19.334,2.723-27.628-2.275-2.685-1.038-6.081-2.669-9.604-5.266-5.331-3.928-8.644-8.363-10.55-11.41h0c-1.278-2.326-2.706-5.422-3.785-9.222-1.082-3.812-1.491-7.208-1.624-9.864l-.238-155.403c-.104-6.7-1.612-13.208-3.839-19.49-4.213-9.591-15.062-20.475-24.533-21.767-8.87-3.246-18.999-3.03-28.016-.053-6.515.858-11.948,5.317-16.938,10.035l-18.991,17.955-17.994,16.991-17.992,16.987-17.992,16.987-17.992,16.987-17.992,16.987-17.992,16.987-17.992,16.987-17.992,16.988-17.992,16.987-17.991,16.988-17.99,16.99-18.001,16.98-17.99,16.988-17.993,16.993-18.989,17.972-17.993,16.993-17.992,16.987-17.993,16.985-17.401,16.49-10.734,9.671c-7.804,4.558-17.32,4.363-24.622-1.096l-7.345-7.901c-1.521-2.904-2.239-6.231-2.359-9.495l.089-265.212c.225-4.859,1.461-9.675,3.368-14.157,5.04-9,12.051-14.489,20.656-20.651l149.412-106.983c3.908-2.798,7.626-3.855,11.799-5.497l12.055-4.745"/>
    <path d="M437.494,8.976c1.158,1.878,2.242,3.862,2.389,6.153l-.006,285.224c-.208,2.408-1.244,4.613-2.605,6.592l-57.042,57.826c-17.615,17.378-35.349,34.677-53.202,51.897l-85.339,84.857-3.456,3.231c-6.265,4.804-16.052,4.502-21.883-.803l-142.189-126.794-20.921-17.68c-4.611-5.967-7.051-13.521-3.784-20.744,4.008-6.38,9.764-10.721,15.291-15.945l11.817-11.169,13-11.976,12.99-11.994,12.992-12.003,14-12.964,12.993-12.001,12.991-12.005,14-12.964,12.993-12,12.992-12.004,13.988-12.975,13.004-11.992,12.99-11.996,12.992-12.003,13.999-12.965,12.993-12.001,12.991-12.005,14-12.964,12.993-12,12.992-12.004,13.987-12.976,13.004-11.992,12.989-11.997,12.989-12.005,13.994-12.98,12.316-11.586c9.188-8.643,22.679-6.121,29.757,3.704Z"/>
  </g>
  <path d="M33.612,404.54l17.957,17.004,17.988,16.991,17.991,16.988,17.991,16.988,17.992,16.987,17.992,16.987,17.991,16.988,17.993,16.993,18.99,17.972,17.993,16.993,17.999,16.982,17.991,16.99,17.991,16.988,17.992,16.987,17.992,16.987,17.992,16.988,17.992,16.987,17.992,16.987,17.992,16.986,17.993,16.987,17.981,16.962,14.391,13.615c3.744,3.542,10.232,4.591,14.28,1.062l6.438-5.613,16.893-16.043,17.991-16.98,17.992-16.987,17.99-16.99,18.001-16.98,17.991-16.988,17.991-16.987,17.992-16.994,18.99-17.972,17.993-16.993,17.992-16.987,17.992-16.988,17.992-16.987,17.992-16.947,17.992-16.987,17.992-16.987,17.992-16.947,17.992-16.988,17.992-16.987,17.992-16.948,18-16.968,16.39-15.582,8.91-8.125c.914-.663,4.185-2.862,8.659-2.446,1.078.1,5.548.517,8.203,4.282,1.386,1.966,1.683,4.002,1.759,5.057l-.462,299.952c.216.936.424,2.404.129,4.147-.504,2.974-2.163,4.909-2.901,5.676l-6.286,5.302-18.427,17.465-17.994,16.989-17.992,16.987-17.992,16.987-17.992,16.987-17.991,16.988-17.992,16.987-17.992,16.987-17.992,16.987-17.992,16.987-17.991,16.987-17.992,16.988-17.991,16.988-17.991,16.99-17.999,16.982-17.992,16.987-17.993,16.993-18.989,17.972-17.993,16.994-17.991,16.989-17.988,16.991-17.966,17.002-14.564,14.363-4.613,4.88c-5.732,3.589-11.578,4.566-17.042-.329-3.311-4.63-7.752-8.061-11.827-11.921l-17.946-17-17.988-16.991-17.991-16.989-17.992-16.988-17.992-16.987-17.992-16.987-17.991-16.988-17.992-16.948-17.992-16.987-17.991-16.987-17.994-16.993-18.989-17.973-17.993-16.993-17.99-16.988-18.001-16.98-17.59-16.99-17.992-16.987-17.991-16.988-17.992-16.987-17.993-16.986-17.994-16.985-17.993-16.962-15.164-14.132c-1.324-1.792-2.158-3.848-2.317-6.158-.227-101.506-.1-202.879.379-304.118l.985-2.745c4.16-6.411,12.509-7.387,18.322-2.438"/>
  <line x1="220.436" y1="507.364" x2="220.436" y2="507.364"/>
</svg>