<?xml version="1.0" encoding="UTF-8"?>
<svg id="a" data-name="Layer 1" xmlns="http://www.w3.org/2000/svg" viewBox="0 0 2173.856 1425.67">
  <path d="M1816.376,1202.145c-478.014,349.687-1252.326,288.495-1634.432-179.46C-53.327,723.355-66.915,297.352,179.197,0,9.37,291.535-2.425,621.684,186.167,899.882c105.726,159.601,251.804,275.641,425.488,359.592,391.649,181.884,825.435,148.64,1204.722-57.328Z"/>
  <path d="M1038.8,613.305c122.748,68.436,262.014,56.726,385.206,3.129l-2.866,59.139c-261.209,71.683-650.421,22.687-666.476-231.358-17.863-282.646,371.496-362.076,658.909-292.538l1.946,62.388c-118.059-49.765-240.569-57.57-355.758-8.949-84.38,35.617-139.067,109.379-144.705,194.62-5.531,83.618,39.347,166.515,123.743,213.569Z"/>
  <path d="M2169.947,631.001l3.909,47.055-403.928-2.779c-73.77-.507-121.407-58.425-121.405-125.293l.014-421.507,149.641-.903.542,503.487,371.227-.06Z"/>
  <path d="M688.838,630.975c19.909.004,52.173,33.205,58.492,46.81l-362.383-2.59c-72.162-.516-119.036-59.543-119.067-125.389l-.196-421.205,150.829-1.834-.059,504.159,272.384.049Z"/>
</svg>