<?xml version="1.0" encoding="UTF-8"?>
<svg id="a" data-name="Layer 1" xmlns="http://www.w3.org/2000/svg" viewBox="0 0 1172.262 766.655">
  <defs>
    <style>
      .b {
        fill: #f4f4f3;
      }

      .c {
        fill: #474747;
      }

      .d {
        fill: #d0d0d0;
      }

      .e {
        fill: #030303;
      }

      .f {
        fill: #2f302f;
      }

      .g {
        fill: #e5e5e5;
      }

      .h {
        fill: #575757;
      }

      .i {
        fill: #b5b6b5;
      }

      .j {
        fill: #141414;
      }

      .k {
        fill: #020202;
      }

      .l {
        fill: #8c8c8c;
      }

      .m {
        fill: #0a0a0a;
      }

      .n {
        fill: #6f6f6e;
      }
    </style>
  </defs>
  <path class="b" d="M43.798,244.167c-23.478,42.137-33.866,89.082-29.554,137.354-3.615,2.402-1.07,6.414-1.36,9.135-.889,8.351-.666,15.453,1.312,23.821,1.319,5.58.301,15.099,3.124,21.921,2.211,5.343,2.648,10.666,3.941,16.183.765,3.263,1.992,6.979,2.91,9.988l2.569,8.425,13.123,30.764c1.911,4.481,5.167,8.76,8.175,14.003l8.24,14.36,13.925,20.081c3.536,5.099,7.101,9.222,11.177,13.945l7.757,8.987,11.847,12.416c14.381,15.071,26.978,26.528,43.911,39.143l13.562,10.104,5.215,3.851,21.06,13.941,6.064,3.825c5.283,3.332,10.456,5.981,15.655,9.289,4.184,2.662,9.003,3.772,12.862,7.446l6.449,2.155c2.967,3.301,6.719,3.582,10.181,5.288,5.208,2.566,10.257,4.743,15.668,7.155l12.49,5.568,10.51,3.467c4.234,1.397,7.154,4.018,11.479,5.6l16.587,6.068,11.7,4.637,37.877,10.861,37.087,9.145,18.976,3.955c9.919,2.067,23.682,5.084,31.852,5.025,3.592-.026,6.924,1.72,10.083,2.583,6.378,1.742,12.835.327,18.799,1.57,7.316,1.526,13.813,2.31,21.063,3.076l17.294,1.825,12.942.908,13.06,1.12c7.72.662,14.909,1.53,22.661.069l6.522,1.684,52.45-.315,17.409-.897,15.93-1.1,13.018-.999,10.952-1.003,11.054-.876,22.987-3.001,41.776-6.938,23.437-4.504,11.736-3.313,17.831-4.182,8.629-2.393,34.237-9.693,20.245-6.766,10.258-3.852,16.015-5.625,10.483-5.865,41.168-18.715c5.507-2.503,10.618-3.804,15.872-7.149l10.824-6.891,13.23-6.956c3.594-1.89,6.571-3.378,8.846-7.617.939-1.75,5.4-1.499,6.889-2.738,3.181-2.647,5.46-5.458,9.961-5.986,3.19-4.999,7.835-8.033,13.192-9.68l32.143-27.962,8.871-9.28,8.16-7.592,6.428-6.683,15.596-18.393,6.73-8.397,5.882-8.039,18.363-28.57,6.672-11.918c7.292-13.026,12.777-26.308,17.011-40.327l3.505-11.606c1.3-4.305,1.734-7.921,1.558-12.565l3.404-10.174c-.576-5.368,1.739-9.248,1.88-14.237l.364-12.887c.251-8.887-.521-22.117.72-26.095l-.888-9.398c1.469-3.357-.192-4.513-.519-6.756l-2.156-14.795-1.914-14.052-2.013-8.93c-2.703-11.991-7.052-22.856-12.294-33.748l-3.549-7.375c-1.421-2.954-1.284-6.048-3.045-9.143l-10.139-17.821c-1.444-2.538-2.328-3.721-4.708-5.424-3.902-2.792-5.425-8.207-7.876-12.008l-5.936-9.205c-2.378-3.687-5.586-8.15-8.908-10.593-2.522-1.854-3.394-1.905-4.526-5.218l-7.413-9.128-7.506-8.318c-1.91-2.117-2.533-2.985-4.56-4.818l-12.026-10.88-11.341-10.435-14.366-11.624-13.101-11.846c-4.514-4.081-9.669-6.832-14.302-10.927l-18.716-12.075c-2.572-1.659-4.273-2.425-6.717-4.669-1.978-1.817-6.01-3.277-8.695-4.762l-7.752-4.286-18.338-10.563c-7.94-2.996-14.679-7.391-22.286-10.986-8.576-4.054-17.212-7.344-25.577-12.293l-9.599-2.63-24.775-9.346c-13.705-5.17-26.847-10.111-41.253-13.382-5.273-1.197-10.257-2.872-15.429-4.287l-25.541-6.986-18.199-2.498-21.292-4.104c-3.425-.66-6.087-1.653-9.74-2.321l-29.572-5.403c-1.39-.254-2.213-.761-3.5-.083-.907.478-1.943,1.289-1.646,2.882-96.253-15.078-194.588-14.047-290.564,3.527-54.464,9.973-106.927,25.839-157.451,47.593-4.644,1.999-8.662,3.287-12.799,5.469l-12.916,6.813-24.046,12.634c-1.789-1.654-1.467-5.772.7-5.725,3.812.083,4.218-2.87,6.172-3.96l11.632-6.488c3.366-1.877,7.045-1.822,10.269-5.033,2.236-2.227,7.201-1.986,9.876-3.792,5.233-3.535,10.545-5.3,16.181-7.696l12.665-5.386,7.195-2.549c4.076-1.444,6.435-.701,9.403-4.211.907-1.073,9.999-3.527,17.584-6.329l10.065-3.718c4.431-.295,8.001-.529,11.466-4.24,3.191,1.072,6.407.638,7.907-2.509l24.154-6.793c7.683-2.161,14.786-3.918,22.39-6.626l20.885-3.805,18.685-4.364,24.687-4.443c4.51-.812,9.301-1.339,13.909-1.702,4.027-.317,7.186-1.582,11.109-2.168l14.943-2.233c2.202-.329,5.86.437,8.504.199l21.149-1.908c5.188-.468,10.015-.646,15.259-.99,6.172-.404,12.513-1.401,18.742-1.243,5.254.133,10.018.356,15.158-1.044,2.616-.713,17.21,2.168,22.573.027,1.967-.785,4.663.997,6.091.617,5.564-1.38,13.6.914,18.221.627,9.743-.606,28.283.371,40.191,1.109l11.533.715,6.85,1.751c4.191,1.071,6.242-.707,9.653-.736,4.075-.034,8,2.957,12.81,1.4,5.047-1.634,8.892,4.606,16.834.971,2.64,3.659,6.86,1.808,9.9,2.665,3.69,1.04,6.452,1.241,10.072,1.851l22.057,3.72,24.4,4.642,13.295,2.916,20.569,5.359,9.78,2.188,21.766,6.059c5.511,1.534,14.487,4.436,20.09,6.441l14.167,5.07c3.594,2.289,7.255,3.573,11.714,2.944,4.623,4.64,10.862,4.652,16.376,7.17l22.418,10.238,9.229,4.285c4.7,2.182,10.723,3.659,14.737,6.901,2.624,2.119,3.563,3.225,7.631,2.925,1.999-.148,4.614,3.937,6.468,4.879l9.319,4.734c2.974,1.511,4.599,1.859,6.617,5.029l8.05,3.206c3.118,3.462,6.553,4.768,10.269,7.124l7.281,4.615c4.21,2.669,7.357,6.553,12.964,6.801,1.73,3.878,5.02,5.824,8.477,7.556,1.825,3.474,4.61,4.721,8.094,6.005l7.043,5.695c4.04,1.698,4.925,4.906,8.111,7.215l7.458,5.406,11.059,9.491c4.305,2.115,3.948,4.547,6.455,7.156,4.312,4.489,9.614,7.994,14.04,12.818l10.515,11.461,11.352,12.601,10.428,14.599,16.177,22.036c1.892,2.577,1.863,6.426,4.118,9.623l4.912,6.963,3.812,7.926c1.092,2.27,1.895,4.113,2.823,6.661l4.143,11.376,5.002,10.168c1.316,2.674,1.665,4.478,2.316,6.947l4.354,16.502,4.746,20.323c.764,3.273,2.146,4.943.117,8.325-1.679,2.798.697,6.469,3.27,8.254-1.009,1.845.01,4.948-.219,6.573l-1.284,9.129.13,9.314.075,17.705.121,13.05c.047,5.132-2.105,11.422-1.153,16.57-1.584,2.309-2.535,5.918-3.143,8.823l-4.663,22.274-.483,5.618c-.181,2.107-5.594,16.934-8.19,20.604-2.057,2.907-2.281,4.608-3.711,7.626l-11.113,23.449-3.808,5.363-7.015,12.895-7.355,11.782-15.445,20.317-10.893,12.171-3.676,5.463-7.699,7.983-7.733,7.417-9.833,9.068c-1.273,1.174-4.221,2.128-5.078,3.906-1.189,2.466-3.669,3.319-5.327,4.772l-15.441,13.531-9.575,7.329-15.816,12.183-6.86,3.805-6.75,4.574c-2.77,1.877-5.176,2.878-7.618,5.676-2.188,2.507-7.1,2.944-9.982,4.971-11.153,7.843-23.073,13.429-35.265,19.603-6.249,3.165-11.856,6.09-18.23,8.891l-25.66,11.278-14.789,5.421c-2.977,1.091-4.787,3.908-9.006,4.218-2.423.178-6.165,1.779-8.619,2.687l-8.177,3.024-13.54,4.401-11.604,3.364-8.214,2.953-12.508,3.382-10.393,2.866-8.846,1.78-13.032,2.938-20.48,4.592c-11.63,2.607-23.241,3.926-35.028,6.604l-21.328,2.962-19.551,2.4-11.88.956c-4.163.335-7.137.592-11.303.933l-14.812,1.213-10.129,1.182-18.882,1.007c-6.591.351-12.441.849-19.229-.082l-13.762.617-16.181-.711-25.94-.372-17.978-.888-10.891-1.492-17.106-.6-9.714-1.444c-9.349-1.389-21.363-.682-27.496-3.023-4.01-1.531-6.593-1.658-10.949-1.656-5.489.002-11.028-2.298-16.758-.363-3.631-2.858-7.538-3.847-12.041-3.201l-19.158-4.127c-5.514-1.188-10.543-2.95-16.18-3.711-7.859-1.061-15.144-3.382-22.795-4.988-3.037-.637-5.433-.411-8.74-1.428l-9.752-2.998c-4.152-1.277-7.009-3.164-10.989-4.208l-10.005-2.624-8.245-3.09-20.609-6.327c-3.331-1.023-5.368-2.551-8.64-3.675l-9.445-3.247-11.339-4.658-23.263-9.941c-3.042-1.3-4.835-.916-7.6-3.485l-13.501-6.026c-4.611-3.921-9.302-6.029-14.562-8.677l-11.435-5.758-15.797-9.873c-3.983-2.489-8.028-4.699-11.924-7.399-5.173-3.586-10.495-6.386-15.638-10.201l-4.691-3.479c-8.982-4.533-15.551-12.231-23.175-18.48-2.539-2.081-5.511-3.008-6.858-6.518l-7.089-4.382c-2.161-1.336-3.406-2.261-4.744-4.752l-7.07-6.449c-2.312-2.109-3.977-3.995-5.965-6.206l-11.309-12.58c-2.478-2.757-4.717-4.622-7.278-7.057-2.523-2.399-9.993-13.302-15.285-20.442l-11.443-15.438-7.747-12.235c-2.602-4.11-4.322-7.403-6.437-11.879l-4.088-8.652-4.747-9.305-6.838-15.781-2.44-6.695c-3.592-9.855-5.799-19.808-11.042-29.074l.941-4.783c-3.056-14.409-2.539-26.528-5.826-35.394-1.851-4.993.881-11.18.181-16.104-.705-4.955-.241-8.564.113-13.189.36-4.706-1.568-10.419-.165-15.058,1.512-5,3.375-9.711.378-14.971,1.493-2.376,3.428-5.352,3.094-8.123-1.007-8.344,5.202-22.278,6.775-30.095.744-3.698,1.725-6.249,2.742-9.418,3.778-11.78,7.103-23.156,12.955-34.282l3.321-6.313c.271-3.684.701-4.967,3.127-7.268l6.507-11.257c.853-1.476,3.406,2.397,4.115,3.359Z"/>
  <path class="d" d="M27.511,438.251c7.173,19.419,16.537,37.664,28.231,55.208-3.765,3.184,3.595,9.433,6.943,15.249,4.698,8.16,8.614,16.124,14.916,23.21,1.784,2.006,2.378,5.515,3.225,7.546,8.883,4.462,13.984,16.694,16.28,18.988l17.447,17.435c3.316,3.314,6.436,5.951,9.201,9.91l9.269,7.428c2.518,3.568,5.973,4.819,8.866,7.232l12.016,10.021c3.624,3.022,7.268,5.178,10.933,8.183l8.217,6.736,28.336,18.346,8.046,6.526c4.553-1.224,7.277.59,9.601,4.084,2.287,3.437,7.559,2.56,10.719,4.274l16.402,8.894c8.1,4.392,15.198,6.747,23.752,10.212l6.958,2.819,14.72,7.068,16.994,6.153c2.685.972,3.925,1.005,6.32,1.946l10.57,4.154,32.642,9.41c3.33.96,5.552,1.498,9.358,2.006,3.225.431,6.791,2.732,10.369,3.372l8.493,1.518c4.491.803,8.707,3.167,13.254,3.712l12.421,1.487c2.445.293,3.806.618,6.018,1.04,17.091,3.266,33.792,5.677,51.217,7.896,2.822.359,5.569,1.896,8.829,2.104l22.311,1.429c9.831.63,15.631,4.977,25.894,4.396,4.749-.269,8.802.075,13.577.119l26.894.248,7.65.733,8.164.121,8.663-.235,7.374-.016c1.953-.004,5.551-.328,7.273.09,3.184.772,4.816-.364,7.559-.335l20.82.221c3.076.033,4.638.075,7.506-.848,14.062.716,27.697-2.491,39.653-3.249l11.936-.757c5.372-.34,9.284-2.092,14.31-3.026,3.203-.595,6.127.386,9.735-.396l19.766-4.282,17.052-2.828c4.216-2.221,7.913-.972,12.217-2.089l29.942-7.771c16.119-2.737,30.869-8.498,46.17-13.596,4.209-1.403,7.985-1.989,11.92-4.46l11.35-3.51c3.452-2.589,6.2-4.126,10.37-5.814l10.339-4.186c2.954-1.196,4.811-1.364,7.648-2.604l14.604-6.38,20.749-10.264c3.186-1.576,5.475-2.738,8.729-4.322l11.385-5.543,10.829-6.214,14.488-8.533,6.266-3.646,11.167-7.654,18.602-13.88c3.768-2.812,7.142-5.736,10.869-8.763l13.835-11.238,13.628-12.366,12.444-13.566c22.332-22.811,40.327-48.478,54.803-76.954l10.898-25.116c1.189-2.74,1.497-6.164,3.389-8.599,3.353-4.313,4.044-8.978,5.151-13.985l2.12-9.594,2.809-14.6c.697-3.623,2.172-5.967,1.173-10.046s1.044-8.966,1.203-13.128l.426-11.155-.683-10.589c-.257-3.985-.677-6.656-.221-10.566.334-2.864-1.061-6.915-1.378-9.821l-.822-7.538-1.645-9.091c-.792-4.374-2.954-8.223-3.095-12.805-.216-7.016-2.795-13.187-5.296-19.564l-3.383-8.624-9.048-20.878-7.164-11.933-5.652-9.217c-3.932-6.412-7.247-12.193-12.522-17.615-1.316-1.353-4.006-7.359-10.4-14.474l-18.889-21.018-4.004-4.161-18.079-17.879c-2.05-2.028-5.897-2.429-7.135-5.875-3.53-1.777-6.649-3.897-8.503-7.516-5.38-.409-7.409-4.883-11.03-7.97l-6.475-5.52-7.337-3.641-18.314-14.617c-1.729-1.38-4.116-2.462-5.474-.031-38.743-28.508-81.187-50.348-125.765-68.501-2.474-1.008-3.368-1.876-6.124-2.819l-16.946-5.798c-1.002-.933-.208-2.635.785-2.392l7.225,1.76,13.445,4.882,11.957,5.04,8.43,2.656,13.101,5.698,20.157,7.872,22.522,10.666,11.907,6.662c5.265,1.112,8.081,3.988,12.043,7.164,2.298,1.843,13.223,2.592,18.611,10.615,4.772,1,8.788,3.883,12.753,7.102,8.11,2.025,15.948,10.19,23.552,15.504l7.579,5.297c1.536,1.074,4.607,1.684,5.813,4.086,1.434,2.856,5.069,3.868,7.201,5.691l15.633,13.365,14.174,12.828,14.219,13.764,9.828,10.321,10.544,12.232,3.445,4.566,10.218,13.947,4.803,7.871c2.839,4.652,6.072,7.265,8.433,12.127l4.215,8.679,5.587,11.182,11.51,26.472,2.592,8.509,2.512,13.315,2.972,10.223.922,6.062,1.623,9.457,2.04,14.739.388,13.273c.169,5.793-.071,10.889-.45,16.986l-.905,14.571c-.206,3.32.577,7.828-.991,10.726l-1.622,9.319c-2.289,6.045-3.225,11.377-3.637,17.712l-5.595,17.615c-1.057,3.328-1.791,4.799-2.872,7.522-10.594,26.691-24.59,52.774-42.643,75.298l-7.546,9.416c-2.758,3.441-4.006,8.098-8.346,10.755l-2.438,4.287c-5.034,3.39-8.229,7.735-11.997,12.182-1.905,2.247-4.309,3.407-5.388,6.74l-6.271,2.46c-1.275,4.855-6.032,6.154-9.092,8.978-2.579,2.379-4.176,4.756-7.218,6.857l-12.935,8.934c-4.614,3.187-8.538,6.56-13.14,9.86l-16.219,11.632c-2.955,2.119-5.59,3.026-8.483,5.75l-6.963,3.943-10.539,6.415-6.465,3.523c-4.259,2.321-8.127,3.891-11.978,6.172l-10.046,5.95-11.012,5.041-25.601,11.304-42.069,15.741-39.279,12.652-7.415,1.531-25.463,6.407c-9.52,2.395-18.792,3.888-28.087,6.611l-6.646.823-10.569,2.247-15.094,2.026-15.356,2.732c-5.113.91-9.514,1.693-14.657,2.371l-12.587,1.66-6.912.099c-6.575,1.618-12.422,1.565-19.249,1.886l-9.236.435c-4.118.194-6.824.52-10.867.738l-11.847.639-11.773.368-9.575-.125-18.511-.714c-3.055-.118-5.065.051-8.159.172l-12.066.47-7.834.56c-6.441-.943-11.512-1.94-17.989-1.414-2.367.192-6.474-.29-8.805-.756-3.738-.747-6.011.173-9.458-.049l-11.879-.767-28-3.164c-3.202-.362-5.211-.439-8.656-.889l-19.463-2.543-21.894-3.243-24.513-4.596-8.172-1.828-14.878-3.077-7.957-2.834c-5.444-.522-19.344-4.272-26.324-6.496l-14.303-4.556c-3.591-1.144-6.942-1.433-10.575-2.699l-22.212-7.744-16.051-6.102-30.451-12.287c-4.097-1.653-7.36-4.039-11.068-6.062-7.041-3.841-15.829-6.736-24.452-11.572l-18.558-10.409c-3.34-1.873-4.743-4.336-8.838-5.659-2.203-.712-5.495-2.561-7.564-3.95l-23.326-15.657c-5.474-3.674-13.347-9.631-18.321-13.78l-11.956-9.972-13.325-11.605c-7.174-6.248-13.596-13.483-18.146-21.574-3.416.179-4.365-2.798-5.939-4.214-4.059-3.65-7.99-6.702-10.024-12.032-2.251-5.901-5.777-9.76-11.06-13.032-2.813-2.369-4.56-7.138-6.656-10.092l-4.561-6.427c-2.403-3.387-3.446-6.807-6.07-10.156-.243-.311-7.774-13.527-9.114-16.631-1.97-4.564-4.216-8.615-5.983-13.272l-9.001-23.724-2.533-9.594c-2.674-10.127-6.779-13.931-1.861-13.968Z"/>
  <path class="g" d="M14.244,381.52c1.745,19.541,6.57,38.598,13.267,56.731-4.917.037-.813,3.842,1.861,13.968l2.533,9.594,9.001,23.724c1.767,4.657,4.014,8.708,5.983,13.272,1.34,3.105,8.87,16.321,9.114,16.631,2.624,3.349,3.667,6.769,6.07,10.156l4.561,6.427c2.096,2.954,3.843,7.724,6.656,10.092,5.283,3.272,8.809,7.131,11.06,13.032,2.034,5.33,5.964,8.383,10.024,12.032,1.574,1.415,2.523,4.393,5.939,4.214,4.549,8.091,10.972,15.326,18.146,21.574l13.325,11.605,11.956,9.972c4.974,4.149,12.847,10.106,18.321,13.78l23.326,15.657c2.069,1.389,5.361,3.239,7.564,3.95,4.095,1.323,5.498,3.786,8.838,5.659l18.558,10.409c8.623,4.837,17.411,7.732,24.452,11.572,3.708,2.023,6.971,4.408,11.068,6.062l30.451,12.287,16.051,6.102,22.212,7.744c3.633,1.266,6.984,1.556,10.575,2.699l14.303,4.556c6.98,2.223,20.879,5.974,26.324,6.496l7.957,2.834,14.878,3.077,8.172,1.828,24.513,4.596,21.894,3.243,19.463,2.543c3.444.45,5.453.528,8.656.889l28,3.164,11.879.767c3.447.222,5.72-.698,9.458.049,2.33.466,6.438.948,8.805.756,6.477-.526,11.548.471,17.989,1.414l7.834-.56,12.066-.47c3.094-.121,5.104-.29,8.159-.172l18.511.714,9.575.125,11.773-.368,11.847-.639c4.043-.218,6.748-.545,10.867-.738l9.236-.435c6.827-.321,12.673-.268,19.249-1.886l6.912-.099,12.587-1.66c5.143-.678,9.543-1.461,14.657-2.371l15.356-2.732,15.094-2.026,10.569-2.247,6.646-.823c9.294-2.723,18.566-4.215,28.087-6.611l25.463-6.407,7.415-1.531,39.279-12.652,42.069-15.741,25.601-11.304,11.012-5.041,10.046-5.95c3.851-2.281,7.719-3.851,11.978-6.172l6.465-3.523,10.539-6.415,6.963-3.943c2.893-2.723,5.528-3.63,8.483-5.75l16.219-11.632c4.601-3.3,8.525-6.673,13.14-9.86l12.935-8.934c3.043-2.102,4.64-4.479,7.218-6.857,3.061-2.824,7.818-4.123,9.092-8.978l6.271-2.46c1.079-3.333,3.483-4.492,5.388-6.74,3.769-4.447,6.963-8.791,11.997-12.182l2.438-4.287c4.339-2.657,5.587-7.314,8.346-10.755l7.546-9.416c18.053-22.524,32.049-48.607,42.643-75.298,1.081-2.723,1.815-4.194,2.872-7.522l5.595-17.615c.412-6.335,1.349-11.667,3.637-17.712l1.622-9.319c1.568-2.898.785-7.406.991-10.726l.905-14.571c.379-6.097.619-11.194.45-16.986l-.388-13.273-2.04-14.739-1.623-9.457-.922-6.062-2.972-10.223-2.512-13.315-2.592-8.509-11.51-26.472-5.587-11.182-4.215-8.679c-2.362-4.863-5.594-7.475-8.433-12.127l-4.803-7.871-10.218-13.947-3.445-4.566-10.544-12.232-9.828-10.321-14.219-13.764-14.174-12.828-15.633-13.365c-2.132-1.823-5.768-2.835-7.201-5.691-1.206-2.402-4.276-3.012-5.813-4.086l-7.579-5.297c-7.604-5.315-15.441-13.479-23.552-15.504-3.965-3.219-7.981-6.102-12.753-7.102-5.388-8.024-16.313-8.772-18.611-10.615-3.961-3.177-6.778-6.052-12.043-7.164l-11.907-6.662-22.522-10.666-20.157-7.872-13.101-5.698-8.43-2.656-11.957-5.04-13.445-4.882-7.225-1.76c-.993-.243-1.787,1.46-.785,2.392-42.904-14.68-86.614-26.202-131.747-33.272-.297-1.594.739-2.405,1.646-2.882,1.287-.678,2.11-.171,3.5.083l29.572,5.403c3.653.667,6.316,1.661,9.74,2.321l21.292,4.104,18.199,2.498,25.541,6.986c5.173,1.415,10.156,3.09,15.429,4.287,14.405,3.27,27.548,8.212,41.253,13.382l24.775,9.346,9.599,2.63c8.365,4.949,17.001,8.239,25.577,12.293,7.607,3.595,14.345,7.99,22.286,10.986l18.338,10.563,7.752,4.286c2.685,1.485,6.717,2.945,8.695,4.762,2.444,2.244,4.145,3.01,6.717,4.669l18.716,12.075c4.633,4.095,9.788,6.846,14.302,10.927l13.101,11.846,14.366,11.624,11.341,10.435,12.026,10.88c2.026,1.833,2.649,2.701,4.56,4.818l7.506,8.318,7.413,9.128c1.132,3.313,2.004,3.364,4.526,5.218,3.322,2.443,6.531,6.906,8.908,10.593l5.936,9.205c2.451,3.801,3.974,9.216,7.876,12.008,2.38,1.703,3.264,2.886,4.708,5.424l10.139,17.821c1.761,3.094,1.623,6.189,3.045,9.143l3.549,7.375c5.242,10.892,9.591,21.757,12.294,33.748l2.013,8.93,1.914,14.052,2.156,14.795c.327,2.243,1.988,3.399.519,6.756l.888,9.398c-1.24,3.978-.469,17.208-.72,26.095l-.364,12.887c-.141,4.99-2.456,8.869-1.88,14.237l-3.404,10.174c.176,4.644-.257,8.26-1.558,12.565l-3.505,11.606c-4.234,14.019-9.718,27.301-17.011,40.327l-6.672,11.918-18.363,28.57-5.882,8.039-6.73,8.397-15.596,18.393-6.428,6.683-8.16,7.592-8.871,9.28-32.143,27.962c-5.357,1.647-10.002,4.681-13.192,9.68-4.502.527-6.781,3.339-9.961,5.986-1.489,1.239-5.95.988-6.889,2.738-2.275,4.238-5.252,5.727-8.846,7.617l-13.23,6.956-10.824,6.891c-5.254,3.345-10.365,4.646-15.872,7.149l-41.168,18.715-10.483,5.865-16.015,5.625-10.258,3.852-20.245,6.766-34.237,9.693-8.629,2.393-17.831,4.182-11.736,3.313-23.437,4.504-41.776,6.938-22.987,3.001-11.054.876-10.952,1.003-13.018.999-15.93,1.1-17.409.897-52.45.315-6.522-1.684c-7.752,1.461-14.941.594-22.661-.069l-13.06-1.12-12.942-.908-17.294-1.825c-7.25-.765-13.747-1.55-21.063-3.076-5.964-1.244-12.421.172-18.799-1.57-3.159-.863-6.491-2.609-10.083-2.583-8.17.059-21.933-2.957-31.852-5.025l-18.976-3.955-37.087-9.145-37.877-10.861-11.7-4.637-16.587-6.068c-4.325-1.582-7.245-4.204-11.479-5.6l-10.51-3.467-12.49-5.568c-5.411-2.412-10.46-4.589-15.668-7.155-3.462-1.705-7.214-1.986-10.181-5.288l-6.449-2.155c-3.859-3.675-8.678-4.784-12.862-7.446-5.199-3.308-10.372-5.957-15.655-9.289l-6.064-3.825-21.06-13.941-5.215-3.851-13.562-10.104c-16.933-12.615-29.53-24.072-43.911-39.143l-11.847-12.416-7.757-8.987c-4.077-4.723-7.641-8.846-11.177-13.945l-13.925-20.081-8.24-14.36c-3.008-5.242-6.264-9.522-8.175-14.003l-13.123-30.764-2.569-8.425c-.918-3.01-2.145-6.725-2.91-9.988-1.293-5.517-1.73-10.84-3.941-16.183-2.823-6.822-1.805-16.341-3.124-21.921-1.978-8.368-2.201-15.47-1.312-23.821.29-2.72-2.255-6.733,1.36-9.135Z"/>
  <path class="i" d="M55.742,493.46c13.311,19.97,28.05,38.227,45.73,54.5-.825,2.875,1.467,3.84,2.592,5.406,4.011,5.581,8.89,9.628,13.603,14.48,2.481,2.554,5.048,3.816,7.672,6.403l9.488,9.354,19.539,16.304c3.263,2.723,6.229,4.941,9.598,7.383l20.314,14.721,7.049,4.949c4.251,2.984,7.895,6.015,12.364,8.651l28.929,17.066c3.251,1.918,6.716,3.215,10.301,4.61,3.36,1.307,5.876,3.713,8.956,5.093l21.393,9.584c2.819,1.263,5.638,2.147,8.71,3.393l8.28,3.357c2.585,3.067,5.486,2.014,7.982,3.063,2.643,1.11,4.897,1.62,7.884,2.573l25.655,8.186c2.308.736,4.317.409,6.762,1.599l10.344,5.033,19.92,5.2,31.5,7.642,8.87.34,11.633,3.168c3.337.909,5.226,1.036,8.632,1.476l29.994,3.869,21.246,2.751c4.316.559,8.787,1.29,13.069,1.655l21.774,1.854,12.429,1.34c4.257-.68,7.292-.092,11.603.101l12.367.553,8.537.548,46.658.027,13.213-.481c2.685-.098,5.342,1.315,8.051-.371,2.328-1.448,4.76.055,7.063-.12l18.168-1.383,14.603-.746,42.365-4.528,10.931-3.265,20.028-2.77c6.399-.885,12.351-2.906,18.874-3.807l12.602-1.741,18.364-5.558c15.159-3.132,29.336-7.746,44.013-12.789l36.124-12.412c5.224-1.795,9.972-4.327,15.387-6.561l7.57-3.123,9.851-4.273,23.845-10.853,6.685-3.405,12.022-6.847,11.613-6.525,7.199-4.861,10.778-5.956c1.866-2.276,3.573-2.231,5.688-3.708l18.77-13.103,13.686-11.063c3.779-3.055,6.651-5.935,10.221-8.929l11.968-10.038,13.442-12.544,6.548-7.407,12.984-15.09,7.947-9.048,19.673-29.047,6.069-10.67c6.503-11.434,9.902-23.631,15.079-35.402l3.665-8.334c2.939-6.683,5.237-12.875,4.612-20.317,5.471-6.91,2.321-10.343,3.298-16.368l1.694-10.448,1.354-23.488-1.121-8.178c.75-8.926.427-16.92-1.68-25.675l-4.813-19.998c-1.704-7.078-2.772-13.637-5.884-20.346-1.885-4.065-1.568-9.302-5.861-12.298,2.518-4.118-1.818-5.737-2.628-7.969-4.306-11.861-14.282-31.453-22.213-38.992-3.665-3.484-6.789-15.511-14.829-22.168-6.945-5.751-9.061-12.948-11.458-8.35-22.983-32.721-53.294-61.353-85.501-85.052,1.358-2.431,3.745-1.349,5.474.031l18.314,14.617,7.337,3.641,6.475,5.52c3.621,3.087,5.649,7.562,11.03,7.97,1.854,3.618,4.973,5.739,8.503,7.516,1.239,3.447,5.085,3.847,7.135,5.875l18.079,17.879,4.004,4.161,18.889,21.018c6.395,7.115,9.084,13.122,10.4,14.474,5.274,5.422,8.59,11.202,12.522,17.615l5.652,9.217,7.164,11.933,9.048,20.878,3.383,8.624c2.502,6.377,5.08,12.547,5.296,19.564.141,4.582,2.303,8.431,3.095,12.805l1.645,9.091.822,7.538c.317,2.906,1.711,6.957,1.378,9.821-.456,3.91-.036,6.58.221,10.566l.683,10.589-.426,11.155c-.159,4.163-2.203,9.049-1.203,13.128s-.476,6.423-1.173,10.046l-2.809,14.6-2.12,9.594c-1.107,5.007-1.799,9.672-5.151,13.985-1.893,2.435-2.2,5.859-3.389,8.599l-10.898,25.116c-14.477,28.476-32.471,54.143-54.803,76.954l-12.444,13.566-13.628,12.366-13.835,11.238c-3.727,3.027-7.1,5.952-10.869,8.763l-18.602,13.88-11.167,7.654-6.266,3.646-14.488,8.533-10.829,6.214-11.385,5.543c-3.254,1.584-5.543,2.746-8.729,4.322l-20.749,10.264-14.604,6.38c-2.837,1.239-4.694,1.408-7.648,2.604l-10.339,4.186c-4.17,1.688-6.917,3.225-10.37,5.814l-11.35,3.51c-3.935,2.472-7.711,3.058-11.92,4.46-15.301,5.099-30.051,10.859-46.17,13.596l-29.942,7.771c-4.304,1.117-8.001-.131-12.217,2.089l-17.052,2.828-19.766,4.282c-3.608.782-6.532-.199-9.735.396-5.026.934-8.938,2.686-14.31,3.026l-11.936.757c-11.956.758-25.591,3.965-39.653,3.249-2.868.923-4.43.88-7.506.848l-20.82-.221c-2.743-.029-4.375,1.107-7.559.335-1.722-.417-5.32-.094-7.273-.09l-7.374.016-8.663.235-8.164-.121-7.65-.733-26.894-.248c-4.776-.044-8.828-.388-13.577-.119-10.263.581-16.063-3.766-25.894-4.396l-22.311-1.429c-3.26-.209-6.006-1.745-8.829-2.104-17.425-2.219-34.126-4.63-51.217-7.896-2.212-.423-3.573-.747-6.018-1.04l-12.421-1.487c-4.546-.544-8.763-2.909-13.254-3.712l-8.493-1.518c-3.578-.639-7.144-2.941-10.369-3.372-3.806-.509-6.028-1.046-9.358-2.006l-32.642-9.41-10.57-4.154c-2.395-.941-3.634-.974-6.32-1.946l-16.994-6.153-14.72-7.068-6.958-2.819c-8.554-3.465-15.653-5.82-23.752-10.212l-16.402-8.894c-3.161-1.714-8.433-.836-10.719-4.274-2.324-3.494-5.048-5.308-9.601-4.084l-8.046-6.526-28.336-18.346-8.217-6.736c-3.665-3.004-7.309-5.161-10.933-8.183l-12.016-10.021c-2.893-2.412-6.348-3.664-8.866-7.232l-9.269-7.428c-2.765-3.959-5.885-6.596-9.201-9.91l-17.447-17.435c-2.296-2.295-7.397-14.526-16.28-18.988-.847-2.031-1.441-5.54-3.225-7.546-6.301-7.086-10.218-15.051-14.916-23.21-3.348-5.816-10.708-12.065-6.943-15.249Z"/>
  <path class="l" d="M101.472,547.96l18.299,16.843,28.482,22.387c27.395,19.647,56.176,36.23,86.271,50.233-.939,1.608-.437,3.001.356,3.492.514.318,1.645,1.214,2.421,1.341,3.751.613,6.148,3.041,9.193,4.404,3.533,1.582,6.681,1.928,10.075,4.259,1.726,1.185,5.301,2.773,7.267,3.149,3.038.582,3.575,3.055,5.365,3.753l21.702,8.462,15.199,6.731c5.182,2.295,10.391,2.717,15.419,5.89,3.398,2.144,12.262,3.777,19.94,6.02l13.926,4.068c3.45,1.008,6.201,2.63,9.67,3.423l13.872,3.172,9.901,2.967c5.938,1.78,13.731,1.097,18.863,3.987,3.465,1.952,5.668,2.56,9.748,2.508,11.004-.141,22.307,5.595,33.627,4.403,1.79.667,4.363,3.294,7.261,2.62,4.682-1.089,8.774,1.236,13.236,1.495l11.56.67c2.742.159,5.143,1.159,7.571,1.13,9.152-.112,17.54,1.697,26.638,2.353l13.05.94,15.398.697c5.315.241,10.198-.449,15.354.049l10.512,1.016,36.513-.869,16.137.642c2.74.109,14.357-3.01,26.852-1.753,2.338.235,5.888-3.066,8.874-1.128,1.388.901,3.22,1.401,4.727,1.609,1.346.186,2.872-2.112,4.008-2.754l17.497-1.651,15.376-1.15,9.368-1.807c9.176-1.77,18.163-2.631,27.444-4.32l15.323-2.788,8.877-2.269,18.389-3.742,8.743-2.083,25.54-7.509,9.033-1.878c6.727-3.118,13.019-5.06,20.159-6.954,3.864-1.025,7.811-4.695,11.987-4.603,3.119.068,4.141-2.186,6.287-2.959,16.56-5.96,32.307-12.261,48.16-20.313,8.213-4.171,16.424-7.364,22.688-11.006l18.248-10.608,20.846-13.183,13.874-9.175,21.251-14.497,14.098-12.113,11.316-10.388c2.006-1.841,2.764-2.814,4.619-4.682l14.064-14.169,9.046-10.652,5.129-5.739,3.906-5.099,12.403-17.525,4.326-7.664,10.349-17.646,6.765-14.049,2.656-7.28,3.372-8.669,4.602-13.661,3.428-15.693c.389-1.78,2.387-3.857,1.591-6.365-1.361-4.288.768-8.609,1.169-12.333l1.288-11.954.146-22.601c.027-4.157-1.967-7.863.564-11.986-1.221-1.102-2.164-2.602-2.396-3.773,2.054-3.251.217-5.647-.322-8.709l-2.724-15.499-3.989-13.832-3.5-10.411c-1.82-5.413-2.915-11.834-7.764-10.249-8.034-29.921-21.491-57.231-39.31-82.599,2.398-4.598,4.513,2.599,11.458,8.35,8.04,6.657,11.164,18.684,14.829,22.168,7.931,7.54,17.906,27.131,22.213,38.992.81,2.231,5.146,3.851,2.628,7.969,4.293,2.996,3.975,8.233,5.861,12.298,3.112,6.71,4.18,13.268,5.884,20.346l4.813,19.998c2.107,8.755,2.429,16.748,1.68,25.675l1.121,8.178-1.354,23.488-1.694,10.448c-.977,6.024,2.173,9.457-3.298,16.368.625,7.443-1.673,13.634-4.612,20.317l-3.665,8.334c-5.177,11.771-8.576,23.968-15.079,35.402l-6.069,10.67-19.673,29.047-7.947,9.048-12.984,15.09-6.548,7.407-13.442,12.544-11.968,10.038c-3.57,2.994-6.442,5.875-10.221,8.929l-13.686,11.063-18.77,13.103c-2.115,1.477-3.822,1.432-5.688,3.708l-10.778,5.956-7.199,4.861-11.613,6.525-12.022,6.847-6.685,3.405-23.845,10.853-9.851,4.273-7.57,3.123c-5.415,2.234-10.163,4.766-15.387,6.561l-36.124,12.412c-14.677,5.043-28.854,9.657-44.013,12.789l-18.364,5.558-12.602,1.741c-6.523.901-12.475,2.922-18.874,3.807l-20.028,2.77-10.931,3.265-42.365,4.528-14.603.746-18.168,1.383c-2.303.175-4.735-1.328-7.063.12-2.71,1.686-5.366.273-8.051.371l-13.213.481-46.658-.027-8.537-.548-12.367-.553c-4.311-.193-7.346-.781-11.603-.101l-12.429-1.34-21.774-1.854c-4.282-.365-8.753-1.096-13.069-1.655l-21.246-2.751-29.994-3.869c-3.405-.439-5.295-.567-8.632-1.476l-11.633-3.168-8.87-.34-31.5-7.642-19.92-5.2-10.344-5.033c-2.446-1.19-4.454-.863-6.762-1.599l-25.655-8.186c-2.987-.953-5.241-1.463-7.884-2.573-2.496-1.048-5.397.005-7.982-3.063l-8.28-3.357c-3.073-1.246-5.892-2.13-8.71-3.393l-21.393-9.584c-3.08-1.38-5.596-3.786-8.956-5.093-3.585-1.395-7.05-2.692-10.301-4.61l-28.929-17.066c-4.47-2.637-8.114-5.667-12.364-8.651l-7.049-4.949-20.314-14.721c-3.37-2.442-6.336-4.66-9.598-7.383l-19.539-16.304-9.488-9.354c-2.624-2.587-5.191-3.849-7.672-6.403-4.713-4.852-9.591-8.899-13.603-14.48-1.125-1.566-3.417-2.531-2.592-5.406Z"/>
  <path class="n" d="M234.525,637.423c44.774,20.833,91.948,36.223,140.647,47.103-.076,1.045-.435,2.353-.11,3.103l34.016,6.954,20.099,3.906,8.793,2.089,9.381,1.647c6.354,1.116,12.462,1.325,18.811,2.154,3.616.472,6.413,1.474,10.169,1.286,1.989-.1,5.278,1.483,8.024,1.571l19.104.61c2.051.065,5.617.729,7.288,1.54,7.766,3.766,16.834,1.059,19.985,1.304l20.589,1.598c4.239.329,7.76.326,12.183.398l19.807.323c1.463.024,3.249,1.174,4.792.723,6.449-1.887,12.748-1.917,19.418-2.288l15.739-.876c2.993-.166,5.387-.187,8.238-.308l13.871-.591,6.963-.033,24.792-2.226c3.834-.344,8.142-.461,11.585-1.123,5.29-1.017,9.077-2.938,14.84-2.521,2.676.193,5.654-1.337,8.8.047,1.756-.274,4.296-2.127,6.125-3.113,5.447,2.525,9.923-.747,15.092-1.448l11.606-1.574c4.646-1.76,8.984-2.813,14.123-2.805l4.097-1.85c5.266.383,9.338-1.684,14.058-2.695l11.001-2.357,16.622-2.48,8.479-2.417,17.176-5.872,42.757-15.115,9.264-4.043,10.706-5.435c3.017-.151,3.677-2.503,5.25-3.054,13.122-4.598,27.455-13.388,39.821-20.227l12.368-6.84,17.312-11.645,11.785-7.281,15.464-11.545,16.486-13.369c2.65-2.149,4.293-4.96,7.995-6.302,3.761-1.364,5.996-6.235,9.231-8.313,2.928-1.881,3.956-3.656,6.034-5.994l14.149-15.924c1.034-1.164,3.866-1.85,4.839-3.079l10.68-13.483,11.996-20.807,5.852-9.28c2.542-4.032,4.375-7.526,6.392-11.667l5.925-12.168c4.275-8.778,8.397-12.838,8.751-24.211.107-3.44,3.145-6.854,3.715-10.161l4.547-26.426c.438-2.544,1.331-4.494,1.443-7.581l.474-13.024c.171-4.691.309-11.593-.066-14.803l-1.29-11.057c-.237-2.028-1.554-3.212-3.036-2.538.179-20.975-2.16-40.705-7.58-60.891,4.849-1.585,5.944,4.836,7.764,10.249l3.5,10.411,3.989,13.832,2.724,15.499c.538,3.062,2.376,5.458.322,8.709.232,1.171,1.176,2.671,2.396,3.773-2.531,4.122-.537,7.829-.564,11.986l-.146,22.601-1.288,11.954c-.401,3.724-2.53,8.045-1.169,12.333.796,2.508-1.202,4.585-1.591,6.365l-3.428,15.693-4.602,13.661-3.372,8.669-2.656,7.28-6.765,14.049-10.349,17.646-4.326,7.664-12.403,17.525-3.906,5.099-5.129,5.739-9.046,10.652-14.064,14.169c-1.855,1.869-2.613,2.841-4.619,4.682l-11.316,10.388-14.098,12.113-21.251,14.497-13.874,9.175-20.846,13.183-18.248,10.608c-6.265,3.642-14.476,6.834-22.688,11.006-15.853,8.052-31.6,14.353-48.16,20.313-2.146.772-3.168,3.027-6.287,2.959-4.176-.091-8.123,3.578-11.987,4.603-7.14,1.894-13.432,3.836-20.159,6.954l-9.033,1.878-25.54,7.509-8.743,2.083-18.389,3.742-8.877,2.269-15.323,2.788c-9.28,1.689-18.267,2.55-27.444,4.32l-9.368,1.807-15.376,1.15-17.497,1.651c-1.136.642-2.662,2.94-4.008,2.754-1.508-.208-3.34-.708-4.727-1.609-2.985-1.938-6.536,1.363-8.874,1.128-12.495-1.256-24.112,1.862-26.852,1.753l-16.137-.642-36.513.869-10.512-1.016c-5.156-.498-10.039.192-15.354-.049l-15.398-.697-13.05-.94c-9.098-.656-17.486-2.465-26.638-2.353-2.428.03-4.83-.971-7.571-1.13l-11.56-.67c-4.462-.259-8.554-2.583-13.236-1.495-2.898.674-5.471-1.953-7.261-2.62-11.32,1.192-22.623-4.543-33.627-4.403-4.08.052-6.283-.556-9.748-2.508-5.132-2.891-12.925-2.208-18.863-3.987l-9.901-2.967-13.872-3.172c-3.469-.793-6.221-2.415-9.67-3.423l-13.926-4.068c-7.678-2.243-16.542-3.876-19.94-6.02-5.028-3.172-10.237-3.595-15.419-5.89l-15.199-6.731-21.702-8.462c-1.791-.698-2.327-3.171-5.365-3.753-1.966-.376-5.541-1.964-7.267-3.149-3.393-2.331-6.541-2.677-10.075-4.259-3.045-1.363-5.442-3.791-9.193-4.404-.776-.127-1.907-1.023-2.421-1.341-.793-.492-1.296-1.884-.356-3.492Z"/>
  <path class="h" d="M375.172,684.526c101.178,22.605,216.264,25.907,318.884,10.011,45.569-7.059,89.591-17.774,133.001-32.922-.23.412.422,3.3,1.092,3.078l16.509-5.48,17.174-5.774,7.832-4.274,25.509-10.5c5.397-3.214,9.912-5.339,16.22-6.775l10.393-6.66c5.116-3.278,9.977-7.346,16.648-8.025,2.823-3.584,5.905-6.433,10.673-6.137,2.58-4.146,7.701-4.077,11.13-6.159,3.081-1.871,5.203-3.526,8.634-4.746l6.044-5.492c5.283-1.765,8.632-6.276,12.946-8.991,3.87-2.436,5.776-3.851,8.619-7.723,5.153-7.018,18.404-12.301,22.882-19.91l5.122-4.668c3.469-3.162,7.11-4.999,9.802-8.323l7.569-9.345,8.69-9.534c1.014-1.113,2.96-3.651,3.751-4.901l8.578-13.55,3.175-4.849c4.837-9.743,10.092-18.513,16.522-27.446l3.616-8.338c-1.006-.844-1.967-.67-3.404-.739,16.645-32.555,26.476-67.779,26.789-104.523,1.482-.673,2.799.51,3.036,2.538l1.29,11.057c.374,3.21.236,10.112.066,14.803l-.474,13.024c-.112,3.088-1.006,5.037-1.443,7.581l-4.547,26.426c-.569,3.308-3.608,6.721-3.715,10.161-.353,11.372-4.476,15.432-8.751,24.211l-5.925,12.168c-2.017,4.142-3.849,7.635-6.392,11.667l-5.852,9.28-11.996,20.807-10.68,13.483c-.973,1.228-3.805,1.914-4.839,3.079l-14.149,15.924c-2.078,2.338-3.106,4.114-6.034,5.994-3.235,2.078-5.47,6.95-9.231,8.313-3.702,1.342-5.345,4.153-7.995,6.302l-16.486,13.369-15.464,11.545-11.785,7.281-17.312,11.645-12.368,6.84c-12.366,6.839-26.699,15.63-39.821,20.227-1.573.551-2.233,2.903-5.25,3.054l-10.706,5.435-9.264,4.043-42.757,15.115-17.176,5.872-8.479,2.417-16.622,2.48-11.001,2.357c-4.72,1.011-8.793,3.078-14.058,2.695l-4.097,1.85c-5.139-.008-9.476,1.045-14.123,2.805l-11.606,1.574c-5.169.701-9.645,3.973-15.092,1.448-1.829.986-4.369,2.839-6.125,3.113-3.146-1.384-6.124.146-8.8-.047-5.763-.417-9.55,1.505-14.84,2.521-3.443.662-7.751.779-11.585,1.123l-24.792,2.226-6.963.033-13.871.591c-2.851.121-5.245.142-8.238.308l-15.739.876c-6.67.371-12.969.401-19.418,2.288-1.543.451-3.329-.699-4.792-.723l-19.807-.323c-4.423-.072-7.943-.069-12.183-.398l-20.589-1.598c-3.151-.245-12.219,2.462-19.985-1.304-1.671-.811-5.237-1.474-7.288-1.54l-19.104-.61c-2.746-.088-6.035-1.671-8.024-1.571-3.755.189-6.553-.813-10.169-1.286-6.349-.83-12.457-1.039-18.811-2.154l-9.381-1.647-8.793-2.089-20.099-3.906-34.016-6.954c-.325-.75.034-2.058.11-3.103Z"/>
  <path class="c" d="M827.057,661.615c40.059-13.978,78.243-31.313,114.459-53.404,57.206-34.894,110.701-82.078,141.267-141.86,1.437.069,2.398-.105,3.404.739l-3.616,8.338c-6.43,8.933-11.685,17.704-16.522,27.446l-3.175,4.849-8.578,13.55c-.791,1.25-2.737,3.788-3.751,4.901l-8.69,9.534-7.569,9.345c-2.693,3.325-6.333,5.162-9.802,8.323l-5.122,4.668c-4.478,7.609-17.729,12.892-22.882,19.91-2.844,3.873-4.749,5.287-8.619,7.723-4.314,2.715-7.663,7.226-12.946,8.991l-6.044,5.492c-3.431,1.219-5.553,2.875-8.634,4.746-3.429,2.083-8.55,2.013-11.13,6.159-4.768-.297-7.85,2.553-10.673,6.137-6.671.678-11.533,4.747-16.648,8.025l-10.393,6.66c-6.308,1.436-10.823,3.561-16.22,6.775l-25.509,10.5-7.832,4.274-17.174,5.774-16.509,5.48c-.67.222-1.322-2.666-1.092-3.078Z"/>
  <g>
    <path class="m" d="M306.206,108.063c2.114,3.4,6.505,1.911,6.204,5.626-69.502,28.659-140.508,76.163-179.993,141.718-40.226,66.787-40.858,143.335-2.031,210.807,16.427,28.547,37.73,52.7,62.554,74.344,48.955,42.683,110.404,72.054,171.588,90.784-.191,1.944-2.55,2.627-3.048,3.456-.433,1.693.654,3.23.817,4.396-39.578-12.174-77.959-27.761-114.095-48.97-54.386-31.92-103.665-76-131.934-132.747-37.078-74.431-27.52-157.157,21.299-223.887,41.384-56.569,104.873-98.866,168.64-125.528Z"/>
    <path class="m" d="M810.323,620.899c.477-4.203-2.959-3.432-6.175-6.285,24.957-9.575,48.476-21.811,71.664-36.096,51.54-31.748,98.42-75.499,124.036-130.732,25.112-54.145,25.433-115.154.43-169.287-36.05-78.049-116.121-134.102-193.836-165.189-4.523-1.809-9.072-4.727-14.263-4.42-1.988-1.068-4.599-1.088-6.674-3.922.528-.14,2.259-1.919,1.581-2.906-1.289-1.877-2.788-3.25-2.811-5.324,58.51,20.625,115.417,51.757,161.104,94.751,43.187,40.641,74.675,91.144,80.546,151.012,4.277,43.616-5.371,86.473-26.604,124.693-40.073,72.132-114.222,123.093-188.999,153.706Z"/>
    <path class="g" d="M806.443,113.31l-2.455,1.921-11.808-6.341c5.191-.307,9.74,2.611,14.263,4.42Z"/>
    <g>
      <path class="e" d="M696.601,22.897c45.133,7.07,88.843,18.592,131.747,33.272l16.946,5.798c2.755.943,3.649,1.811,6.124,2.819,44.578,18.153,87.022,39.992,125.765,68.501,32.208,23.7,62.518,52.331,85.501,85.052,17.819,25.368,31.276,52.679,39.31,82.599,5.42,20.185,7.759,39.916,7.58,60.891-.313,36.744-10.144,71.968-26.789,104.523-30.566,59.781-84.06,106.965-141.267,141.86-36.217,22.091-74.401,39.427-114.459,53.404-43.411,15.148-87.432,25.863-133.001,32.922-102.62,15.896-217.706,12.594-318.884-10.011-48.699-10.88-95.872-26.27-140.647-47.103-30.096-14.003-58.876-30.587-86.271-50.233l-28.482-22.387-18.299-16.843c-17.68-16.273-32.419-34.53-45.73-54.5-11.694-17.545-21.058-35.789-28.231-55.208-6.698-18.133-11.522-37.19-13.267-56.731-4.312-48.272,6.075-95.217,29.554-137.354,15.133-27.159,34.329-51.342,56.955-73.257,29.466-28.54,61.891-52.969,98.072-71.978l24.046-12.634,12.916-6.813c4.136-2.182,8.155-3.469,12.799-5.469,50.525-21.754,102.987-37.62,157.451-47.593,95.976-17.574,194.311-18.604,290.564-3.527ZM371.358,643.994l29.434,7.142c.435-.421.732-.865.888-1.448l-30.319-7.704-9.064-2.788c-.163-1.166-1.25-2.703-.817-4.396.498-.83,2.857-1.512,3.048-3.456,89.248,27.321,188.968,34.202,282.175,23.052,38.623-4.62,75.819-12.602,112.338-23.789.851.85,1.945,1.426,2.848,1.48,1.718.102,1.392-1.717,1.376-2.477,1.249-1.39,3.727-1.28,5.275-1.885,2.233,1.491,9.09.055,8.869-2.851l26.738-10.259c3.216,2.853,6.652,2.082,6.175,6.285l-27.903,10.362c-1.469-1.415-3.357-1.983-5.292-1.123-1.347.599-2.398,2.355-2.699,4.055l-14.074,4.642-29.069,7.937c-.749.205-1.79-.284-2.121-.463.291-1.272-.782-1.703-1.365-1.445-1.525.676-1.553,2.12-1.448,3.123l-4.882,1.119c-2.27.52-4.269-.086-5.275,2.604l4.942-.63,34.781-8.591c2.16-.534,3.605-1.563,4.678-2.267l6.296-.816c35.231-10.482,69.017-23.095,101.624-40.203,78.775-41.33,149.883-106.938,167.481-197.268,22.02-7.583,42.694-16.797,61.706-30.819,2.047-38.029-5.814-75.219-22.647-109.329-27.659-56.656-74.477-100.824-127.09-134.833C782.836,20.212,549.564.449,361.396,47.664c-55.88,14.021-109.529,34.148-159.527,62.437-59.718,33.789-116.015,80.209-148.862,140.97-20.223,36.994-30.467,77.465-28.076,120.084,17.844,13.192,37.828,22.794,59.551,30.453,7.221,36.763,23.419,70.257,46.467,99.972,42.537,54.304,102.123,92.494,165.719,118.078,24.738,9.952,49.299,18.175,74.691,24.336ZM701.923,654.856c1.911.705,1.935-1.977.707-1.941l-17.393,3.601c5.62,1.32,10.637-1.028,16.687-1.659ZM435.415,656.672c-.206-.479-.637-.767-1.545-.737l-11.463-1.789-.052,1.501c4.308.243,8.554,2.027,13.06,1.025ZM438.024,657.449l-.653.018.653.018h.675l.653-.018-.653-.018h-.675ZM683.333,656.917c-1.872-.835-2.458,1.559-.213,1.203,1.095.272,1.463-1.064.213-1.203Z"/>
      <path class="d" d="M760.355,638.836l.241,1.387c-1.073.705-2.518,1.734-4.678,2.267l-34.781,8.591.333-1.974,4.882-1.119c1.158-.265,2.134-.671,2.813-1.679.331.18,1.372.668,2.121.463l29.069-7.937Z"/>
      <path class="d" d="M371.358,643.994l.003-2.011,30.319,7.704c-.156.583-.453,1.027-.888,1.448l-29.434-7.142Z"/>
      <path class="h" d="M701.923,654.856c-6.05.631-11.066,2.979-16.687,1.659l17.393-3.601c1.229-.036,1.205,2.646-.707,1.941Z"/>
      <path class="m" d="M782.42,631.261l-7.991,2.933c.301-1.7,1.352-3.456,2.699-4.055,1.935-.86,3.823-.292,5.292,1.123Z"/>
      <path class="c" d="M435.415,656.672c-4.506,1.003-8.752-.782-13.06-1.025l.052-1.501,11.463,1.789c.909-.03,1.339.258,1.545.737Z"/>
      <path class="m" d="M777.41,624.872c.221,2.906-6.636,4.343-8.869,2.851,2.876-1.123,5.643-2.49,8.869-2.851Z"/>
      <path class="m" d="M721.47,649.107l-.333,1.974-4.942.63c1.006-2.69,3.005-2.084,5.275-2.604Z"/>
      <path class="m" d="M763.267,629.608c.016.759.342,2.579-1.376,2.477-.903-.053-1.997-.629-2.848-1.48l4.224-.997Z"/>
      <path class="m" d="M729.165,646.309c-.678,1.008-1.655,1.413-2.813,1.679-.106-1.004-.078-2.448,1.448-3.123.583-.258,1.656.173,1.365,1.445Z"/>
      <path class="h" d="M683.333,656.917c1.25.139.883,1.474-.213,1.203-2.245.356-1.66-2.037.213-1.203Z"/>
      <polygon class="c" points="438.024 657.449 438.699 657.449 439.352 657.467 438.699 657.484 438.024 657.484 437.371 657.467 438.024 657.449"/>
    </g>
    <g>
      <path class="k" d="M784.276,96.737c.023,2.074,1.522,3.447,2.811,5.324.677.986-1.053,2.766-1.581,2.906,2.075,2.834,4.687,2.855,6.674,3.922l11.808,6.341c17.771,11.074,34.637,22.893,50.722,37.024,53.321,31.635,101.772,75.953,126.121,133.732,28.884,68.541,15.205,141.627-29.877,199.85-43.291,55.91-107.777,95.64-173.946,119.946-69.011,25.349-141.919,37.068-215.625,37.025-60.048-.035-119.328-7.487-176.884-23.843-75.446-21.439-150.206-59.345-202.543-118.339-18.706-21.085-33.467-44.01-43.816-70.18-18.539-46.879-17.916-98.031,1.795-144.494,24.784-58.422,73.434-102.248,127.189-134.522,19.775-16.706,40.05-31.154,62.803-43.607-6.989.187-11.806,4.249-17.516,5.865.302-3.716-4.09-2.227-6.204-5.626,62.725-26.226,129.459-40.875,198.058-45.759,94.725-6.745,190.914,3.027,280.011,34.434ZM208.356,352.363l-.008,52.502,22.179-.124-.005-40.263,31.86.031,28.589,40.249,27.208-.092-13.043-18.341c18.701,4.392,37.416,7.724,56.388,9.008l.142,9.436,98.613-.004.165-14.028c19.986-3.22,39.637-8.363,59.132-15.167,2.363-.825,4.934-1.638,7.029-1.304-.555,2.212-2.208,3.51-3.9,5.533l-66.945,80.087-77.996.109-.203,18.364,86.349-.096,89.602-107.947,89.605,107.308,85.74-.057.241-17.561-78.262-.068-85.934-103.034,80.405-96.902,72.952-.341.08.806-.285,8.215-72.214.117-39.93,48.428-30.992,37.329,69.57-24.024c1.174-.405,2.141-.3,3.434-.463-6.349,15.555-7.129,32.585-.286,47.768,7.541,16.732,22.298,28.295,38.408,31.726,19.585,4.171,38.461-1.033,52.242-15.548l-12.144-11.959c-8.601,9.045-20.048,13.557-32.576,11.869-10.821-1.458-21.568-7.717-27.696-18.221-8.653-14.831-7.528-34.001,3.612-46.913,14.815-17.172,39.617-18.507,55.961-2.481l11.968-11.357c-1.387-2.169-3.066-3.633-5.044-5.166,32.068-6.731,64.834-9.347,98.065-7.642,1.428.073,2.292.485,3,1.429-22.208,10.321-35.198,33.787-32.141,58.06,3.058,24.273,21.463,43.794,45.539,48.299s48.308-7.037,59.957-28.558c11.648-21.521,8.044-48.092-8.917-65.743.396-.832.79-1.154,1.634-1.287,34.93,9.838,65.51,30.716,85.873,61.487,5.666-64.964-24.046-122.159-69.803-165.624-61.119-58.056-145.57-92.619-228.03-108.786-90.568-17.757-183.979-16.047-273.911,4.416-44.102,10.035-86.131,25.125-125.984,45.968-23.896,12.498-45.426,26.811-66.122,43.92-43.128,35.654-76.468,82.302-85.234,138.824,23.614.4,44.574,8.277,66.083,16.655,1.993,1.191,4.074,1.367,5.978,1.161ZM295.807,544.023c7.154,1.242,13.089-1.457,16.522-6.417,3.414-4.933,4.033-11.691.682-17.169l-7.945-12.986c-2.338-3.821-1.601-7.935.944-10.363,3.196-3.048,7.592-3.149,11.082-.554,7.101,5.279,1.695,14.432,4.967,15.27,1.539.394,2.263-.379,2.863-2.03l3.466-9.534c-9.984-10.632-25.437-15.528-33.74-5.2-3.621,4.503-4.631,11.058-1.505,16.471l8.003,13.855c2.517,4.357.931,9.48-2.861,12.243-3.378,2.462-8.234,1.347-11.683-1.935-7.2-6.852-1.747-17.585-4.732-18.501-1.861-.571-2.841.23-3.465,1.977l-3.837,10.75c4.898,7.089,12.163,12.547,21.241,14.123ZM835.78,537.795c-.956,2.712-2.963,4.401-4.414,4.935-4.021,1.481-9.878-4.274-13.357.615-1.308,1.838-1.425,4.951.876,6.302,9.129,5.359,27.647-9.997,26.77-27.534-.257-5.138-3.67-9.394-6.66-11.323-4.509-2.909-8.814-1.883-13.825-.494,2.065-3.344,4.207-5.797,4.652-9.615.574-4.933-3.592-9.763-8.973-9.933-11.237-.356-20.722,9.442-19.818,20.313.895.768,3.164.248,3.288-.452l.387-2.183c.949-5.349,5.891-10.255,11.536-8.271,4.495,1.579,5.441,7.501,3.555,11.35-3.449,7.04-10.174,9.877-6.822,12.434,2.948,2.249,4.319-4.98,9.068-5.949,3.242-.662,6.107-.074,8.533,2.022,4.829,4.173,7.472,11.352,5.205,17.783ZM355.536,568.865c1.107.387,1.901-1.352,1.577-2.16-.775-1.931-6.434-2.631-4.717-7.482l12.538-35.436c2.148-6.072,7.745-2.416,9.149-4.283.515-.686.519-2.064-.556-2.435l-22.238-7.676c-1.234-.426-1.97,1.339-1.639,2.116.787,1.85,5.982,2.679,4.373,7.171l-12.923,36.071c-1.893,5.285-6.983,1.908-8.703,3.85-.359.405-.444,2.017.172,2.232l22.968,8.032ZM785.66,555.102c2.21-5.669,1.039-11.509-1.768-15.868-5.738-8.909-19.004-7.522-30.334-4.181-.927-1.634-1.83-5.952-.358-6.826l18.678-8.477c.78-3.241,1.34-6.3.464-10.213l-24.93,10.593,2.918,25.347c6.685-2.386,13.113-4.246,19.623-2.085,4.121,1.368,6.362,5.275,6.815,8.31,2.411,16.155-19.908,18.637-18.766,22.866,1.003,3.711,21.806-4.461,27.655-19.466ZM423.546,584.313c1.584,3.092,3.931,5.252,7.106,3.935l9.842-44.794c.894-4.069,3.656-6.069,7.993-5.28.813-.25,1.011-3.165.237-3.32l-19.444-3.889c-.854-.171-1.401,2.022-.951,2.604,1.127,1.459,8.154,1.484,6.793,8.156l-5.523,27.07-23.026-42.666-15.39-3.13c-.859-.175-1.582,1.903-1.224,2.587.494.946,7.977,2.926,6.503,9.47l-7.532,33.44c-.829,3.68-3.506,5.819-7.587,4.982-1.417-.291-2.024,2.96-.729,3.264l18.808,4.421c1.173.276,1.961-1.694,1.639-2.449-.695-1.632-8.207-1.897-6.785-8.63l6.415-30.375,22.855,44.604ZM715.935,556.024c.779,12.275-5.234,23.976-16.533,29.072-1.559.703-1.988,1.915-1.466,2.957,1.624,3.243,14.988-4.315,21.836-12.608,8.886-10.762,10.747-26.066,3.392-38.094-4.747-7.763-14.001-9.898-22.155-7.145-7.709,2.604-13.528,9.949-12.801,18.85.41,5.017,2.448,9.542,5.818,11.965,3.969,2.854,8.73,3.608,13.502,2.233,3.504-1.009,6.389-3.283,6.786-7.078-5.282,1.992-10.252.459-13.007-4.061-2.462-4.039-3.512-8.933-2.559-13.603.593-2.908,2.908-4.793,5.338-5.132,7.121-.995,11.16,11.798,11.848,22.644ZM644.353,590.54c-1.68.129-2.213,1.255-2.352,2.007-.092.498.388,1.664,1.356,1.548l25.927-3.126c.886-.107.524-3.049-.438-3.007l-2.538.112c-1.674.074-3.504,0-4.404-1.035-.534-.615-1.117-1.995-1.28-3.344l-5.514-45.641-17.363,6.435c-1.169.433-1.84,1.1-1.688,2.124.372,2.502,8.357-.657,8.802,2.958l4.381,35.576c.381,3.097-1.316,5.119-4.889,5.392ZM480.387,584.252c-6.753-10.697-5.702-25.395,1.877-35.022,4.057-5.153,10.121-6.806,16.072-5.878,5.527.862,9.82,4.799,11.998,10.878l.907,2.533c.259.724,3.058.881,3.061.209l.076-14.159c-8.711-3.247-18.243-4.934-27.512-3.22-14.43,2.668-23.837,14.174-24.042,28.071-.206,13.934,9.362,25.412,23.731,28.239,7.686,1.513,15.37,1.034,23.169-.532,1.983-4.345,4.085-8.473,4.714-13.34.099-.766-2.8-1.434-3.29-.79l-1.548,2.035c-3.795,4.989-7.958,9.341-13.918,9.421-5.779.078-11.576-2.558-15.294-8.446ZM562.4,571.566c6.893-.183,3.505,8.357,9.005,6.321l-.15-17.197c-5.266-1.892-2.256,6.221-8.048,6.116l-10.115-.182.146-19.631c4.775-.409,9.178-.411,13.613.551,6.631,1.439,3.729,10.871,9.506,8.222l-.558-13.133-40.771.03c-.824,0-1.161,2.393-.646,2.878,1.251,1.179,6.749-.012,6.743,5.726l-.037,37.602c-.002,1.671-.34,3.391-1.175,4.174-2.237,2.098-6.044.347-6.967,2.466-.183.419.122,2.277.66,2.279l44.593.202,2.9-13.994c.15-.722-2.497-1.332-3.016-.727-3.182,3.707-2.966,11.788-15.887,10.578-2.593-.243-7.447.379-8.358-3.209-1.504-5.919-.45-12.412-.65-18.828l9.212-.244Z"/>
      <path class="j" d="M897.872,315.629c-2.709-2.819-5.704-5.348-8.937-7.547,1.519-1.266,2.389-2.542,3.055-4.195,6.417-15.923,7.923-33.084,4.625-49.426-2.932-14.525-9.363-27.954-17.872-39.99-12.325-17.433-28.596-31.418-46.316-43.34-24.573-16.532-51.876-29.083-79.856-38.795-113.561-39.418-254.803-40.108-369.358-4.214-31.97,10.017-61.159,22.668-89.278,40.923-22.772,14.783-42.171,31.682-56.073,55.312-7.668,13.034-12.505,27.85-13.345,43.019-.602,10.86,1.323,21.531,4.471,32.366l36.443-.388c.776-.008,1.567.301,1.829.607.231.27.294.861.19,1.251l-59.105-.079.012,51.23c-1.903.206-3.984.03-5.978-1.161-21.51-8.377-42.47-16.255-66.083-16.655,8.766-56.522,42.106-103.17,85.234-138.824,20.696-17.109,42.226-31.422,66.122-43.92,39.852-20.843,81.882-35.933,125.984-45.968,89.932-20.463,183.343-22.172,273.911-4.416,82.46,16.167,166.912,50.73,228.03,108.786,45.758,43.465,75.469,100.661,69.803,165.624-20.364-30.771-50.944-51.649-85.873-61.487-.844.132-1.238.455-1.634,1.287Z"/>
      <path class="c" d="M803.055,218.71c1.196,1.12,3.581.732,4.722-.577,5.066-5.809,17.425-5.871,27.901-6.112l13.731-.316c7.821-.18,17.17,6.655,29.334,2.766,8.51,12.036,14.94,25.465,17.872,39.99-4.383-2.086-8.483-1.138-13.161-1.042l-20.7.425-19.345-.115-23.057.107c-5.118.024-9.845.343-14.991.209l-11.002-.286-38.175.148c-11.24.044-29.781-.406-32.697,3.906-1.146,1.694-3.192,3.103-5.146,2.652l-.08-.806-.302-16.53-14.52.173c.106-.398.057-.998-.175-1.264-.294-.338-1.041-.62-1.823-.62h-20.161c-.777,0-1.539.281-1.824.618-.232.274-.275.88-.171,1.333l-2.885.036c.11-.364.107-1.076-.115-1.373-.239-.32-1.047-.632-1.834-.632l-9.182.004c-.768,0-1.556.32-1.81.626-.23.276-.276.891-.173,1.317l-1.854-.011c.107-.415.06-1.03-.164-1.302-.264-.319-1.048-.628-1.814-.629l-8.228-.01c-1.119-.001-1.909.428-1.867,1.416-1.966.513-4.027.484-5.997.006-.105-1.416-1.255-1.519-2.498-1.466-.918.039-2.357-.156-2.548,1.288-2.997,2.127-5.24,5.277-7.616,8.115-1.335-1.624-3.046-.868-4.691-.716-5.201.481-10.536-3.045-13.379,1.879l-20.744,1.121-27.922-.059-14.22-.064c-2.448-.011-3.501-1.129-6.776-.976l-26.555,1.237c-3.157.147-5.029-2.083-7.177-2.666l-12.462,1.783c-3.993-.778-6.619-.73-10.506.233-1.841.456-3.553-3.152-4.745-4.153-1.833-1.539-5.046-.375-7.061.407l-4.461-5.099-82.561.122c1.57,6.011.586,11.303.713,16.667l.211,8.429c-4.309-.006-8.374-1.723-13.151-2.197-9.24-.918-18.654-.192-28.852-1.246-4.082-.422-8.161.449-11.794-2.184l-5.567,2.064c-4.003-1.309-10.792-2.291-14.585.009-5.019,3.043-8.196-1.385-11.513-1.163-4.32.288-7.097,1.092-11.672.96l-12.205-.352c-4.603-.133-9.591,1.584-14.702.686-2.161-.38-4.768,1.257-7.005,1.905-4.625-2.727-9.223-2.54-14.03-.892-4.051-3.064-9.26-3.386-13.608-.842-1.488,1.604-3.386,2.02-5.163,1.727.84-15.169,5.677-29.985,13.345-43.019,2.427-.521,5.148-.411,7.387-2.047.5-.577,1.088-2.411,1.849-2.656,1.239-.398,2.86.018,3.626,2.335,6.973-1.989,13.378-.616,20.268.995,5.649,1.321,11.624-.075,17.342.696,9.941,1.34,13.768-4.108,22.026-3.207-1.95,6.805,7.637-.944,17.996-3.19.921,6.912,11.305,2.65,17.527,1.99,2.993-.318,5.168,1.052,8.432-1.164,1.892-1.285,6.83-1.056,9.329-.992l23.75.602c6.091.154,11.687.993,18.006,1.193l9.923.315c3.361.107,5.14-.765,8.356-1.43,9.018-1.864,17.688,1.938,28.109.026,8.134-1.493,14.878.319,21.923.359l17.725.1,14.759.569c3.571.138,4.966-.038,8.332-.153l17.265-.59c6.455-.221,12.165.583,18.734-.247,9.733-1.229,14.087,1.622,18.18,1.112,2.375-.296,7.003-1.515,9.258-1.05,2.863.591,4.259,1.869,7.652,1.291,1.616-.275,4.44,1.201,6.139-2.108,5.507,4.248,12.342,2.361,18.717,1.778,3.172-.29,5.998,1.478,9.134-1.415,2.421-.041,5.987,1.48,8.386,2.052,6.896-3.046,13.288-2.474,20.169-1.389,1.859-.111,4.275-.059,6.453-.014l31.643.655c4.9.101,8.403,1.649,13.417.061,2.109-.668,5.881-.952,8.128-.644,8.538,1.172,16.575.058,24.913-.103l23.755-.457c3.83-.074,10.386-5.431,10.803-8.678l34.525,13.401,1.259-3.645ZM309.861,224.508l-.5.499.5.499.5-.499-.5-.499Z"/>
      <path class="f" d="M896.615,254.461c3.299,16.342,1.793,33.502-4.625,49.426-.666,1.653-1.536,2.929-3.055,4.195-16.413-11.164-37.498-12.878-55.502-4.511-.707-.944-1.572-1.355-3-1.429-33.231-1.704-65.997.911-98.065,7.642-25.671-19.906-62.609-13.37-80.626,13.742-2.055-4.501-14.128,1.381-23.82-1.874-3.598-1.208-5.439-2.037-9.808-2.503l-12.203-1.924,39.93-48.428,72.214-.117.285-8.215c1.954.45,4-.958,5.146-2.652,2.916-4.312,21.457-3.862,32.697-3.906l38.175-.148,11.002.286c5.146.134,9.873-.185,14.991-.209l23.057-.107,19.345.115,20.7-.425c4.678-.096,8.778-1.044,13.161,1.042Z"/>
      <path class="j" d="M505.76,322.956l29.64,35.332c1.106,1.318,1.252,2.851,1.329,4.281-3.107,4.017-5.908,8.889-10.124,11.694-2.095-.333-4.666.48-7.029,1.304-19.495,6.805-39.146,11.947-59.132,15.167.041-1.191-.406-2.001-.869-2.369-.362-.289-1.26-.342-2.171-.342l-73.537.012.234-21.714,42.278.335-.036-8.451-.061-17.35-40.012-.198c.308-2.11-.192-4.386-2.111-5.198l-.055-2.08c1.409-.171,1.395-1.397,1.394-2.505-.001-1.102.018-2.331-1.38-2.505l.036-1.925,72.106.533c.781-3.605.25-6.046.156-8.587l-.15-4.026c2.257-.013,6.443.531,7.517,3.406.327.914-.593,3.427,1.028,3.876,5.087,1.408,6.487-2.847,9.685-2.262,1.147.21,2.644,3.191,3.875,3.251,6.362.133,12.595.646,18.852,1.467,2.519.331,5.858-1.83,8.534-1.147Z"/>
      <path class="j" d="M361.597,326.346l-.072,68.985c-18.973-1.285-37.687-4.616-56.388-9.008-3.727-3.14-6.057-7.873-8.979-11.89.063-.865-.064-1.823.257-2.465.474-.948,1.584-1.325,2.855-1.794,12.692-4.683,22.492-16.788,20.322-29.864.457-8.361.401-16.659-4.53-23.768,4.177.756,7.47,2.826,11.355,5.426,2.07,1.386,5.912-1.034,7.854-.514,7.369,1.975,13.98,1.464,21.318,1.411,1.352,1.843,3.354,4.44,6.008,3.479Z"/>
      <path class="b" d="M423.546,584.313l-22.855-44.604-6.415,30.375c-1.422,6.733,6.09,6.998,6.785,8.63.322.755-.466,2.724-1.639,2.449l-18.808-4.421c-1.295-.304-.688-3.555.729-3.264,4.081.837,6.758-1.301,7.587-4.982l7.532-33.44c1.474-6.545-6.009-8.524-6.503-9.47-.358-.684.366-2.762,1.224-2.587l15.39,3.13,23.026,42.666,5.523-27.07c1.361-6.672-5.665-6.697-6.793-8.156-.45-.582.097-2.775.951-2.604l19.444,3.889c.774.155.576,3.07-.237,3.32-4.337-.789-7.099,1.211-7.993,5.28l-9.842,44.794c-3.175,1.317-5.522-.843-7.106-3.935Z"/>
      <path class="b" d="M562.4,571.566l-9.212.244c.2,6.417-.854,12.909.65,18.828.911,3.588,5.766,2.966,8.358,3.209,12.921,1.21,12.705-6.871,15.887-10.578.519-.604,3.165.005,3.016.727l-2.9,13.994-44.593-.202c-.538-.002-.842-1.86-.66-2.279.923-2.119,4.73-.369,6.967-2.466.835-.783,1.173-2.504,1.175-4.174l.037-37.602c.006-5.738-5.492-4.546-6.743-5.726-.515-.485-.178-2.878.646-2.878l40.771-.03.558,13.133c-5.777,2.65-2.875-6.783-9.506-8.222-4.435-.962-8.838-.96-13.613-.551l-.146,19.631,10.115.182c5.792.104,2.782-8.008,8.048-6.116l.15,17.197c-5.5,2.035-2.111-6.504-9.005-6.321Z"/>
      <path class="b" d="M295.807,544.023c-9.078-1.576-16.343-7.034-21.241-14.123l3.837-10.75c.624-1.747,1.603-2.548,3.465-1.977,2.985.916-2.469,11.649,4.732,18.501,3.449,3.282,8.305,4.397,11.683,1.935,3.791-2.763,5.377-7.886,2.861-12.243l-8.003-13.855c-3.126-5.413-2.116-11.967,1.505-16.471,8.303-10.327,23.757-5.432,33.74,5.2l-3.466,9.534c-.6,1.651-1.324,2.424-2.863,2.03-3.272-.838,2.134-9.99-4.967-15.27-3.49-2.594-7.886-2.494-11.082.554-2.545,2.428-3.282,6.542-.944,10.363l7.945,12.986c3.351,5.477,2.732,12.236-.682,17.169-3.433,4.96-9.368,7.659-16.522,6.417Z"/>
      <path class="b" d="M480.387,584.252c3.717,5.888,9.514,8.524,15.294,8.446,5.96-.08,10.122-4.432,13.918-9.421l1.548-2.035c.49-.644,3.389.024,3.29.79-.629,4.867-2.731,8.995-4.714,13.34-7.799,1.566-15.483,2.045-23.169.532-14.368-2.828-23.937-14.305-23.731-28.239.205-13.897,9.612-25.403,24.042-28.071,9.269-1.714,18.802-.027,27.512,3.22l-.076,14.159c-.004.672-2.802.515-3.061-.209l-.907-2.533c-2.177-6.079-6.471-10.016-11.998-10.878-5.95-.928-12.015.724-16.072,5.878-7.579,9.627-8.63,24.325-1.877,35.022Z"/>
      <path class="b" d="M715.935,556.024c-.688-10.847-4.727-23.64-11.848-22.644-2.43.34-4.745,2.224-5.338,5.132-.953,4.671.098,9.565,2.559,13.603,2.755,4.52,7.725,6.052,13.007,4.061-.397,3.795-3.283,6.069-6.786,7.078-4.771,1.375-9.532.62-13.502-2.233-3.37-2.423-5.408-6.947-5.818-11.965-.727-8.901,5.092-16.246,12.801-18.85,8.154-2.754,17.408-.618,22.155,7.145,7.355,12.027,5.493,27.332-3.392,38.094-6.848,8.294-20.212,15.851-21.836,12.608-.522-1.042-.094-2.254,1.466-2.957,11.299-5.096,17.312-16.797,16.533-29.072Z"/>
      <path class="b" d="M785.66,555.102c-5.849,15.005-26.653,23.176-27.655,19.466-1.143-4.229,21.177-6.711,18.766-22.866-.453-3.035-2.695-6.943-6.815-8.31-6.511-2.161-12.939-.301-19.623,2.085l-2.918-25.347,24.93-10.593c.876,3.913.315,6.971-.464,10.213l-18.678,8.477c-1.472.875-.569,5.192.358,6.826,11.33-3.34,24.596-4.727,30.334,4.181,2.808,4.359,3.978,10.199,1.768,15.868Z"/>
      <path class="b" d="M835.78,537.795c2.267-6.431-.375-13.61-5.205-17.783-2.425-2.096-5.291-2.684-8.533-2.022-4.749.97-6.12,8.199-9.068,5.949-3.352-2.557,3.374-5.395,6.822-12.434,1.885-3.848.939-9.77-3.555-11.35-5.644-1.983-10.587,2.922-11.536,8.271l-.387,2.183c-.124.7-2.393,1.22-3.288.452-.903-10.871,8.581-20.669,19.818-20.313,5.381.17,9.547,5,8.973,9.933-.444,3.818-2.587,6.271-4.652,9.615,5.011-1.389,9.316-2.415,13.825.494,2.99,1.929,6.403,6.184,6.66,11.323.877,17.537-17.64,32.893-26.77,27.534-2.301-1.351-2.184-4.464-.876-6.302,3.479-4.89,9.336.866,13.357-.615,1.451-.534,3.458-2.223,4.414-4.935Z"/>
      <path class="b" d="M355.536,568.865l-22.968-8.032c-.617-.216-.532-1.827-.172-2.232,1.721-1.942,6.81,1.435,8.703-3.85l12.923-36.071c1.609-4.492-3.586-5.321-4.373-7.171-.331-.777.405-2.542,1.639-2.116l22.238,7.676c1.075.371,1.071,1.749.556,2.435-1.404,1.867-7-1.789-9.149,4.283l-12.538,35.436c-1.716,4.851,3.942,5.551,4.717,7.482.324.808-.469,2.547-1.577,2.16Z"/>
      <path class="b" d="M644.353,590.54c3.573-.274,5.271-2.295,4.889-5.392l-4.381-35.576c-.445-3.615-8.43-.456-8.802-2.958-.152-1.025.519-1.691,1.688-2.124l17.363-6.435,5.514,45.641c.163,1.349.747,2.729,1.28,3.344.9,1.036,2.73,1.109,4.404,1.035l2.538-.112c.963-.043,1.324,2.9.438,3.007l-25.927,3.126c-.968.117-1.448-1.05-1.356-1.548.139-.751.672-1.878,2.352-2.007Z"/>
      <path class="j" d="M651.743,323.527l-3.819,6.541c-1.293.163-2.26.058-3.434.463l-69.57,24.024,30.992-37.329,12.203,1.924c4.369.466,6.21,1.295,9.808,2.503,9.692,3.255,21.765-2.626,23.82,1.874Z"/>
      <path class="f" d="M388.363,268.902l72.377.103,45.019,53.952c-2.675-.683-6.015,1.477-8.534,1.147-6.258-.821-12.491-1.334-18.852-1.467-1.231-.06-2.728-3.041-3.875-3.251-3.198-.585-4.598,3.67-9.685,2.262-1.622-.449-.701-2.962-1.028-3.876-1.074-2.875-5.26-3.418-7.517-3.406l.161-2.956,1.386-.172c.51-.063.859-.738.508-1.237-.32-.455-1.201-.706-1.906-.595l.005-3.969c1.523.322,1.894-.383,2.03-1.527.225-1.884-.346-2.755-2.098-2.657l-1.907.106c.116-.499.064-1.133-.181-1.388-.337-.351-.97-.586-1.928-.585l-88.893.035c-1.037,0-1.541,1.491-1.548,2.052l-.3,24.876c-2.654.961-4.656-1.637-6.008-3.479-7.338.052-13.949.564-21.318-1.411-1.942-.52-5.784,1.899-7.854.514-3.885-2.6-7.177-4.671-11.355-5.426-11.695-14.05-29.887-15.308-47.613-15.331.104-.389.041-.981-.19-1.251-.262-.306-1.053-.616-1.829-.607l-36.443.388c-3.148-10.834-5.073-21.505-4.471-32.366,1.777.293,3.675-.123,5.163-1.727,4.348-2.544,9.557-2.223,13.608.842,4.807-1.648,9.405-1.834,14.03.892,2.238-.648,4.844-2.285,7.005-1.905,5.111.898,10.099-.819,14.702-.686l12.205.352c4.576.132,7.353-.672,11.672-.96,3.317-.221,6.494,4.206,11.513,1.163,3.793-2.3,10.582-1.318,14.585-.009l5.567-2.064c3.633,2.633,7.712,1.763,11.794,2.184,10.198,1.054,19.612.328,28.852,1.246,4.776.474,8.842,2.191,13.151,2.197Z"/>
      <path class="l" d="M752.571,132.336c-4.414,7.226-14.731,1.636-16.579,10.768l-31.821-8.617c-.587,1.205-.571,2.158-.731,3.379l-9.917-1.129c-1.406-.16-9.413,2.499-15.328,1.97l-4.144-11.64c-1.25-.956-5.454-.344-6.007,1.005l-7.264,17.706c-2.677.421-4.719-.151-7.436-1.244l-14.377-5.781-1.646-14.882c-7.747-2.56-15.111-4.144-22.996-3.535-13.978,1.08-24.163,10.998-25.515,24.32-4.695,2.105-7.631.339-11.852-1.697-3.715-1.792-9.195.515-13.054-1.875.057-1.225-.938-2.451-2.137-1.193-2.089-11.762-12.14-19.4-24.511-20.099l-33.21,1.308c-.622,1.459.158,3.305.891,3.382.651.069,2.198.121,3.045.533,3.543,1.725,2.587,5.935,2.595,9.173-1.528.492-3.2.965-4.38,2.211-4.478,4.731-10.795-2.218-15.174,4.825-4.225,1.001-8.017,1.507-12.236,1.334-1.481,2.677-3.973,2.994-6.104,2.106l-.1-11.912c-.042-4.98,5.824-4.932,6.881-6.66.559-.913.005-2.66-.954-2.514l-24.605,3.74c-.455.069-1.394,1.444-1.412,1.893-.066,1.688,8.124.477,8.071,6.478-10.446,5.891-17.715-1.06-20.248,4.377-8.261-10.861-26.024-9.26-37.435-.644-3.193.215-4.179-2.997-6.222-3.832l-7.934-3.244c-2.362-.966-4.572-1.496-5.512-4.224,114.554-35.893,255.797-35.203,369.358,4.214Z"/>
      <path class="h" d="M293.935,169.045c6.283,10.241,13.512,9.285,24.429,11.484l-2.224,32.837c-.242,3.57-3.425,5.556-5.78,7.107-8.258-.901-12.085,4.547-22.026,3.207-5.718-.771-11.693.625-17.342-.696-6.89-1.611-13.295-2.983-20.268-.995-.766-2.317-2.386-2.734-3.626-2.335-.761.245-1.349,2.079-1.849,2.656-2.239,1.636-4.96,1.526-7.387,2.047,13.902-23.63,33.301-40.529,56.073-55.312Z"/>
      <path class="h" d="M878.743,214.471c-12.164,3.889-21.513-2.946-29.334-2.766l-13.731.316c-10.476.241-22.835.303-27.901,6.112-1.141,1.309-3.526,1.696-4.722.577l1.602-8.157c.332-1.688-.634-2.873-1.767-3.284-2.894-1.049-2.59,5.031-6.792,6.562-3.734,1.361-16.21-3.513-17.285-7.59-1.7-6.444-.248-12.994-.656-20.001l9.713,3.833c2.528.998,4.562,3.433,4.504,6.352-.04,2.031,3.457,3.029,3.498,1.972l.484-12.438c4.993.566,8.695-3.792,15.072-3.975,7.23-5.778,14.939-.109,17.761-7.54.606-1.596,1.661-2.789,3.237-3.313,17.721,11.922,33.991,25.907,46.316,43.34Z"/>
      <path class="n" d="M832.427,171.131c-1.576.524-2.631,1.717-3.237,3.313-2.822,7.432-10.532,1.762-17.761,7.54-6.377.183-10.079,4.541-15.072,3.975.093-2.38-.178-5.167-2.936-5.234l-1.432,3.268c-.541,1.235-2.927,1.448-4.57.818l-9.133-3.504.031-20.262,10.03,3.543c10.758,3.8,6.253,15.694,12.685,13.628l-.987-13.268-38.817-14.505c-.81-.303-1.244,1.909-.821,2.533,1.635,2.414,7.663,2.381,6.077,11.264-.411.624-.147.874-.138,1.254l.297,13.66c-5.602.289-11.17.611-16.891-.651-2.402,2.096-4.983,2.487-7.575,2.179l-4.154-8.384c7.343-1.091,11.322-6.593,10.327-13.91-.918-6.753-5.899-13.534-12.357-15.283,1.848-9.132,12.165-3.542,16.579-10.768,27.98,9.712,55.283,22.263,79.856,38.795Z"/>
      <path class="n" d="M383.213,128.122c.94,2.729,3.15,3.259,5.512,4.224l7.934,3.244c2.043.835,3.028,4.047,6.222,3.832-9.368,7.072-14.854,17.947-15.076,29.628-5.73,3.769-9.956,1.158-14.733,2.52l-.655-16.993c-.302-7.83,9.073-6.284,6.598-10.836l-17.836,5.343-15.379,41.906-16.326-30.982-16.846,6.799c-.84.339-1.056,1.006-1.331,1.313-.564.631-.031,2.68.881,2.309,2.17-.883,5.115-1.036,5.979,1.398,1.019,2.869.384,6.08.207,8.701-10.917-2.2-18.146-1.243-24.429-11.484,28.119-18.255,57.308-30.906,89.278-40.923Z"/>
      <path class="h" d="M443.42,169.393c1.389,9.043,11.417,6.258,9.934,10.566-.301.874-.584,2.347.171,3.397l42.306-5.297,2.214-8.656,10.828,2.33c-1.501,1.275-3.215,1.897-5.055,2.005-1.67,5.839,4.465,1.515,11.517,3.282-.671,3.077,2.527,3.988,3.394,7.506l16.268,1.434c2.689.237,4.784.007,7.473-.012l8.887-.063c2.853-.02,5.169.444,8.24.383l14.13-.282c7.186-.144,14.171-1.16,21.559.006,2.973-3.433,7.142-3.369,9.984-.169,1.755-.69,2.616-1.679,3.415-3.588,4.14,2.64,8.128,1.846,12.023-.292,2.139-1.174,4.539,1.994,5.986,2.153,8.238.906,15.105,4.089,24.545,2.096l15.692-3.312c2.638-.557,5.635-4.738,8.51-2.155-2.934,4.361,3.106,4.041,13.881,6.955,1.623.439,3.322.125,5.016,1.187l4.962.421,3.85.471,24.369,6.218c.806.206,1.007-2.807.171-3.028-.647-.171-1.375-.948-2.038-1.428,2.29-1.924,5.297-2.153,8.242-3.318,4.566,10.085,10.147,14.049,21.337,16.75,1.119-3.307-1.192-4.032-2.57-5.658-4.827-5.697-7.401-12.389-10.484-18.612,2.592.308,5.173-.083,7.575-2.179,5.721,1.262,11.289.941,16.891.651l.008,20.447c.003,7.166-9.41.196-7.838,5.854l8.458,3.499c-.417,3.247-6.973,8.604-10.803,8.678l-23.755.457c-8.338.161-16.375,1.274-24.913.103-2.247-.308-6.019-.024-8.128.644-5.014,1.588-8.517.04-13.417-.061l-31.643-.655c-2.178-.045-4.595-.097-6.453.014-6.881-1.085-13.272-1.657-20.169,1.389-2.399-.572-5.965-2.092-8.386-2.052-3.135,2.893-5.962,1.125-9.134,1.415-6.375.583-13.21,2.471-18.717-1.778-1.699,3.309-4.523,1.833-6.139,2.108-3.394.578-4.789-.7-7.652-1.291-2.255-.465-6.883.754-9.258,1.05-4.092.51-8.446-2.342-18.18-1.112-6.568.83-12.278.026-18.734.247l-17.265.59c-3.366.115-4.761.291-8.332.153l-14.759-.569-17.725-.1c-7.045-.04-13.789-1.852-21.923-.359-10.421,1.913-19.091-1.89-28.109-.026-3.216.665-4.995,1.536-8.356,1.43l-9.923-.315c-6.319-.201-11.915-1.039-18.006-1.193l-23.75-.602c-2.499-.063-7.437-.292-9.329.992-3.263,2.216-5.438.847-8.432,1.164-6.222.66-16.606,4.922-17.527-1.99,1.355-.719,2.057-3.87.181-4.139-1.416-.203-3.304.548-4.344.193-1.007-.344-2.027-2.092-1.964-3.806l1.228-33.667,16.129,32.56c.476.961.358,2.381,1.478,2.626.981.214,2.849-.168,3.25-1.594,1.69-6.017,3.763-11.539,5.705-16.956,1.827,1.268,2.48,4.387,4.753,4.718l7.042,1.124c.036,2.824-6.85,3.645-5.593,7.684,6.766-.607,23.851-6.447,24.272-6.889.703-.738,1.284-2.875-.102-3.531-8.857,2.879-6.741-9.078-7.318-24.037,4.777-1.363,9.003,1.249,14.733-2.52-.248,13.048,8.424,23.252,21.652,23.333,15.117.092,28.667-8.907,33.962-22.99Z"/>
      <path class="f" d="M630.7,250.757l-77.339,92.366-78.9-94.339c2.015-.782,5.228-1.946,7.061-.407,1.192,1.001,2.904,4.609,4.745,4.153,3.887-.962,6.512-1.011,10.506-.233l12.462-1.783c2.148.583,4.02,2.813,7.177,2.666l26.555-1.237c3.275-.153,4.328.965,6.776.976l14.22.064,27.922.059,20.744-1.121c2.843-4.923,8.178-1.398,13.379-1.879,1.646-.152,3.357-.908,4.691.716Z"/>
      <path class="e" d="M536.73,362.569c-.078-1.43-.223-2.962-1.329-4.281l-29.64-35.332-45.019-53.952-72.377-.103-.211-8.429,73.633-.05,79.944,95.834c-.816,3.229-3.506,4.382-4.999,6.312Z"/>
      <path class="b" d="M796.357,185.96l-.484,12.438c-.041,1.057-3.538.059-3.498-1.972.058-2.918-1.976-5.354-4.504-6.352l-9.713-3.833c.408,7.007-1.044,13.556.656,20.001,1.075,4.077,13.551,8.951,17.285,7.59,4.202-1.532,3.898-7.611,6.792-6.562,1.133.411,2.098,1.596,1.767,3.284l-1.602,8.157-1.259,3.645-34.525-13.401-8.458-3.499c-1.573-5.658,7.84,1.312,7.838-5.854l-.008-20.447-.297-13.66.138-1.254c1.586-8.883-4.442-8.851-6.077-11.264-.423-.625.011-2.836.821-2.533l38.817,14.505.987,13.268c-6.432,2.066-1.926-9.827-12.685-13.628l-10.03-3.543-.031,20.262,9.133,3.504c1.642.63,4.029.417,4.57-.818l1.432-3.268c2.758.067,3.028,2.854,2.936,5.234Z"/>
      <path class="f" d="M703.44,243.302l-24.154.068c-.104-.453-.06-1.059.171-1.333.285-.337,1.047-.619,1.824-.619h20.161c.782,0,1.529.283,1.823.621.231.265.281.866.175,1.264Z"/>
      <path class="f" d="M676.4,243.406l-13.114-.057c-.102-.427-.056-1.041.173-1.317.255-.306,1.043-.626,1.81-.626l9.182-.004c.787,0,1.595.312,1.834.632.221.296.225,1.009.115,1.373Z"/>
      <path class="f" d="M661.432,243.338c-5.958-.037-9.133-1.292-12.073-.525-.041-.988.749-1.417,1.867-1.416l8.228.01c.766,0,1.55.31,1.814.629.225.272.271.886.164,1.302Z"/>
      <path class="f" d="M643.362,242.819c-1.598-.388-3.279-.403-5.045-.178.191-1.445,1.63-1.249,2.548-1.288,1.243-.053,2.392.05,2.498,1.466Z"/>
      <polygon class="h" points="309.861 224.508 310.361 225.007 309.861 225.507 309.361 225.007 309.861 224.508"/>
      <path class="k" d="M456.419,318.39c.095,2.541.625,4.982-.156,8.587l-72.106-.533c.047-2.515-.693-5.052.064-8.272l72.198.217Z"/>
      <path class="k" d="M426.345,358.206l.036,8.451-42.278-.335c.027-2.468-.911-5.012.131-8.38l42.112.264Z"/>
      <path class="j" d="M296.71,335.891c-2.267,10.201-12.886,12.842-24.367,12.839l-41.816-.009.025-21.345c15.734-.442,31.499-.884,47.765-.105,5.127.246,10.397,1.819,14.118,5.018,1.434,1.233,1.981,3.417,4.276,3.602Z"/>
      <path class="e" d="M296.71,335.891c-2.295-.185-2.842-2.369-4.276-3.602-3.721-3.199-8.991-4.772-14.118-5.018-16.266-.78-32.03-.337-47.765.105l.028-9.218,42.762-.019c5.887-.003,11.56,1.096,16.636,3.532,5.752,2.76,8.038,8.344,6.732,14.22Z"/>
      <path class="m" d="M296.158,374.434l-7.295-10.027,13.096-4.464c8.578-3.974,14.446-11.066,17.633-19.632,2.17,13.076-7.63,25.181-20.322,29.864-1.271.469-2.381.846-2.855,1.794-.321.642-.194,1.6-.257,2.465Z"/>
      <g>
        <path class="k" d="M386.272,340.658c-2.387-.012-2.063-3.399-2.111-5.198,1.918.812,2.418,3.088,2.111,5.198Z"/>
        <path class="k" d="M384.107,333.38c-.044-1.678-.017-3.328.014-5.01,1.397.174,1.378,1.403,1.38,2.505.001,1.108.015,2.334-1.394,2.505Z"/>
        <path class="j" d="M454.447,301.357l-92.55.113c.007-.561.511-2.051,1.548-2.052l88.893-.035c.958,0,1.591.235,1.928.585.245.255.297.889.181,1.388Z"/>
      </g>
      <path class="j" d="M456.422,305.434l-.067-4.184c1.751-.098,2.322.773,2.098,2.657-.136,1.144-.507,1.849-2.03,1.527Z"/>
      <path class="j" d="M456.429,311.408l-.012-2.005c.706-.111,1.587.14,1.906.595.351.5.002,1.174-.508,1.237l-1.386.172Z"/>
      <ellipse class="k" cx="857.227" cy="354.732" rx="39.225" ry="39.176"/>
      <path class="n" d="M638.968,138.755l14.377,5.781c2.717,1.093,4.759,1.665,7.436,1.244l-11.621,27.557c-1.085,2.573-4.402,2.172-6.441,3.1-.72.327-.681,2.67-.008,2.769l17.811,2.61c.625.092.942-2.104.604-2.63-.794-1.233-6.839-1.434-5.216-5.988l3.53-9.905,15.802,2.533,3.929,11.081c.562,1.586-.071,2.501-.688,3.412-.699,1.033-2.218,1.145-3.043.404-2.875-2.582-5.871,1.599-8.51,2.155l-15.692,3.312c-9.44,1.993-16.307-1.19-24.545-2.096-1.447-.159-3.847-3.327-5.986-2.153-3.895,2.138-7.883,2.932-12.023.292-.8,1.909-1.66,2.898-3.415,3.588-2.843-3.2-7.011-3.264-9.984.169-7.388-1.166-14.373-.15-21.559-.006l-14.13.282c-3.071.061-5.386-.403-8.24-.383l-8.887.063c-2.689.019-4.784.249-7.473.012l-16.268-1.434c-.867-3.518-4.065-4.428-3.394-7.506,1.732.434,4.001-.966,6.019-1.02,7.015-.186,13.535-.401,20.084-2.342,15.053-4.46,23.094-18.21,20.331-33.766,1.199-1.258,2.194-.033,2.137,1.193,3.858,2.39,9.339.083,13.054,1.875,4.221,2.036,7.158,3.803,11.852,1.697-1.539,15.171,7.865,28.576,23.205,32.402,7.874,1.964,15.952,1.937,23.912.441l3.999-11.35c.615-1.745-.052-2.701-1.451-3.179-3.659-1.253-4.377,9.193-13.538,11.056-7.085,1.441-13.697-2.509-17.723-8.378-5.353-7.805-5.919-17.511-4.249-26.138,2.261-.657,3.262.803,4.764,1.633,4.339,2.4,9.603,2.834,14.291,2.284,2.894-.339,2.665-4.082,3.863-4.906,2.648-1.767,5.87-2.166,7.055-5.382l2.275,4.706c.708,1.465,2.872.75,3.754.909Z"/>
      <path class="n" d="M510.577,134.189l.088,34.437c.004,1.631-.869,2.321-1.794,3.107l-10.828-2.33.756-6.011c.1-.797-1.914-1.551-2.843-1.067-2.106,1.099-2.973,8.297-7.752,11.055-4.732,2.731-15.433,3.985-15.447-1.342l-.073-27.374c2.13.888,4.623.57,6.104-2.106,4.219.173,8.011-.333,12.236-1.334,4.379-7.043,10.696-.094,15.174-4.825,1.179-1.246,2.852-1.719,4.38-2.211Z"/>
      <path class="n" d="M703.44,137.866c3.545.404,6.624,3.07,6.62,6.904l-.038,38.599c-.001,1.305-.547,2.472-1.276,3.092-1.753,1.491-5.012-.009-5.396.669-.312.552-.159,1.973-.202,2.627l-3.85-.471c1.201-4.541-5.264-3.598-7.763-11.01l-13.34-39.569c5.915.529,13.922-2.131,15.328-1.97l9.917,1.129Z"/>
      <path class="b" d="M678.195,138.708l13.34,39.569c2.499,7.412,8.964,6.469,7.763,11.01l-4.962-.421c-1.694-1.063-3.393-.748-5.016-1.187-10.774-2.915-16.814-2.595-13.881-6.955.825.741,2.344.63,3.043-.404.616-.911,1.25-1.827.688-3.412l-3.929-11.081-15.802-2.533-3.53,9.905c-1.623,4.555,4.422,4.756,5.216,5.988.339.526.021,2.722-.604,2.63l-17.811-2.61c-.674-.099-.712-2.442.008-2.769,2.039-.928,5.356-.527,6.441-3.1l11.621-27.557,7.264-17.706c.553-1.349,4.758-1.961,6.007-1.005l4.144,11.64ZM673.685,160.443l-5.972-19.314-6.968,17.447,12.94,1.867Z"/>
      <path class="n" d="M460.565,135.69l-.352,39.795c-.028,3.112-4.783,4.284-6.859,4.475,1.483-4.308-8.545-1.523-9.934-10.566,3.658-9.729,3.204-21.034-3.103-29.327,2.533-5.436,9.802,1.514,20.248-4.377Z"/>
      <path class="h" d="M766.345,165.494c-.008-.38-.273-.63.138-1.254l-.138,1.254Z"/>
      <path class="n" d="M361.813,198.343l-7.042-1.124c-2.273-.332-2.925-3.451-4.753-4.718l11.321-31.567.474,37.409Z"/>
      <path class="n" d="M733.893,188.201c-2.945,1.165-5.951,1.394-8.242,3.318-2.165-.264-3.798-1.727-3.833-4.354l-.21-15.76c2.368-.467,4.963.623,5.997,2.906l6.288,13.89Z"/>
      <path class="l" d="M632.938,133.14c-1.185,3.216-4.406,3.615-7.055,5.382-1.198.824-.969,4.567-3.863,4.906-4.688.55-9.952.116-14.291-2.284-1.502-.831-2.503-2.291-4.764-1.633,1.308-6.756,5.456-13.409,12.273-14.728,7.427-1.437,14.575,1.894,17.7,8.357Z"/>
      <path class="l" d="M547.7,155.986c-4.128.278-7.836-5.442-17.652-4.647-.663-.899-1.674-2.488-2.37-2.479-.857.011-1.927.49-3.305,1.002l.068-11.359c.004-.73-.313-1.55-.629-1.798-.283-.221-.918-.262-1.263-.534l.223-11.274c10.867-4.391,22.335,1.951,25.035,13.262,1.469,6.156,1.043,11.756-.108,17.826Z"/>
      <path class="n" d="M547.7,155.986c-1.975,10.422-11.054,17.733-21.835,14.985-2.118-.54-3-3.167-3.022-5.322l-.294-29.476c.345.271.98.312,1.263.534.316.248.634,1.068.629,1.798l-.068,11.359c1.378-.511,2.448-.991,3.305-1.002.696-.009,1.707,1.58,2.37,2.479,9.815-.795,13.524,4.924,17.652,4.647Z"/>
      <path class="n" d="M733.698,166.449c-2.763,3.106-9.65,2.544-11.771-.13l.229-22.658c5.987-.363,10.546,3.262,12.438,7.435,2.138,4.718,2.933,11.047-.896,15.353Z"/>
      <path class="n" d="M422.788,185.38c-6.917,4.568-14.998,2.076-18.204-5.19-4.705-10.663-4.79-23.271.501-33.763,3.036-6.02,9.552-10.401,16.174-8.832,13.342,3.16,15.468,38.58,1.529,47.785Z"/>
      <polygon class="n" points="673.685 160.443 660.745 158.576 667.713 141.129 673.685 160.443"/>
    </g>
  </g>
</svg>