<?xml version="1.0" encoding="utf-8"?>
<!-- Generator: Adobe Illustrator 28.0.0, SVG Export Plug-In . SVG Version: 6.00 Build 0)  -->
<svg version="1.1" id="Layer_2_00000031206217860937288960000001855448456575169667_"
	 xmlns="http://www.w3.org/2000/svg" xmlns:xlink="http://www.w3.org/1999/xlink" x="0px" y="0px" width="771px" height="205.6px"
	 viewBox="0 0 771 205.6" style="enable-background:new 0 0 771 205.6;" xml:space="preserve">
<style type="text/css">
	.st0{fill:#471B8F;}
</style>
<g id="Layer_1-2">
	<g>
		<g>
			<path class="st0" d="M526.6,195.4c0-6.2,4-10.2,10-10.2c5.1,0,8.3,2.8,9.2,7.4h-4.4c-0.5-2.3-2.2-3.8-4.8-3.8
				c-3.4,0-5.6,2.7-5.6,6.7s2.2,6.6,5.6,6.6c2.6,0,4.3-1.5,4.8-3.8h4.4c-0.8,4.5-4.2,7.4-9.3,7.4
				C530.4,205.6,526.6,201.7,526.6,195.4L526.6,195.4z"/>
			<path class="st0" d="M562.3,185.4v3.9h-1.9c-3.7,0-5,2.9-5,6v10h-4.2v-19.9h3.7l0.5,3c1-1.7,2.6-3,5.9-3L562.3,185.4L562.3,185.4
				z"/>
			<path class="st0" d="M565.6,195.4c0-6.2,3.9-10.2,9.8-10.2s9.6,3.7,9.7,9.5c0,0.5,0,1.1-0.1,1.6h-15v0.3c0.1,3.4,2.3,5.6,5.6,5.6
				c2.6,0,4.4-1.3,5-3.5h4.2c-0.7,3.9-4,6.9-9,6.9C569.5,205.6,565.6,201.6,565.6,195.4L565.6,195.4z M580.8,193.2
				c-0.3-3-2.4-4.6-5.3-4.6c-2.7,0-5,1.8-5.3,4.6H580.8L580.8,193.2z"/>
			<path class="st0" d="M606,178.1h4.2v27.3h-3.7l-0.5-3c-1.3,1.8-3.3,3.2-6.5,3.2c-5.4,0-9.4-3.8-9.4-10.2s4-10.2,9.4-10.2
				c3,0,5.2,1.2,6.5,3L606,178.1L606,178.1z M606.1,195.5c0-4-2.3-6.7-5.8-6.7s-5.8,2.7-5.8,6.6s2.3,6.7,5.8,6.7
				S606.1,199.3,606.1,195.5z"/>
			<path class="st0" d="M616.3,180.1c0-1.5,1.1-2.5,2.6-2.5s2.6,1.1,2.6,2.5s-1.1,2.5-2.6,2.5S616.3,181.6,616.3,180.1z
				 M616.7,185.4h4.2v19.9h-4.2V185.4z"/>
			<path class="st0" d="M628.8,189.1h-3.5v-3.7h3.5v-5.6h4.2v5.6h4.9v3.7h-4.9v10.4c0,1.6,0.5,2.1,2.1,2.1h3v3.7h-3.9
				c-3.8,0-5.5-1.8-5.5-5.4V189.1L628.8,189.1z"/>
			<path class="st0" d="M669.2,185.4h4.2v19.9h-3.7l-0.5-2.5c-1.2,1.5-3.1,2.8-6.2,2.8c-4.2,0-7.9-2.3-7.9-9.1v-11.1h4.2v10.6
				c0,3.9,1.6,5.9,4.6,5.9s5.1-2.4,5.1-6.5L669.2,185.4L669.2,185.4z"/>
			<path class="st0" d="M698.4,194.3v11.1h-4.2v-10.8c0-3.8-1.6-5.8-4.8-5.8c-3.3,0-5.3,2.5-5.3,6.5v10.1h-4.2v-19.9h3.7l0.5,2.6
				c1.2-1.6,3.2-2.8,6.4-2.8C694.7,185.2,698.4,187.6,698.4,194.3L698.4,194.3z"/>
			<path class="st0" d="M704.1,180.1c0-1.5,1.1-2.5,2.6-2.5s2.6,1.1,2.6,2.5s-1.1,2.5-2.6,2.5S704.1,181.6,704.1,180.1z
				 M704.5,185.4h4.2v19.9h-4.2V185.4z"/>
			<path class="st0" d="M714.5,195.4c0-6.1,4.1-10.2,10.2-10.2s10.2,4.1,10.2,10.2s-4.1,10.2-10.2,10.2S714.5,201.5,714.5,195.4z
				 M730.5,195.4c0-3.9-2.3-6.6-5.9-6.6s-5.8,2.8-5.8,6.6s2.3,6.6,5.8,6.6S730.5,199.3,730.5,195.4z"/>
			<path class="st0" d="M759.1,194.3v11.1h-4.2v-10.8c0-3.8-1.6-5.8-4.8-5.8c-3.3,0-5.3,2.5-5.3,6.5v10.1h-4.2v-19.9h3.7l0.5,2.6
				c1.2-1.6,3.2-2.8,6.4-2.8C755.4,185.2,759.1,187.6,759.1,194.3L759.1,194.3z"/>
		</g>
		<g>
			<g>
				<path class="st0" d="M189.5,114.1c-4.7-2.1-10.4-3.1-17.1-3.1h-17.6c-3,0-5.4-0.9-7.3-2.7s-2.7-3.9-2.7-6.4
					c0-2.5,0.9-4.7,2.7-6.4c1.8-1.8,4.1-2.6,6.9-2.6h41.1V75h-43.1c-5.3,0-10.1,1.3-14.4,3.8c-4.2,2.5-7.6,5.9-10.1,10
					c-2.5,4.1-3.7,8.7-3.7,13.6c0,6.2,1.3,11.3,4,15.3c2.7,4.1,6.3,7.1,10.9,9c4.6,1.9,9.9,2.9,15.8,2.9h18.2c2.1,0,3.9,0.4,5.4,1.4
					c1.6,0.9,2.8,2.1,3.6,3.5s1.3,3.1,1.3,5.1c0,1.7-0.4,3.3-1.4,4.9c-0.9,1.6-2.2,2.9-3.8,3.8c-1.6,1-3.5,1.4-5.7,1.4h-44.7v17.8
					h46.9c5.6,0,10.6-1.3,15-3.9c4.4-2.6,7.9-6.1,10.4-10.5c2.5-4.4,3.8-9.2,3.8-14.3c0-6.3-1.2-11.5-3.7-15.6
					C197.8,119.2,194.2,116.1,189.5,114.1L189.5,114.1z"/>
				<path class="st0" d="M242.9,51.7h-20.7V75h-16v17.8h16v48.5c0,8.1,2.3,14.5,7,19.3c4.7,4.7,11.1,7.1,19.4,7.1h23.1v-17.8h-19.4
					c-2.8,0-5-0.9-6.7-2.6c-1.7-1.8-2.5-4-2.5-6.8V92.8h28.9V75h-28.9L242.9,51.7L242.9,51.7z"/>
				<path class="st0" d="M352.2,79.3c-7.1-4.3-15.7-6.4-25.7-6.4s-18.9,2.2-26.2,6.4c-7.3,4.3-13,10.1-16.9,17.4
					c-3.9,7.3-5.9,15.6-5.9,24.8s1.7,16.9,5.2,24.2c3.5,7.3,8.4,13.2,14.8,17.5c6.4,4.4,14,6.5,22.9,6.5c5.7,0,10.7-0.9,14.9-2.7
					c4.2-1.8,7.8-4.2,10.7-7.2c2.9-3,5.3-6.1,7.1-9.5h0.4v17.3h20.9v-46.5c0-9-1.9-17.1-5.7-24.4C364.7,89.4,359.2,83.6,352.2,79.3
					L352.2,79.3z M349.6,136.9c-2.2,4.7-5.4,8.4-9.5,11.1c-4.1,2.7-8.8,4.1-14.3,4.1c-5.8,0-10.8-1.4-14.8-4.1
					c-4.1-2.7-7.2-6.4-9.4-11.1s-3.3-9.8-3.3-15.5s1.1-11,3.3-15.6s5.3-8.3,9.5-11c4.1-2.7,9.1-4.1,14.9-4.1s10.4,1.4,14.4,4.1
					c4,2.7,7.1,6.4,9.3,10.9s3.3,9.7,3.3,15.5S351.8,132.2,349.6,136.9L349.6,136.9z"/>
				<path class="st0" d="M392.9,82c-4.7,4.7-7,11.1-7,19.3v66.3h20.9v-65.4c0-2.9,0.8-5.2,2.5-6.9s3.9-2.5,6.8-2.5h18.5V75h-22.4
					C403.9,75,397.5,77.3,392.9,82L392.9,82z"/>
				<path class="st0" d="M552.1,79.3c-7.4-4.3-15.8-6.4-25.2-6.4s-18,2.2-25.4,6.4c-7.4,4.3-13.2,10.1-17.5,17.4
					c-4.3,7.3-6.5,15.5-6.5,24.6s2.1,17.3,6.5,24.6c4.3,7.3,10.1,13.1,17.5,17.4c7.4,4.3,15.9,6.4,25.4,6.4s17.9-2.1,25.2-6.4
					s13.2-10.1,17.5-17.4c4.3-7.3,6.5-15.5,6.5-24.6s-2.2-17.4-6.5-24.7S559.5,83.6,552.1,79.3z M551.6,136.9
					c-2.3,4.6-5.6,8.3-9.8,11c-4.2,2.7-9.2,4.1-14.9,4.1s-10.8-1.4-15-4.1c-4.2-2.7-7.5-6.4-9.8-11.1s-3.5-9.8-3.5-15.5
					s1.2-11,3.5-15.6c2.4-4.6,5.6-8.3,9.8-11s9.2-4.1,15-4.1s10.7,1.4,14.9,4.1c4.2,2.7,7.5,6.4,9.8,11.1s3.5,9.8,3.5,15.5
					S553.9,132.4,551.6,136.9L551.6,136.9z"/>
				<path class="st0" d="M652.7,78.2c-6.6-3.6-14.4-5.4-23.3-5.4s-16.8,1.8-23.4,5.4s-11.8,8.5-15.4,14.7s-5.5,13.3-5.5,21.3v53.4
					h20.9v-53.2c0-4.7,1.1-8.9,3.2-12.4c2.1-3.6,5-6.4,8.5-8.4c3.6-2,7.4-3,11.5-3s8.1,1,11.7,3c3.6,2,6.5,4.8,8.6,8.4
					s3.3,7.7,3.3,12.4v53.2h20.7v-53.4c0-8-1.8-15.1-5.5-21.3S659.3,81.8,652.7,78.2z"/>
				<path class="st0" d="M766.4,96.2c-3.1-7.2-7.8-12.8-14.3-17.1c-6.4-4.2-14.6-6.4-24.5-6.4c-8.8,0-16.7,2.1-23.4,6.2
					s-12.1,9.8-16,17.1c-3.9,7.3-5.8,15.7-5.8,25.2s2.2,17.1,6.5,24.1c4.4,7,10.5,12.4,18.3,16.4c7.8,3.9,16.9,5.9,27.3,5.9h24.9
					v-17.8h-24.9c-5.2,0-9.9-0.8-14.2-2.4c-4.2-1.6-7.8-4.1-10.5-7.3s-4.5-7.2-5.3-12.1h65.8c0.2-0.8,0.4-2.1,0.5-3.6s0.2-3,0.2-4.2
					C771,111.4,769.5,103.4,766.4,96.2L766.4,96.2z M704.3,113.9c0.4-2.9,1.1-5.8,2.1-8.6c1-2.8,2.5-5.4,4.5-7.6s4.3-4.1,7.1-5.4
					c2.8-1.4,6-2.1,9.6-2.1c3.2,0,5.9,0.4,8.4,1.4c2.4,0.9,4.5,2.1,6.3,3.6c1.8,1.5,3.2,3.3,4.4,5.4c1.2,2.1,2,4.2,2.5,6.5
					c0.5,2.3,0.9,4.6,1,6.9L704.3,113.9L704.3,113.9z"/>
			</g>
			<g>
				<polygon class="st0" points="108.3,0 119.4,34.1 100.4,92.9 22.2,92.9 0,75 83.7,75 				"/>
				<polygon class="st0" points="67.9,123.4 86.1,136.5 71.8,180.2 42.4,200.8 				"/>
			</g>
		</g>
	</g>
</g>
</svg>
