<?xml version="1.0" encoding="UTF-8"?>
<svg id="Layer_1" xmlns="http://www.w3.org/2000/svg" version="1.1" viewBox="0 0 800 800">
  <!-- Generator: Adobe Illustrator 30.3.0, SVG Export Plug-In . SVG Version: 2.1.3 Build 182)  -->
  <defs>
    <style>
      .st0 {
        fill: #fff;
      }
    </style>
  </defs>
  <path class="st0" d="M292.3,370.3c11.5,75.5-49.4,139.4-123,136.7-74.4-2.7-128.2-72.5-112.6-145.8-9.9-11.1-13.1-26.2-6.4-39.3,6.6-13,21.2-19.1,36.3-17.1,27.7-28.2,67.4-43.4,109.2-35.5,35.4,6.7,70.4,30.2,85.9,66.6,4.5,10.5,8.8,22.3,10.6,34.6h0ZM69.1,368.6c-7.6,44.5,13,87.5,49.5,109.8,36.5,22.2,86,19.9,120.7-6.9,34.4-26.5,49.3-71.2,37.3-113.6-10.1-36-38.6-63.2-71.7-73-38.5-11.4-77.4-.8-105.1,25.8,13.8,11.2,16.8,28.6,8.9,42.8-7.9,14.2-24.2,20.2-39.6,15.1h0Z"/>
  <polygon class="st0" points="619.3 387.1 576.6 327.1 576.4 382.9 568.6 382.8 568.8 302.1 611.6 362.6 611.8 306.8 619.7 306.8 619.3 387.1"/>
  <path class="st0" d="M644.8,363.4c6.7,9.1,15.9,13.1,25.9,12.7,9.6-.4,19.2-6,24.4-15.4,2.3-.9,6.4-1,9.2-.5-8,19.1-28.1,28.3-46.9,22-16.3-5.4-26.3-20.6-26.4-36.8-.2-16.2,9.9-32.6,26.5-38,18.9-6.1,38.7,2.7,46.8,21.9l-8.8.2c-8-15-26.5-20.5-40.9-12.1-16.3,9.5-21,30.7-9.8,46h0Z"/>
  <path class="st0" d="M758.4,348.6h-36.3v27.3h36.8c.6,1.3.6,6-.1,7.3h-44.6s0-76.6,0-76.6h44.8l.4,7.3h-37.3s0,27.3,0,27.3h36.4v7.4s0,0,0,0Z"/>
  <path class="st0" d="M440.9,362.5l-34-.3-7.8,19.4c-1.1,1.4-6,1.6-8.7.7l33.4-80.7,33.2,80.6c-2.4,1.1-8.1,1-8.8-.9l-7.3-18.9h0ZM437.6,354.9l-13.9-35-14,35.2,27.9-.2h0Z"/>
  <polygon class="st0" points="552.7 348.5 516.3 348.6 516.2 375.9 553.6 375.9 553.6 383.1 508.5 383.1 508.3 306.6 553.6 306.5 553.8 313.8 516.3 313.8 516.2 341.1 552.2 341.1 552.7 348.5"/>
  <polygon class="st0" points="762.5 488.3 725.3 435.9 725.1 485 718.2 485 718.4 414.5 755.6 466.4 756.1 418.4 763 418.3 762.5 488.3"/>
  <path class="st0" d="M667.2,417.7c19.8-3.9,37.5,9.4,40.7,27.5,3.3,18.7-8.8,36.5-28,40.1-17.5,3.3-35.5-8.5-39.5-26.4-4-17.9,7-37.3,26.8-41.3h0ZM665.9,425.1c-15.7,4.8-22.5,20.9-18.3,34.3,4.7,15,19.9,22.5,33.9,18.5,14.9-4.3,22.9-19.5,19.3-33.2-4-15.2-19.1-24.4-34.9-19.6h0Z"/>
  <path class="st0" d="M408.8,485.3l-19.4-26.3-8.5-.5v26.5h-6.9v-67h23c11.3.1,19.8,9.6,19.8,19.9,0,10.8-7.5,19.3-19.3,20.6l20,26.1-8.6.7h0ZM399,451.5c7.5-.3,10.9-8.1,10.9-13.5,0-5-3.1-12.6-9.5-12.8l-19.5-.8v27.7l18-.6h0Z"/>
  <path class="st0" d="M380.9,307.8c1.1-1.5,7.4-1.5,8.7-.6l-34.3,80.3-34.5-80.3,8.3-.4,26.2,61.2,25.5-60.2h0Z"/>
  <path class="st0" d="M482.4,452.5c.4,12.8,9.1,22.6,19.4,25.5,11.8,3.4,23.8-1.7,30.1-12.9l8-.2c-6.4,15.6-22.5,23.9-38.2,20.4-15.6-3.5-26.7-18.1-26.2-34.7.5-15.9,11.7-29.4,26-32.5,15.7-3.4,31.1,3.8,38,19.8l-7.5.4c-6.4-11.4-18.4-16.3-30.6-12.8-10.8,3.1-19.5,13.8-19.1,27.1h0Z"/>
  <path class="st0" d="M605.1,483c-15.1,7.4-38.3,3.1-40.5-13.5l7,.3c1.4,0,2.4,3.7,3.3,5.1,7.6,6.6,19,7,27.9,1.9,2.8-1.6,5.1-6.7,5-9.7s-3.7-8.1-7.1-9.2l-21-6.6c-7.4-2.3-13.3-7.8-13.5-14.7-.2-7.6,3.3-14.4,11-17.3,13.4-5.1,30.7-1.5,34.1,11.9-5.3,2-7.4-.9-10.4-4.2-4.6-5-14.1-4.7-20.3-2.6-4.3,1.4-7.2,5.6-7.3,9.5s3.4,9,7.7,10.4l20.9,6.6c7,2.2,12.3,7.4,12.8,14,.6,7-1.9,14.5-9.5,18.3h0Z"/>
  <polygon class="st0" points="464.7 454.8 432.7 454.8 432.6 478.7 465.3 478.7 465.3 485.1 425.7 485.1 425.7 418.1 465.2 418 465.3 424.4 432.7 424.4 432.6 448.3 463.9 448.3 464.7 454.8"/>
  <path class="st0" d="M330.7,458.8v26.2h-6.9v-66.9h22.5c11.7,0,20.2,9.1,20.3,19.9.1,10.8-7.8,20-19.4,20.3l-16.5.5ZM348.4,451.5c7.4-.2,11.2-8,11.2-13.5,0-4.9-3.2-12.6-9.6-12.9l-19.4-.7v27.6l17.8-.5h0Z"/>
  <polygon class="st0" points="499.6 375.3 499.7 383.1 464.7 383.1 464.7 306.8 472.5 306.8 472.5 375.2 499.6 375.3"/>
  <polygon class="st0" points="629.7 484.6 622.5 484.9 622.5 417.2 629.7 417.2 629.7 484.6"/>
  <polygon class="st0" points="556 484.6 548.7 484.9 548.7 417.2 556 417.2 556 484.6"/>
  <path class="st0" d="M143.5,415.3c-12.1-13.6-14.5-32.7-6.2-48.2,12.1-22.4,40.4-28.5,60.8-14.2,19.6,13.7,23.8,41.9,8.2,60.7-15.7,18.9-45.3,21.3-62.8,1.7h0Z"/>
</svg>